<svg width="1154" height="562" viewBox="0 0 1154 562" fill="none" xmlns="http://www.w3.org/2000/svg">
<rect width="1154" height="562" fill="url(#paint0_linear_215_8)"/>
<g filter="url(#filter0_d_215_8)">
<circle cx="256.338" cy="197.154" r="24.9345" fill="#74A435"/>
</g>
<path d="M246.92 185.636L246.92 185.636C247.688 184.999 248.903 184.815 250.416 184.986C251.911 185.155 253.592 185.66 255.184 186.27C256.772 186.877 258.249 187.58 259.331 188.132C259.872 188.408 260.312 188.646 260.617 188.814C260.77 188.898 260.888 188.965 260.968 189.01C261.008 189.033 261.039 189.051 261.059 189.062L261.078 189.073L261.094 189.084C261.111 189.096 261.139 189.115 261.175 189.14C261.248 189.191 261.356 189.269 261.492 189.374C261.765 189.585 262.153 189.903 262.601 190.329C263.499 191.182 264.637 192.461 265.596 194.168C267.481 197.52 268.704 202.557 265.988 209.335C259.942 210.001 255.596 208.992 252.51 207.112C249.379 205.205 247.495 202.37 246.45 199.351C245.404 196.328 245.205 193.132 245.445 190.548C245.565 189.257 245.793 188.13 246.073 187.264C246.361 186.371 246.677 185.837 246.92 185.636Z" fill="#74A435" stroke="white" stroke-width="0.952631"/>
<path d="M249.017 188.742L265.59 209.21C265.692 209.336 265.895 209.257 265.888 209.093V209.093" stroke="white" stroke-width="0.793859" stroke-linecap="round"/>
<path d="M253.928 189.283V189.283C252.574 189.133 251.355 190.131 251.21 191.508V191.508" stroke="white" stroke-width="0.793859" stroke-linecap="round"/>
<path d="M251.21 191.508V191.508C249.855 191.358 248.636 192.356 248.491 193.733V193.733" stroke="white" stroke-width="0.793859" stroke-linecap="round"/>
<path d="M255.489 191.254V191.254C254.135 191.105 252.915 192.103 252.77 193.479V193.479" stroke="white" stroke-width="0.793859" stroke-linecap="round"/>
<path d="M252.769 193.479V193.479C251.415 193.33 250.195 194.328 250.05 195.704V195.704" stroke="white" stroke-width="0.793859" stroke-linecap="round"/>
<path d="M257.053 193.222V193.222C255.698 193.073 254.479 194.071 254.334 195.447V195.447" stroke="white" stroke-width="0.793859" stroke-linecap="round"/>
<path d="M254.333 195.447V195.447C252.978 195.298 251.759 196.296 251.614 197.672V197.672" stroke="white" stroke-width="0.793859" stroke-linecap="round"/>
<path d="M258.613 195.193V195.193C257.259 195.044 256.039 196.041 255.894 197.418V197.418" stroke="white" stroke-width="0.793859" stroke-linecap="round"/>
<path d="M255.895 197.418V197.418C254.541 197.269 253.321 198.267 253.176 199.643V199.643" stroke="white" stroke-width="0.793859" stroke-linecap="round"/>
<path d="M260.176 197.164V197.164C258.821 197.015 257.602 198.013 257.457 199.389V199.389" stroke="white" stroke-width="0.793859" stroke-linecap="round"/>
<path d="M257.456 199.389V199.389C256.101 199.24 254.882 200.238 254.737 201.614V201.614" stroke="white" stroke-width="0.793859" stroke-linecap="round"/>
<path d="M261.738 199.132V199.132C260.384 198.983 259.164 199.981 259.019 201.357V201.357" stroke="white" stroke-width="0.793859" stroke-linecap="round"/>
<path d="M259.019 201.357V201.357C257.665 201.208 256.445 202.206 256.3 203.583V203.583" stroke="white" stroke-width="0.793859" stroke-linecap="round"/>
<path d="M263.298 201.103V201.103C261.943 200.954 260.724 201.952 260.579 203.328V203.328" stroke="white" stroke-width="0.793859" stroke-linecap="round"/>
<path d="M260.579 203.328V203.328C259.224 203.179 258.005 204.177 257.86 205.553V205.553" stroke="white" stroke-width="0.793859" stroke-linecap="round"/>
<g filter="url(#filter1_d_215_8)">
<circle cx="331.972" cy="370.034" r="24.9345" fill="#74A435"/>
</g>
<path d="M338.606 356.469L338.606 356.469C339.512 356.885 340.204 357.901 340.705 359.339C341.199 360.76 341.471 362.494 341.611 364.193C341.75 365.887 341.756 367.524 341.726 368.738C341.711 369.345 341.688 369.845 341.668 370.192C341.658 370.366 341.649 370.502 341.643 370.594C341.64 370.64 341.637 370.674 341.635 370.698L341.633 370.72L341.631 370.739C341.628 370.76 341.623 370.793 341.615 370.836C341.601 370.924 341.577 371.055 341.541 371.224C341.47 371.561 341.351 372.048 341.161 372.636C340.78 373.815 340.119 375.394 338.996 376.998C336.79 380.148 332.778 383.43 325.492 383.915C322.275 378.752 321.304 374.398 321.663 370.802C322.028 367.154 323.769 364.228 326.038 361.98C328.311 359.728 331.106 358.167 333.539 357.265C334.755 356.814 335.869 356.532 336.771 356.409C337.701 356.283 338.319 356.337 338.606 356.469Z" fill="#74A435" stroke="white" stroke-width="0.952631"/>
<path d="M336.712 359.703L325.432 383.501C325.362 383.648 325.521 383.796 325.666 383.719V383.719" stroke="white" stroke-width="0.793859" stroke-linecap="round"/>
<path d="M338.35 364.365V364.365C337.898 363.079 336.471 362.412 335.167 362.877V362.877" stroke="white" stroke-width="0.793859" stroke-linecap="round"/>
<path d="M335.167 362.877V362.877C334.715 361.591 333.288 360.924 331.984 361.389V361.389" stroke="white" stroke-width="0.793859" stroke-linecap="round"/>
<path d="M337.251 366.626V366.626C336.799 365.34 335.372 364.673 334.068 365.138V365.138" stroke="white" stroke-width="0.793859" stroke-linecap="round"/>
<path d="M334.067 365.137V365.137C333.616 363.851 332.188 363.184 330.885 363.649V363.649" stroke="white" stroke-width="0.793859" stroke-linecap="round"/>
<path d="M336.151 368.887V368.887C335.7 367.601 334.272 366.934 332.969 367.399V367.399" stroke="white" stroke-width="0.793859" stroke-linecap="round"/>
<path d="M332.969 367.399V367.399C332.517 366.113 331.09 365.445 329.786 365.91V365.91" stroke="white" stroke-width="0.793859" stroke-linecap="round"/>
<path d="M335.05 371.146V371.146C334.598 369.86 333.171 369.193 331.867 369.658V369.658" stroke="white" stroke-width="0.793859" stroke-linecap="round"/>
<path d="M331.867 369.658V369.658C331.416 368.372 329.988 367.705 328.684 368.17V368.17" stroke="white" stroke-width="0.793859" stroke-linecap="round"/>
<path d="M333.949 373.407V373.407C333.498 372.122 332.07 371.454 330.767 371.919V371.919" stroke="white" stroke-width="0.793859" stroke-linecap="round"/>
<path d="M330.766 371.919V371.919C330.314 370.633 328.887 369.965 327.583 370.43V370.43" stroke="white" stroke-width="0.793859" stroke-linecap="round"/>
<path d="M332.851 375.668V375.668C332.399 374.382 330.972 373.714 329.668 374.179V374.179" stroke="white" stroke-width="0.793859" stroke-linecap="round"/>
<path d="M329.668 374.18V374.18C329.216 372.894 327.789 372.227 326.485 372.692V372.692" stroke="white" stroke-width="0.793859" stroke-linecap="round"/>
<path d="M331.749 377.927V377.927C331.297 376.642 329.87 375.974 328.566 376.439V376.439" stroke="white" stroke-width="0.793859" stroke-linecap="round"/>
<path d="M328.566 376.439V376.439C328.115 375.153 326.687 374.486 325.384 374.951V374.951" stroke="white" stroke-width="0.793859" stroke-linecap="round"/>
<g filter="url(#filter2_d_215_8)">
<circle cx="440.853" cy="153.935" r="24.9345" fill="#74A435"/>
</g>
<path d="M447.49 140.371L447.49 140.371C448.396 140.787 449.088 141.803 449.588 143.241C450.082 144.662 450.355 146.396 450.494 148.095C450.634 149.789 450.639 151.425 450.61 152.64C450.595 153.247 450.572 153.747 450.552 154.094C450.542 154.268 450.533 154.404 450.527 154.496C450.523 154.541 450.521 154.576 450.519 154.6L450.517 154.622L450.515 154.64C450.511 154.662 450.506 154.695 450.499 154.738C450.485 154.826 450.461 154.957 450.425 155.126C450.354 155.463 450.234 155.95 450.045 156.538C449.664 157.717 449.003 159.296 447.88 160.9C445.674 164.05 441.662 167.332 434.376 167.817C431.159 162.653 430.188 158.3 430.547 154.704C430.912 151.056 432.652 148.13 434.921 145.882C437.194 143.63 439.989 142.069 442.423 141.167C443.639 140.716 444.753 140.434 445.655 140.311C446.585 140.184 447.203 140.239 447.49 140.371Z" fill="#74A435" stroke="white" stroke-width="0.952631"/>
<path d="M445.594 143.604L434.314 167.402C434.244 167.549 434.403 167.697 434.548 167.62V167.62" stroke="white" stroke-width="0.793859" stroke-linecap="round"/>
<path d="M447.232 148.266V148.266C446.781 146.981 445.353 146.313 444.05 146.778V146.778" stroke="white" stroke-width="0.793859" stroke-linecap="round"/>
<path d="M444.05 146.778V146.778C443.598 145.492 442.171 144.825 440.867 145.29V145.29" stroke="white" stroke-width="0.793859" stroke-linecap="round"/>
<path d="M446.134 150.527V150.527C445.682 149.241 444.255 148.574 442.951 149.039V149.039" stroke="white" stroke-width="0.793859" stroke-linecap="round"/>
<path d="M442.95 149.038V149.038C442.499 147.752 441.071 147.085 439.767 147.549V147.549" stroke="white" stroke-width="0.793859" stroke-linecap="round"/>
<path d="M445.034 152.787V152.787C444.583 151.502 443.155 150.834 441.851 151.299V151.299" stroke="white" stroke-width="0.793859" stroke-linecap="round"/>
<path d="M441.851 151.299V151.299C441.4 150.013 439.973 149.346 438.669 149.811V149.811" stroke="white" stroke-width="0.793859" stroke-linecap="round"/>
<path d="M443.933 155.047V155.047C443.481 153.761 442.054 153.093 440.75 153.558V153.558" stroke="white" stroke-width="0.793859" stroke-linecap="round"/>
<path d="M440.75 153.559V153.559C440.298 152.273 438.871 151.606 437.567 152.07V152.07" stroke="white" stroke-width="0.793859" stroke-linecap="round"/>
<path d="M442.832 157.308V157.308C442.38 156.023 440.953 155.355 439.649 155.82V155.82" stroke="white" stroke-width="0.793859" stroke-linecap="round"/>
<path d="M439.648 155.819V155.819C439.197 154.533 437.769 153.866 436.466 154.331V154.331" stroke="white" stroke-width="0.793859" stroke-linecap="round"/>
<path d="M441.732 159.569V159.569C441.281 158.283 439.853 157.615 438.55 158.08V158.08" stroke="white" stroke-width="0.793859" stroke-linecap="round"/>
<path d="M438.55 158.08V158.08C438.098 156.795 436.671 156.127 435.367 156.592V156.592" stroke="white" stroke-width="0.793859" stroke-linecap="round"/>
<path d="M440.631 161.828V161.828C440.179 160.542 438.752 159.875 437.448 160.339V160.339" stroke="white" stroke-width="0.793859" stroke-linecap="round"/>
<path d="M437.448 160.34V160.34C436.997 159.054 435.569 158.386 434.266 158.851V158.851" stroke="white" stroke-width="0.793859" stroke-linecap="round"/>
<g filter="url(#filter3_d_215_8)">
<circle cx="352.751" cy="197.153" r="45.7133" fill="#74A435"/>
</g>
<path d="M342.024 213.391L340.496 211.785L334.85 217.154L342.477 215.562L342.024 213.391ZM336.66 216.34L337.997 214.571L337.133 213.919L336.087 214.198L336.66 216.34ZM340.724 219.41L339.387 221.179L342.143 223.261L342.889 219.888L340.724 219.41ZM342.055 213.385L344.221 213.864L344.961 210.513L341.602 211.214L342.055 213.385ZM342.882 206.536C342.882 208.488 342.026 210.33 340.496 211.785L343.552 214.998C345.847 212.816 347.317 209.853 347.317 206.536H342.882ZM333.05 198.479C338.825 198.479 342.882 202.405 342.882 206.536H347.317C347.317 199.318 340.584 194.044 333.05 194.044V198.479ZM323.218 206.536C323.218 202.405 327.275 198.479 333.05 198.479V194.044C325.515 194.044 318.782 199.318 318.782 206.536H323.218ZM333.05 214.592C327.275 214.592 323.218 210.667 323.218 206.536H318.782C318.782 213.753 325.515 219.027 333.05 219.027V214.592ZM336.087 214.198C335.134 214.453 334.114 214.592 333.05 214.592V219.027C334.501 219.027 335.906 218.838 337.233 218.483L336.087 214.198ZM342.06 217.64L337.997 214.571L335.323 218.11L339.387 221.179L342.06 217.64ZM339.89 212.906L338.558 218.931L342.889 219.888L344.221 213.864L339.89 212.906ZM342.477 215.562L342.508 215.556L341.602 211.214L341.571 211.221L342.477 215.562Z" fill="white"/>
<path fill-rule="evenodd" clip-rule="evenodd" d="M357.617 202.801C355.072 200.381 353.524 197.182 353.524 193.676C353.524 186.123 360.705 180 369.563 180C378.422 180 385.603 186.123 385.603 193.676C385.603 201.228 378.422 207.351 369.563 207.351C367.889 207.351 366.275 207.132 364.758 206.727L359.349 210.812L357.576 202.793L357.617 202.801Z" fill="#74A435"/>
<path d="M357.617 202.801L359.145 201.194L364.791 206.564L357.164 204.972L357.617 202.801ZM364.758 206.727L363.421 204.957L364.285 204.305L365.331 204.584L364.758 206.727ZM359.349 210.812L360.685 212.582L357.929 214.664L357.184 211.291L359.349 210.812ZM357.576 202.793L355.411 203.271L354.67 199.921L358.029 200.622L357.576 202.793ZM355.742 193.676C355.742 196.5 356.983 199.138 359.145 201.194L356.089 204.408C353.161 201.624 351.307 197.865 351.307 193.676H355.742ZM369.563 182.218C361.585 182.218 355.742 187.666 355.742 193.676H351.307C351.307 184.58 359.825 177.782 369.563 177.782V182.218ZM383.385 193.676C383.385 187.666 377.542 182.218 369.563 182.218V177.782C379.302 177.782 387.82 184.58 387.82 193.676H383.385ZM369.563 205.134C377.542 205.134 383.385 199.685 383.385 193.676H387.82C387.82 202.771 379.302 209.569 369.563 209.569V205.134ZM365.331 204.584C366.661 204.94 368.082 205.134 369.563 205.134V209.569C367.696 209.569 365.889 209.325 364.185 208.869L365.331 204.584ZM358.012 209.043L363.421 204.957L366.094 208.496L360.685 212.582L358.012 209.043ZM359.741 202.314L361.514 210.334L357.184 211.291L355.411 203.271L359.741 202.314ZM357.164 204.972L357.123 204.963L358.029 200.622L358.07 200.63L357.164 204.972Z" fill="white"/>
<g filter="url(#filter4_d_215_8)">
<circle cx="239.713" cy="318.502" r="45.7133" fill="#74A435"/>
</g>
<path fill-rule="evenodd" clip-rule="evenodd" d="M211.771 307.502C209.592 304.544 209.295 300.602 211.005 297.351L213.718 292.192C214.387 290.921 216.096 290.662 217.111 291.678L227.572 302.139C228.405 302.971 228.405 304.32 227.572 305.153L224.106 308.619L224.123 308.635C222.917 310.141 223.012 312.346 224.408 313.742L244.751 334.085C246.147 335.481 248.352 335.576 249.858 334.37L249.874 334.386L243.244 341.017L217.476 315.249L217.476 315.249L211.771 307.502ZM250.991 346.722C253.948 348.901 257.891 349.198 261.142 347.488L266.3 344.775C267.571 344.106 267.831 342.397 266.815 341.382L256.354 330.921C255.522 330.088 254.172 330.088 253.34 330.921L243.244 341.017L250.991 346.722ZM218.706 290.385C217.791 289.47 217.791 287.986 218.706 287.07L221.117 284.659C222.033 283.744 223.517 283.744 224.433 284.659L234.981 295.207C235.896 296.123 235.896 297.607 234.981 298.522L232.57 300.934C231.654 301.849 230.17 301.849 229.255 300.934L218.706 290.385ZM257.584 325.948C256.669 326.863 256.669 328.348 257.584 329.263L268.132 339.811C269.048 340.727 270.532 340.727 271.447 339.811L273.858 337.4C274.774 336.485 274.774 335.001 273.858 334.085L263.31 323.537C262.395 322.621 260.91 322.621 259.995 323.537L257.584 325.948Z" fill="white"/>
<path d="M661 184V403.956M661 184H959.34M661 184L775.625 289.331M661 403.956L775.625 289.331M661 403.956H959.34M959.34 403.956V184M959.34 403.956L842.856 289.331M959.34 184L842.856 289.331M775.625 289.331L808.97 319.973L842.856 289.331" stroke="white" stroke-width="21.12" stroke-linecap="round"/>
<path d="M530 206L621 206" stroke="white" stroke-width="22"/>
<path d="M530 389L621 389" stroke="white" stroke-width="22"/>
<path d="M451 294L621 294" stroke="white" stroke-width="22"/>
<g filter="url(#filter5_d_215_8)">
<circle cx="504.935" cy="408.935" r="24.9345" fill="#74A435"/>
</g>
<path d="M511.572 395.371L511.572 395.371C512.478 395.787 513.17 396.803 513.67 398.241C514.164 399.662 514.437 401.396 514.577 403.095C514.716 404.789 514.721 406.425 514.692 407.64C514.677 408.247 514.654 408.747 514.634 409.094C514.624 409.268 514.615 409.404 514.609 409.496C514.605 409.541 514.603 409.576 514.601 409.6L514.599 409.622L514.597 409.64C514.593 409.662 514.588 409.695 514.581 409.738C514.567 409.826 514.543 409.957 514.507 410.126C514.436 410.463 514.316 410.95 514.127 411.538C513.746 412.717 513.085 414.296 511.962 415.9C509.756 419.05 505.744 422.332 498.458 422.817C495.241 417.653 494.27 413.3 494.629 409.704C494.994 406.056 496.734 403.13 499.003 400.882C501.276 398.63 504.071 397.069 506.505 396.167C507.721 395.716 508.835 395.434 509.737 395.311C510.667 395.184 511.285 395.239 511.572 395.371Z" fill="#74A435" stroke="white" stroke-width="0.952631"/>
<path d="M509.677 398.605L498.397 422.403C498.327 422.55 498.486 422.698 498.631 422.621V422.621" stroke="white" stroke-width="0.793859" stroke-linecap="round"/>
<path d="M511.315 403.267V403.267C510.864 401.981 509.436 401.314 508.133 401.778V401.778" stroke="white" stroke-width="0.793859" stroke-linecap="round"/>
<path d="M508.133 401.779V401.779C507.681 400.493 506.254 399.826 504.95 400.291V400.291" stroke="white" stroke-width="0.793859" stroke-linecap="round"/>
<path d="M510.216 405.527V405.527C509.764 404.242 508.337 403.574 507.033 404.039V404.039" stroke="white" stroke-width="0.793859" stroke-linecap="round"/>
<path d="M507.032 404.038V404.038C506.581 402.753 505.153 402.085 503.85 402.55V402.55" stroke="white" stroke-width="0.793859" stroke-linecap="round"/>
<path d="M509.116 407.788V407.788C508.665 406.503 507.237 405.835 505.934 406.3V406.3" stroke="white" stroke-width="0.793859" stroke-linecap="round"/>
<path d="M505.934 406.3V406.3C505.482 405.015 504.055 404.347 502.751 404.812V404.812" stroke="white" stroke-width="0.793859" stroke-linecap="round"/>
<path d="M508.015 410.048V410.048C507.563 408.762 506.136 408.094 504.832 408.559V408.559" stroke="white" stroke-width="0.793859" stroke-linecap="round"/>
<path d="M504.832 408.56V408.56C504.38 407.274 502.953 406.607 501.649 407.071V407.071" stroke="white" stroke-width="0.793859" stroke-linecap="round"/>
<path d="M506.914 412.309V412.309C506.462 411.024 505.035 410.356 503.731 410.821V410.821" stroke="white" stroke-width="0.793859" stroke-linecap="round"/>
<path d="M503.73 410.82V410.82C503.279 409.535 501.851 408.867 500.548 409.332V409.332" stroke="white" stroke-width="0.793859" stroke-linecap="round"/>
<path d="M505.814 414.569V414.569C505.363 413.283 503.935 412.616 502.632 413.081V413.081" stroke="white" stroke-width="0.793859" stroke-linecap="round"/>
<path d="M502.632 413.081V413.081C502.18 411.796 500.753 411.128 499.449 411.593V411.593" stroke="white" stroke-width="0.793859" stroke-linecap="round"/>
<path d="M504.714 416.829V416.829C504.262 415.543 502.835 414.876 501.531 415.34V415.34" stroke="white" stroke-width="0.793859" stroke-linecap="round"/>
<path d="M501.531 415.34V415.34C501.08 414.055 499.652 413.387 498.349 413.852V413.852" stroke="white" stroke-width="0.793859" stroke-linecap="round"/>
<g filter="url(#filter6_d_215_8)">
<circle cx="434.713" cy="319.713" r="45.7133" fill="#74A435"/>
</g>
<path d="M416.385 292.842H449.101L449.034 294.176C448.835 298.193 452.039 301.56 456.061 301.56H457.19V343.589C457.19 345.47 455.666 346.995 453.785 346.995H416.385C414.505 346.995 412.98 345.47 412.98 343.589V296.247C412.98 294.366 414.505 292.842 416.385 292.842ZM454.364 297.478C453.749 297.123 453.256 296.582 452.96 295.934L453.906 296.992L453.922 297.011L453.94 297.029L454.364 297.478Z" stroke="white" stroke-width="3.63"/>
<path d="M419.667 300.681H437.967" stroke="white" stroke-width="3.63" stroke-linecap="round"/>
<path d="M419.667 307.454H447.189" stroke="white" stroke-width="3.63" stroke-linecap="round"/>
<path d="M419.667 314.227H449.207" stroke="white" stroke-width="3.63" stroke-linecap="round"/>
<path d="M419.667 320.999H441.57" stroke="white" stroke-width="3.63" stroke-linecap="round"/>
<path d="M419.667 327.771H449.207" stroke="white" stroke-width="3.63" stroke-linecap="round"/>
<path d="M419.667 334.544H447.189" stroke="white" stroke-width="3.63" stroke-linecap="round"/>
<path d="M419.667 341.317H450.504" stroke="white" stroke-width="3.63" stroke-linecap="round"/>
<circle cx="518.149" cy="215.439" r="45.7133" fill="#74A435"/>
<path fill-rule="evenodd" clip-rule="evenodd" d="M509.163 187.573C515.173 185.53 521.732 185.484 527.77 187.392C540.013 191.261 548.502 202.665 548.502 215.543C548.502 225.922 537.422 232.284 528.532 227.562C527.321 229.247 525.749 230.644 523.929 231.65C517.148 235.398 508.612 232.939 504.864 226.158C503.791 224.215 503.193 222.045 503.121 219.826L503.067 218.143C502.923 213.724 504.177 209.372 506.65 205.707L507.591 204.311C508.832 202.47 510.493 200.951 512.436 199.877C517.823 196.9 524.317 197.839 528.638 201.752L528.993 200.922C529.646 199.399 531.409 198.693 532.932 199.346C534.455 199.998 535.161 201.761 534.509 203.284L532.608 207.724C532.594 207.757 532.579 207.789 532.564 207.821C532.97 209.072 533.2 210.378 533.243 211.701L533.298 213.384C533.398 216.489 532.809 219.561 531.592 222.386C536.535 224.778 542.502 221.211 542.502 215.543C542.502 205.32 535.746 196.205 525.962 193.113C521.129 191.586 515.88 191.627 511.094 193.254L510.803 193.353C501.784 196.419 495.333 204.398 494.223 213.859L494.16 214.389C493.972 215.993 493.95 217.613 494.093 219.221C495.182 231.464 505.504 240.811 517.795 240.683L518.492 240.676C519.79 240.662 521.085 240.545 522.364 240.325L522.64 240.277C527.313 239.473 531.703 237.486 535.392 234.506L536.645 233.493C537.934 232.452 539.822 232.653 540.864 233.942C541.905 235.23 541.704 237.119 540.415 238.16L539.163 239.173C534.678 242.796 529.34 245.212 523.658 246.19L523.382 246.238C521.787 246.512 520.173 246.659 518.555 246.676L517.858 246.683C502.435 246.843 489.484 235.116 488.116 219.753C487.937 217.735 487.965 215.703 488.201 213.69L488.264 213.16C489.643 201.401 497.662 191.483 508.872 187.672L509.163 187.573ZM526.249 208.272C524.104 204.391 519.219 202.983 515.338 205.128C514.226 205.743 513.276 206.613 512.565 207.666L511.624 209.062C509.857 211.681 508.961 214.791 509.064 217.949L509.118 219.632C509.159 220.902 509.501 222.143 510.116 223.255C512.261 227.136 517.146 228.544 521.026 226.399C522.138 225.784 523.089 224.914 523.799 223.861L524.74 222.465C526.507 219.846 527.403 216.736 527.301 213.578L527.246 211.895C527.205 210.625 526.863 209.384 526.249 208.272Z" fill="white"/>
<g filter="url(#filter7_d_215_8)">
<circle cx="564.693" cy="316.009" r="24.9345" fill="#74A435"/>
</g>
<path d="M555.202 304.357L555.202 304.357C555.969 303.72 557.185 303.536 558.698 303.707C560.192 303.877 561.873 304.381 563.465 304.991C565.053 305.598 566.531 306.301 567.613 306.854C568.153 307.129 568.594 307.367 568.899 307.535C569.051 307.619 569.169 307.686 569.249 307.732C569.289 307.754 569.32 307.772 569.34 307.783L569.359 307.795L569.375 307.805C569.393 307.817 569.42 307.836 569.456 307.861C569.529 307.912 569.637 307.991 569.774 308.096C570.047 308.306 570.434 308.624 570.882 309.05C571.78 309.903 572.918 311.183 573.878 312.889C575.763 316.241 576.985 321.278 574.269 328.056C568.223 328.722 563.878 327.713 560.792 325.834C557.66 323.926 555.776 321.091 554.731 318.073C553.685 315.049 553.487 311.853 553.727 309.269C553.846 307.978 554.075 306.852 554.354 305.985C554.642 305.092 554.959 304.558 555.202 304.357Z" fill="#74A435" stroke="white" stroke-width="0.952631"/>
<path d="M557.296 307.463L573.869 327.931C573.971 328.057 574.174 327.978 574.168 327.814V327.814" stroke="white" stroke-width="0.793859" stroke-linecap="round"/>
<path d="M562.209 308.004V308.004C560.854 307.855 559.635 308.853 559.49 310.229V310.229" stroke="white" stroke-width="0.793859" stroke-linecap="round"/>
<path d="M559.49 310.229V310.229C558.136 310.08 556.916 311.078 556.771 312.454V312.454" stroke="white" stroke-width="0.793859" stroke-linecap="round"/>
<path d="M563.769 309.975V309.975C562.415 309.825 561.195 310.823 561.05 312.2V312.2" stroke="white" stroke-width="0.793859" stroke-linecap="round"/>
<path d="M561.05 312.2V312.2C559.695 312.05 558.476 313.048 558.331 314.425V314.425" stroke="white" stroke-width="0.793859" stroke-linecap="round"/>
<path d="M565.333 311.943V311.943C563.978 311.794 562.759 312.792 562.614 314.168V314.168" stroke="white" stroke-width="0.793859" stroke-linecap="round"/>
<path d="M562.614 314.168V314.168C561.26 314.019 560.04 315.017 559.895 316.394V316.394" stroke="white" stroke-width="0.793859" stroke-linecap="round"/>
<path d="M566.892 313.914V313.914C565.538 313.765 564.318 314.763 564.173 316.139V316.139" stroke="white" stroke-width="0.793859" stroke-linecap="round"/>
<path d="M564.174 316.139V316.139C562.819 315.99 561.6 316.988 561.455 318.364V318.364" stroke="white" stroke-width="0.793859" stroke-linecap="round"/>
<path d="M568.455 315.885V315.885C567.1 315.735 565.881 316.733 565.736 318.11V318.11" stroke="white" stroke-width="0.793859" stroke-linecap="round"/>
<path d="M565.735 318.11V318.11C564.381 317.961 563.161 318.958 563.016 320.335V320.335" stroke="white" stroke-width="0.793859" stroke-linecap="round"/>
<path d="M570.017 317.853V317.853C568.663 317.704 567.443 318.702 567.298 320.079V320.079" stroke="white" stroke-width="0.793859" stroke-linecap="round"/>
<path d="M567.299 320.079V320.079C565.944 319.929 564.725 320.927 564.58 322.304V322.304" stroke="white" stroke-width="0.793859" stroke-linecap="round"/>
<path d="M571.578 319.824V319.824C570.223 319.675 569.004 320.673 568.859 322.049V322.049" stroke="white" stroke-width="0.793859" stroke-linecap="round"/>
<path d="M568.859 322.049V322.049C567.505 321.9 566.285 322.898 566.14 324.274V324.274" stroke="white" stroke-width="0.793859" stroke-linecap="round"/>
<defs>
<filter id="filter0_d_215_8" x="211.456" y="155.597" width="89.7644" height="89.7644" filterUnits="userSpaceOnUse" color-interpolation-filters="sRGB">
<feFlood flood-opacity="0" result="BackgroundImageFix"/>
<feColorMatrix in="SourceAlpha" type="matrix" values="0 0 0 0 0 0 0 0 0 0 0 0 0 0 0 0 0 0 127 0" result="hardAlpha"/>
<feOffset dy="3.3246"/>
<feGaussianBlur stdDeviation="9.97381"/>
<feComposite in2="hardAlpha" operator="out"/>
<feColorMatrix type="matrix" values="0 0 0 0 0.192157 0 0 0 0 0.380392 0 0 0 0 0.152941 0 0 0 1 0"/>
<feBlend mode="normal" in2="BackgroundImageFix" result="effect1_dropShadow_215_8"/>
<feBlend mode="normal" in="SourceGraphic" in2="effect1_dropShadow_215_8" result="shape"/>
</filter>
<filter id="filter1_d_215_8" x="287.089" y="328.476" width="89.7644" height="89.7644" filterUnits="userSpaceOnUse" color-interpolation-filters="sRGB">
<feFlood flood-opacity="0" result="BackgroundImageFix"/>
<feColorMatrix in="SourceAlpha" type="matrix" values="0 0 0 0 0 0 0 0 0 0 0 0 0 0 0 0 0 0 127 0" result="hardAlpha"/>
<feOffset dy="3.3246"/>
<feGaussianBlur stdDeviation="9.97381"/>
<feComposite in2="hardAlpha" operator="out"/>
<feColorMatrix type="matrix" values="0 0 0 0 0.192157 0 0 0 0 0.380392 0 0 0 0 0.152941 0 0 0 1 0"/>
<feBlend mode="normal" in2="BackgroundImageFix" result="effect1_dropShadow_215_8"/>
<feBlend mode="normal" in="SourceGraphic" in2="effect1_dropShadow_215_8" result="shape"/>
</filter>
<filter id="filter2_d_215_8" x="395.971" y="112.377" width="89.7644" height="89.7644" filterUnits="userSpaceOnUse" color-interpolation-filters="sRGB">
<feFlood flood-opacity="0" result="BackgroundImageFix"/>
<feColorMatrix in="SourceAlpha" type="matrix" values="0 0 0 0 0 0 0 0 0 0 0 0 0 0 0 0 0 0 127 0" result="hardAlpha"/>
<feOffset dy="3.3246"/>
<feGaussianBlur stdDeviation="9.97381"/>
<feComposite in2="hardAlpha" operator="out"/>
<feColorMatrix type="matrix" values="0 0 0 0 0.192157 0 0 0 0 0.380392 0 0 0 0 0.152941 0 0 0 1 0"/>
<feBlend mode="normal" in2="BackgroundImageFix" result="effect1_dropShadow_215_8"/>
<feBlend mode="normal" in="SourceGraphic" in2="effect1_dropShadow_215_8" result="shape"/>
</filter>
<filter id="filter3_d_215_8" x="287.09" y="134.817" width="131.322" height="131.322" filterUnits="userSpaceOnUse" color-interpolation-filters="sRGB">
<feFlood flood-opacity="0" result="BackgroundImageFix"/>
<feColorMatrix in="SourceAlpha" type="matrix" values="0 0 0 0 0 0 0 0 0 0 0 0 0 0 0 0 0 0 127 0" result="hardAlpha"/>
<feOffset dy="3.3246"/>
<feGaussianBlur stdDeviation="9.97381"/>
<feComposite in2="hardAlpha" operator="out"/>
<feColorMatrix type="matrix" values="0 0 0 0 0.192157 0 0 0 0 0.380392 0 0 0 0 0.152941 0 0 0 1 0"/>
<feBlend mode="normal" in2="BackgroundImageFix" result="effect1_dropShadow_215_8"/>
<feBlend mode="normal" in="SourceGraphic" in2="effect1_dropShadow_215_8" result="shape"/>
</filter>
<filter id="filter4_d_215_8" x="174.052" y="256.166" width="131.322" height="131.322" filterUnits="userSpaceOnUse" color-interpolation-filters="sRGB">
<feFlood flood-opacity="0" result="BackgroundImageFix"/>
<feColorMatrix in="SourceAlpha" type="matrix" values="0 0 0 0 0 0 0 0 0 0 0 0 0 0 0 0 0 0 127 0" result="hardAlpha"/>
<feOffset dy="3.3246"/>
<feGaussianBlur stdDeviation="9.97381"/>
<feComposite in2="hardAlpha" operator="out"/>
<feColorMatrix type="matrix" values="0 0 0 0 0.192157 0 0 0 0 0.380392 0 0 0 0 0.152941 0 0 0 1 0"/>
<feBlend mode="normal" in2="BackgroundImageFix" result="effect1_dropShadow_215_8"/>
<feBlend mode="normal" in="SourceGraphic" in2="effect1_dropShadow_215_8" result="shape"/>
</filter>
<filter id="filter5_d_215_8" x="460.052" y="367.377" width="89.7644" height="89.7644" filterUnits="userSpaceOnUse" color-interpolation-filters="sRGB">
<feFlood flood-opacity="0" result="BackgroundImageFix"/>
<feColorMatrix in="SourceAlpha" type="matrix" values="0 0 0 0 0 0 0 0 0 0 0 0 0 0 0 0 0 0 127 0" result="hardAlpha"/>
<feOffset dy="3.3246"/>
<feGaussianBlur stdDeviation="9.97381"/>
<feComposite in2="hardAlpha" operator="out"/>
<feColorMatrix type="matrix" values="0 0 0 0 0.192157 0 0 0 0 0.380392 0 0 0 0 0.152941 0 0 0 1 0"/>
<feBlend mode="normal" in2="BackgroundImageFix" result="effect1_dropShadow_215_8"/>
<feBlend mode="normal" in="SourceGraphic" in2="effect1_dropShadow_215_8" result="shape"/>
</filter>
<filter id="filter6_d_215_8" x="359" y="247.325" width="151.427" height="151.427" filterUnits="userSpaceOnUse" color-interpolation-filters="sRGB">
<feFlood flood-opacity="0" result="BackgroundImageFix"/>
<feColorMatrix in="SourceAlpha" type="matrix" values="0 0 0 0 0 0 0 0 0 0 0 0 0 0 0 0 0 0 127 0" result="hardAlpha"/>
<feOffset dy="3.3246"/>
<feGaussianBlur stdDeviation="15"/>
<feColorMatrix type="matrix" values="0 0 0 0 0.192157 0 0 0 0 0.380392 0 0 0 0 0.152941 0 0 0 1 0"/>
<feBlend mode="normal" in2="BackgroundImageFix" result="effect1_dropShadow_215_8"/>
<feBlend mode="normal" in="SourceGraphic" in2="effect1_dropShadow_215_8" result="shape"/>
</filter>
<filter id="filter7_d_215_8" x="509.759" y="264.399" width="109.869" height="109.869" filterUnits="userSpaceOnUse" color-interpolation-filters="sRGB">
<feFlood flood-opacity="0" result="BackgroundImageFix"/>
<feColorMatrix in="SourceAlpha" type="matrix" values="0 0 0 0 0 0 0 0 0 0 0 0 0 0 0 0 0 0 127 0" result="hardAlpha"/>
<feOffset dy="3.3246"/>
<feGaussianBlur stdDeviation="15"/>
<feColorMatrix type="matrix" values="0 0 0 0 0.192157 0 0 0 0 0.380392 0 0 0 0 0.152941 0 0 0 1 0"/>
<feBlend mode="normal" in2="BackgroundImageFix" result="effect1_dropShadow_215_8"/>
<feBlend mode="normal" in="SourceGraphic" in2="effect1_dropShadow_215_8" result="shape"/>
</filter>
<linearGradient id="paint0_linear_215_8" x1="577" y1="0" x2="577" y2="562" gradientUnits="userSpaceOnUse">
<stop stop-color="#316127"/>
<stop offset="1" stop-color="#6F9E31"/>
</linearGradient>
</defs>
</svg>
