<svg width="1154" height="562" viewBox="0 0 1154 562" fill="none" xmlns="http://www.w3.org/2000/svg">
<rect width="1154" height="562" fill="white"/>
<g filter="url(#filter0_d_235_333)">
<path d="M362.421 366.719C362.421 366.719 378.584 394.429 414.346 381.567C424.558 319.593 361.86 322.973 355.666 329.773L355.666 329.773C347.661 338.561 362.421 366.719 362.421 366.719Z" fill="#74A435"/>
<path d="M362.421 366.719L360.734 367.675L360.712 367.638L360.692 367.6L362.421 366.719ZM362.421 366.719C360.734 367.675 360.734 367.676 360.735 367.677L360.737 367.68L360.741 367.688L360.754 367.71C360.765 367.729 360.78 367.754 360.799 367.785C360.837 367.847 360.892 367.935 360.962 368.046C361.103 368.267 361.309 368.582 361.582 368.972C362.127 369.752 362.938 370.837 364.024 372.091C366.191 374.596 369.471 377.798 373.928 380.583C382.913 386.199 396.523 390.015 415.01 383.366L416.083 382.98L416.266 381.871C418.868 366.075 416.86 354.215 412.069 345.462C407.274 336.702 399.807 331.262 391.891 328.105C383.997 324.956 375.609 324.054 368.796 324.369C365.386 324.527 362.322 324.992 359.869 325.659C357.529 326.295 355.392 327.208 354.219 328.496L354.219 328.496C351.681 331.282 351.135 335.353 351.403 339.382C351.676 343.486 352.825 348.001 354.192 352.137C355.564 356.29 357.187 360.15 358.463 362.965C359.102 364.375 359.656 365.528 360.052 366.331C360.25 366.732 360.408 367.046 360.518 367.262C360.573 367.369 360.616 367.452 360.645 367.509L360.679 367.575L360.688 367.592L360.691 367.597L360.692 367.599C360.692 367.599 360.692 367.6 362.421 366.719Z" stroke="white" stroke-width="3.85988"/>
</g>
<path d="M363.896 337.708L413.8 380.594" stroke="white" stroke-width="1.54464" stroke-linecap="round"/>
<path d="M364.676 349.978V349.978C364.461 346.594 367.083 343.677 370.521 343.475V343.475" stroke="white" stroke-width="1.54464" stroke-linecap="round"/>
<path d="M370.522 343.48V343.48C370.307 340.095 372.928 337.179 376.367 336.977V336.977" stroke="white" stroke-width="1.54464" stroke-linecap="round"/>
<path d="M369.395 354.092V354.092C369.18 350.708 371.801 347.791 375.24 347.589V347.589" stroke="white" stroke-width="1.54464" stroke-linecap="round"/>
<path d="M375.24 347.591V347.591C375.025 344.206 377.647 341.29 381.086 341.088V341.088" stroke="white" stroke-width="1.54464" stroke-linecap="round"/>
<path d="M374.11 358.204V358.204C373.895 354.819 376.517 351.902 379.956 351.7V351.7" stroke="white" stroke-width="1.54464" stroke-linecap="round"/>
<path d="M379.956 351.701V351.701C379.741 348.316 382.363 345.4 385.802 345.198V345.198" stroke="white" stroke-width="1.54464" stroke-linecap="round"/>
<path d="M378.831 362.308V362.308C378.616 358.924 381.238 356.007 384.677 355.805V355.805" stroke="white" stroke-width="1.54464" stroke-linecap="round"/>
<path d="M384.677 355.805V355.805C384.462 352.421 387.084 349.504 390.522 349.302V349.302" stroke="white" stroke-width="1.54464" stroke-linecap="round"/>
<path d="M383.549 366.425V366.425C383.334 363.041 385.956 360.124 389.394 359.922V359.922" stroke="white" stroke-width="1.54464" stroke-linecap="round"/>
<path d="M389.395 359.923V359.923C389.18 356.538 391.801 353.621 395.24 353.419V353.419" stroke="white" stroke-width="1.54464" stroke-linecap="round"/>
<path d="M388.266 370.528V370.528C388.051 367.143 390.672 364.227 394.111 364.025V364.025" stroke="white" stroke-width="1.54464" stroke-linecap="round"/>
<path d="M394.111 364.025V364.025C393.896 360.64 396.518 357.723 399.957 357.521V357.521" stroke="white" stroke-width="1.54464" stroke-linecap="round"/>
<path d="M392.984 374.638V374.638C392.769 371.253 395.391 368.337 398.83 368.135V368.135" stroke="white" stroke-width="1.54464" stroke-linecap="round"/>
<path d="M398.829 368.135V368.135C398.614 364.75 401.236 361.834 404.675 361.632V361.632" stroke="white" stroke-width="1.54464" stroke-linecap="round"/>
<g filter="url(#filter1_d_235_333)">
<path d="M811.379 405.719C811.379 405.719 795.216 433.429 759.454 420.567C749.242 358.593 811.94 361.973 818.134 368.773L818.134 368.773C826.139 377.561 811.379 405.719 811.379 405.719Z" fill="#74A435"/>
<path d="M811.379 405.719L813.066 406.675L813.088 406.638L813.108 406.6L811.379 405.719ZM811.379 405.719C813.066 406.675 813.066 406.676 813.065 406.677L813.063 406.68L813.059 406.688L813.045 406.71C813.034 406.729 813.019 406.754 813 406.785C812.962 406.847 812.908 406.935 812.838 407.046C812.697 407.267 812.49 407.582 812.218 407.972C811.673 408.752 810.862 409.837 809.776 411.091C807.609 413.596 804.328 416.798 799.872 419.583C790.887 425.199 777.277 429.015 758.789 422.366L757.717 421.98L757.534 420.871C754.931 405.075 756.94 393.215 761.731 384.462C766.525 375.702 773.993 370.262 781.909 367.105C789.803 363.956 798.19 363.054 805.004 363.369C808.414 363.527 811.478 363.992 813.93 364.659C816.27 365.295 818.407 366.208 819.581 367.496L819.581 367.496C822.119 370.282 822.665 374.353 822.397 378.382C822.123 382.486 820.975 387.001 819.608 391.137C818.236 395.29 816.613 399.15 815.337 401.965C814.698 403.375 814.144 404.528 813.748 405.331C813.55 405.732 813.391 406.046 813.282 406.262C813.227 406.369 813.184 406.452 813.155 406.509L813.121 406.575L813.112 406.592L813.109 406.597L813.108 406.599C813.108 406.599 813.108 406.6 811.379 405.719Z" stroke="white" stroke-width="3.85988"/>
</g>
<path d="M809.903 376.708L760 419.594" stroke="white" stroke-width="1.54464" stroke-linecap="round"/>
<path d="M809.124 388.978V388.978C809.339 385.594 806.717 382.677 803.278 382.475V382.475" stroke="white" stroke-width="1.54464" stroke-linecap="round"/>
<path d="M803.278 382.48V382.48C803.493 379.095 800.872 376.179 797.433 375.977V375.977" stroke="white" stroke-width="1.54464" stroke-linecap="round"/>
<path d="M804.405 393.092V393.092C804.62 389.708 801.999 386.791 798.56 386.589V386.589" stroke="white" stroke-width="1.54464" stroke-linecap="round"/>
<path d="M798.559 386.591V386.591C798.774 383.206 796.153 380.29 792.714 380.088V380.088" stroke="white" stroke-width="1.54464" stroke-linecap="round"/>
<path d="M799.689 397.204V397.204C799.904 393.819 797.283 390.902 793.844 390.7V390.7" stroke="white" stroke-width="1.54464" stroke-linecap="round"/>
<path d="M793.844 390.701V390.701C794.059 387.316 791.437 384.4 787.998 384.198V384.198" stroke="white" stroke-width="1.54464" stroke-linecap="round"/>
<path d="M794.969 401.308V401.308C795.184 397.924 792.562 395.007 789.123 394.805V394.805" stroke="white" stroke-width="1.54464" stroke-linecap="round"/>
<path d="M789.123 394.805V394.805C789.338 391.421 786.716 388.504 783.277 388.302V388.302" stroke="white" stroke-width="1.54464" stroke-linecap="round"/>
<path d="M790.251 405.425V405.425C790.466 402.041 787.844 399.124 784.405 398.922V398.922" stroke="white" stroke-width="1.54464" stroke-linecap="round"/>
<path d="M784.405 398.923V398.923C784.62 395.538 781.999 392.621 778.56 392.419V392.419" stroke="white" stroke-width="1.54464" stroke-linecap="round"/>
<path d="M785.534 409.528V409.528C785.749 406.143 783.127 403.227 779.689 403.025V403.025" stroke="white" stroke-width="1.54464" stroke-linecap="round"/>
<path d="M779.688 403.025V403.025C779.903 399.64 777.282 396.723 773.843 396.521V396.521" stroke="white" stroke-width="1.54464" stroke-linecap="round"/>
<path d="M780.815 413.638V413.638C781.03 410.253 778.409 407.337 774.97 407.135V407.135" stroke="white" stroke-width="1.54464" stroke-linecap="round"/>
<path d="M774.971 407.135V407.135C775.186 403.75 772.564 400.834 769.125 400.632V400.632" stroke="white" stroke-width="1.54464" stroke-linecap="round"/>
<path fill-rule="evenodd" clip-rule="evenodd" d="M393.181 217C387.006 217 382 222.006 382 228.181C382 234.357 387.006 239.363 393.181 239.363H440.937L489.405 383.112C491.603 389.632 497.716 394.022 504.597 394.022H650.277C656.452 394.022 661.459 389.016 661.459 382.841C661.459 376.665 656.452 371.659 650.277 371.659H509.143L500.721 346.682L648.572 330.76C657.748 329.772 664.705 322.026 664.705 312.796V247.583C664.705 237.604 656.616 229.515 646.637 229.515H468.368C465.979 229.515 463.737 230.149 461.803 231.258L460.674 227.91C458.476 221.39 452.363 217 445.483 217H393.181ZM470.128 255.948L492.073 321.032C492.188 321.016 492.303 321.002 492.42 320.99L638.271 305.283V255.948H470.128ZM545.985 458.797C559.38 458.797 570.239 447.938 570.239 434.542C570.239 421.147 559.38 410.288 545.985 410.288C532.589 410.288 521.73 421.147 521.73 434.542C521.73 447.938 532.589 458.797 545.985 458.797ZM630.881 434.542C630.881 447.938 620.022 458.797 606.627 458.797C593.231 458.797 582.372 447.938 582.372 434.542C582.372 421.147 593.231 410.288 606.627 410.288C620.022 410.288 630.881 421.147 630.881 434.542Z" fill="#74A435"/>
<circle cx="664.579" cy="334.231" r="56.9229" fill="#316127"/>
<path d="M647.503 317.154L681.182 350.834" stroke="white" stroke-width="16.2637"/>
<path d="M681.182 317.154L647.502 350.834" stroke="white" stroke-width="16.2637"/>
<path d="M384.376 121.224C384.376 123.08 383.736 124.627 382.456 125.864C381.197 127.08 379.267 127.688 376.664 127.688H372.376V137H369.464V114.696H376.664C379.181 114.696 381.091 115.304 382.392 116.52C383.715 117.736 384.376 119.304 384.376 121.224ZM376.664 125.288C378.285 125.288 379.48 124.936 380.248 124.232C381.016 123.528 381.4 122.525 381.4 121.224C381.4 118.472 379.821 117.096 376.664 117.096H372.376V125.288H376.664ZM395.643 137.288C394.001 137.288 392.507 136.915 391.163 136.168C389.841 135.421 388.795 134.365 388.027 133C387.281 131.613 386.907 130.013 386.907 128.2C386.907 126.408 387.291 124.829 388.059 123.464C388.849 122.077 389.915 121.021 391.259 120.296C392.603 119.549 394.107 119.176 395.771 119.176C397.435 119.176 398.939 119.549 400.283 120.296C401.627 121.021 402.683 122.067 403.451 123.432C404.241 124.797 404.635 126.387 404.635 128.2C404.635 130.013 404.23 131.613 403.419 133C402.63 134.365 401.553 135.421 400.187 136.168C398.822 136.915 397.307 137.288 395.643 137.288ZM395.643 134.728C396.689 134.728 397.67 134.483 398.587 133.992C399.505 133.501 400.241 132.765 400.795 131.784C401.371 130.803 401.659 129.608 401.659 128.2C401.659 126.792 401.382 125.597 400.827 124.616C400.273 123.635 399.547 122.909 398.651 122.44C397.755 121.949 396.785 121.704 395.739 121.704C394.673 121.704 393.691 121.949 392.795 122.44C391.921 122.909 391.217 123.635 390.683 124.616C390.15 125.597 389.883 126.792 389.883 128.2C389.883 129.629 390.139 130.835 390.651 131.816C391.185 132.797 391.889 133.533 392.763 134.024C393.638 134.493 394.598 134.728 395.643 134.728ZM417.616 137L413.456 130.472L409.456 137H406.416L412.08 128.296L406.416 119.464H409.712L413.872 125.96L417.84 119.464H420.88L415.248 128.136L420.912 137H417.616ZM422.689 128.168C422.689 126.376 423.051 124.808 423.777 123.464C424.502 122.099 425.494 121.043 426.753 120.296C428.033 119.549 429.451 119.176 431.009 119.176C432.545 119.176 433.878 119.507 435.009 120.168C436.139 120.829 436.982 121.661 437.537 122.664V119.464H440.481V137H437.537V133.736C436.961 134.76 436.097 135.613 434.945 136.296C433.814 136.957 432.491 137.288 430.977 137.288C429.419 137.288 428.011 136.904 426.753 136.136C425.494 135.368 424.502 134.291 423.777 132.904C423.051 131.517 422.689 129.939 422.689 128.168ZM437.537 128.2C437.537 126.877 437.27 125.725 436.737 124.744C436.203 123.763 435.478 123.016 434.561 122.504C433.665 121.971 432.673 121.704 431.585 121.704C430.497 121.704 429.505 121.96 428.609 122.472C427.713 122.984 426.998 123.731 426.465 124.712C425.931 125.693 425.665 126.845 425.665 128.168C425.665 129.512 425.931 130.685 426.465 131.688C426.998 132.669 427.713 133.427 428.609 133.96C429.505 134.472 430.497 134.728 431.585 134.728C432.673 134.728 433.665 134.472 434.561 133.96C435.478 133.427 436.203 132.669 436.737 131.688C437.27 130.685 437.537 129.523 437.537 128.2ZM449.178 114.696L448.826 130.696H446.394L446.042 114.696H449.178ZM447.738 137.192C447.183 137.192 446.714 137 446.33 136.616C445.946 136.232 445.754 135.763 445.754 135.208C445.754 134.653 445.946 134.184 446.33 133.8C446.714 133.416 447.183 133.224 447.738 133.224C448.271 133.224 448.719 133.416 449.082 133.8C449.466 134.184 449.658 134.653 449.658 135.208C449.658 135.763 449.466 136.232 449.082 136.616C448.719 137 448.271 137.192 447.738 137.192ZM470.536 137.224C469.064 137.224 467.741 136.968 466.568 136.456C465.416 135.923 464.509 135.197 463.848 134.28C463.187 133.341 462.845 132.264 462.824 131.048H465.928C466.035 132.093 466.461 132.979 467.208 133.704C467.976 134.408 469.085 134.76 470.536 134.76C471.923 134.76 473.011 134.419 473.8 133.736C474.611 133.032 475.016 132.136 475.016 131.048C475.016 130.195 474.781 129.501 474.312 128.968C473.843 128.435 473.256 128.029 472.552 127.752C471.848 127.475 470.899 127.176 469.704 126.856C468.232 126.472 467.048 126.088 466.152 125.704C465.277 125.32 464.52 124.723 463.88 123.912C463.261 123.08 462.952 121.971 462.952 120.584C462.952 119.368 463.261 118.291 463.88 117.352C464.499 116.413 465.363 115.688 466.472 115.176C467.603 114.664 468.893 114.408 470.344 114.408C472.435 114.408 474.141 114.931 475.464 115.976C476.808 117.021 477.565 118.408 477.736 120.136H474.536C474.429 119.283 473.981 118.536 473.192 117.896C472.403 117.235 471.357 116.904 470.056 116.904C468.84 116.904 467.848 117.224 467.08 117.864C466.312 118.483 465.928 119.357 465.928 120.488C465.928 121.299 466.152 121.96 466.6 122.472C467.069 122.984 467.635 123.379 468.296 123.656C468.979 123.912 469.928 124.211 471.144 124.552C472.616 124.957 473.8 125.363 474.696 125.768C475.592 126.152 476.36 126.76 477 127.592C477.64 128.403 477.96 129.512 477.96 130.92C477.96 132.008 477.672 133.032 477.096 133.992C476.52 134.952 475.667 135.731 474.536 136.328C473.405 136.925 472.072 137.224 470.536 137.224ZM498.245 127.56C498.245 128.115 498.213 128.701 498.149 129.32H484.133C484.24 131.048 484.827 132.403 485.893 133.384C486.981 134.344 488.293 134.824 489.829 134.824C491.088 134.824 492.133 134.536 492.965 133.96C493.819 133.363 494.416 132.573 494.757 131.592H497.893C497.424 133.277 496.485 134.653 495.077 135.72C493.669 136.765 491.92 137.288 489.829 137.288C488.165 137.288 486.672 136.915 485.349 136.168C484.048 135.421 483.024 134.365 482.277 133C481.531 131.613 481.157 130.013 481.157 128.2C481.157 126.387 481.52 124.797 482.245 123.432C482.971 122.067 483.984 121.021 485.285 120.296C486.608 119.549 488.123 119.176 489.829 119.176C491.493 119.176 492.965 119.539 494.245 120.264C495.525 120.989 496.507 121.992 497.189 123.272C497.893 124.531 498.245 125.96 498.245 127.56ZM495.237 126.952C495.237 125.843 494.992 124.893 494.501 124.104C494.011 123.293 493.339 122.685 492.485 122.28C491.653 121.853 490.725 121.64 489.701 121.64C488.229 121.64 486.971 122.109 485.925 123.048C484.901 123.987 484.315 125.288 484.165 126.952H495.237ZM517.641 119.464V137H514.729V134.408C514.174 135.304 513.396 136.008 512.393 136.52C511.412 137.011 510.324 137.256 509.129 137.256C507.764 137.256 506.537 136.979 505.449 136.424C504.361 135.848 503.497 134.995 502.857 133.864C502.238 132.733 501.929 131.357 501.929 129.736V119.464H504.809V129.352C504.809 131.08 505.246 132.413 506.121 133.352C506.996 134.269 508.19 134.728 509.705 134.728C511.262 134.728 512.489 134.248 513.385 133.288C514.281 132.328 514.729 130.931 514.729 129.096V119.464H517.641ZM530.001 128.2C530.001 126.387 530.364 124.808 531.089 123.464C531.814 122.099 532.817 121.043 534.097 120.296C535.398 119.549 536.881 119.176 538.545 119.176C540.7 119.176 542.47 119.699 543.857 120.744C545.265 121.789 546.193 123.24 546.641 125.096H543.505C543.206 124.029 542.62 123.187 541.745 122.568C540.892 121.949 539.825 121.64 538.545 121.64C536.881 121.64 535.537 122.216 534.513 123.368C533.489 124.499 532.977 126.109 532.977 128.2C532.977 130.312 533.489 131.944 534.513 133.096C535.537 134.248 536.881 134.824 538.545 134.824C539.825 134.824 540.892 134.525 541.745 133.928C542.598 133.331 543.185 132.477 543.505 131.368H546.641C546.172 133.16 545.233 134.6 543.825 135.688C542.417 136.755 540.657 137.288 538.545 137.288C536.881 137.288 535.398 136.915 534.097 136.168C532.817 135.421 531.814 134.365 531.089 133C530.364 131.635 530.001 130.035 530.001 128.2ZM549.439 128.168C549.439 126.376 549.801 124.808 550.527 123.464C551.252 122.099 552.244 121.043 553.503 120.296C554.783 119.549 556.201 119.176 557.759 119.176C559.295 119.176 560.628 119.507 561.759 120.168C562.889 120.829 563.732 121.661 564.287 122.664V119.464H567.231V137H564.287V133.736C563.711 134.76 562.847 135.613 561.695 136.296C560.564 136.957 559.241 137.288 557.727 137.288C556.169 137.288 554.761 136.904 553.503 136.136C552.244 135.368 551.252 134.291 550.527 132.904C549.801 131.517 549.439 129.939 549.439 128.168ZM564.287 128.2C564.287 126.877 564.02 125.725 563.487 124.744C562.953 123.763 562.228 123.016 561.311 122.504C560.415 121.971 559.423 121.704 558.335 121.704C557.247 121.704 556.255 121.96 555.359 122.472C554.463 122.984 553.748 123.731 553.215 124.712C552.681 125.693 552.415 126.845 552.415 128.168C552.415 129.512 552.681 130.685 553.215 131.688C553.748 132.669 554.463 133.427 555.359 133.96C556.255 134.472 557.247 134.728 558.335 134.728C559.423 134.728 560.415 134.472 561.311 133.96C562.228 133.427 562.953 132.669 563.487 131.688C564.02 130.685 564.287 129.523 564.287 128.2ZM575.064 122.312C575.576 121.309 576.301 120.531 577.24 119.976C578.2 119.421 579.362 119.144 580.728 119.144V122.152H579.96C576.696 122.152 575.064 123.923 575.064 127.464V137H572.152V119.464H575.064V122.312ZM587.001 122.312C587.513 121.309 588.238 120.531 589.177 119.976C590.137 119.421 591.3 119.144 592.665 119.144V122.152H591.897C588.633 122.152 587.001 123.923 587.001 127.464V137H584.089V119.464H587.001V122.312ZM597.531 116.616C596.976 116.616 596.507 116.424 596.123 116.04C595.739 115.656 595.547 115.187 595.547 114.632C595.547 114.077 595.739 113.608 596.123 113.224C596.507 112.84 596.976 112.648 597.531 112.648C598.064 112.648 598.512 112.84 598.875 113.224C599.259 113.608 599.451 114.077 599.451 114.632C599.451 115.187 599.259 115.656 598.875 116.04C598.512 116.424 598.064 116.616 597.531 116.616ZM598.939 119.464V137H596.027V119.464H598.939ZM612.446 119.144C614.579 119.144 616.307 119.795 617.63 121.096C618.952 122.376 619.614 124.232 619.614 126.664V137H616.734V127.08C616.734 125.331 616.296 123.997 615.422 123.08C614.547 122.141 613.352 121.672 611.838 121.672C610.302 121.672 609.075 122.152 608.158 123.112C607.262 124.072 606.814 125.469 606.814 127.304V137H603.902V119.464H606.814V121.96C607.39 121.064 608.168 120.371 609.15 119.88C610.152 119.389 611.251 119.144 612.446 119.144ZM633.074 119.144C634.397 119.144 635.592 119.432 636.658 120.008C637.725 120.563 638.557 121.405 639.154 122.536C639.773 123.667 640.082 125.043 640.082 126.664V137H637.202V127.08C637.202 125.331 636.765 123.997 635.89 123.08C635.016 122.141 633.821 121.672 632.306 121.672C630.77 121.672 629.544 122.152 628.626 123.112C627.73 124.072 627.282 125.469 627.282 127.304V137H624.37V113.32H627.282V121.96C627.858 121.064 628.648 120.371 629.65 119.88C630.674 119.389 631.816 119.144 633.074 119.144ZM652.487 137.288C650.844 137.288 649.351 136.915 648.007 136.168C646.684 135.421 645.639 134.365 644.871 133C644.124 131.613 643.751 130.013 643.751 128.2C643.751 126.408 644.135 124.829 644.903 123.464C645.692 122.077 646.759 121.021 648.103 120.296C649.447 119.549 650.951 119.176 652.615 119.176C654.279 119.176 655.783 119.549 657.127 120.296C658.471 121.021 659.527 122.067 660.295 123.432C661.084 124.797 661.479 126.387 661.479 128.2C661.479 130.013 661.074 131.613 660.263 133C659.474 134.365 658.396 135.421 657.031 136.168C655.666 136.915 654.151 137.288 652.487 137.288ZM652.487 134.728C653.532 134.728 654.514 134.483 655.431 133.992C656.348 133.501 657.084 132.765 657.639 131.784C658.215 130.803 658.503 129.608 658.503 128.2C658.503 126.792 658.226 125.597 657.671 124.616C657.116 123.635 656.391 122.909 655.495 122.44C654.599 121.949 653.628 121.704 652.583 121.704C651.516 121.704 650.535 121.949 649.639 122.44C648.764 122.909 648.06 123.635 647.527 124.616C646.994 125.597 646.727 126.792 646.727 128.2C646.727 129.629 646.983 130.835 647.495 131.816C648.028 132.797 648.732 133.533 649.607 134.024C650.482 134.493 651.442 134.728 652.487 134.728ZM689.839 127.56C689.839 128.115 689.807 128.701 689.743 129.32H675.727C675.834 131.048 676.42 132.403 677.487 133.384C678.575 134.344 679.887 134.824 681.423 134.824C682.682 134.824 683.727 134.536 684.559 133.96C685.412 133.363 686.01 132.573 686.351 131.592H689.487C689.018 133.277 688.079 134.653 686.671 135.72C685.263 136.765 683.514 137.288 681.423 137.288C679.759 137.288 678.266 136.915 676.943 136.168C675.642 135.421 674.618 134.365 673.871 133C673.124 131.613 672.751 130.013 672.751 128.2C672.751 126.387 673.114 124.797 673.839 123.432C674.564 122.067 675.578 121.021 676.879 120.296C678.202 119.549 679.716 119.176 681.423 119.176C683.087 119.176 684.559 119.539 685.839 120.264C687.119 120.989 688.1 121.992 688.783 123.272C689.487 124.531 689.839 125.96 689.839 127.56ZM686.831 126.952C686.831 125.843 686.586 124.893 686.095 124.104C685.604 123.293 684.932 122.685 684.079 122.28C683.247 121.853 682.319 121.64 681.295 121.64C679.823 121.64 678.564 122.109 677.519 123.048C676.495 123.987 675.908 125.288 675.759 126.952H686.831ZM699.891 137.288C698.547 137.288 697.341 137.064 696.275 136.616C695.208 136.147 694.365 135.507 693.747 134.696C693.128 133.864 692.787 132.915 692.723 131.848H695.731C695.816 132.723 696.221 133.437 696.947 133.992C697.693 134.547 698.664 134.824 699.859 134.824C700.968 134.824 701.843 134.579 702.483 134.088C703.123 133.597 703.443 132.979 703.443 132.232C703.443 131.464 703.101 130.899 702.419 130.536C701.736 130.152 700.68 129.779 699.251 129.416C697.949 129.075 696.883 128.733 696.051 128.392C695.24 128.029 694.536 127.507 693.939 126.824C693.363 126.12 693.075 125.203 693.075 124.072C693.075 123.176 693.341 122.355 693.875 121.608C694.408 120.861 695.165 120.275 696.147 119.848C697.128 119.4 698.248 119.176 699.507 119.176C701.448 119.176 703.016 119.667 704.211 120.648C705.405 121.629 706.045 122.973 706.131 124.68H703.219C703.155 123.763 702.781 123.027 702.099 122.472C701.437 121.917 700.541 121.64 699.411 121.64C698.365 121.64 697.533 121.864 696.915 122.312C696.296 122.76 695.987 123.347 695.987 124.072C695.987 124.648 696.168 125.128 696.531 125.512C696.915 125.875 697.384 126.173 697.939 126.408C698.515 126.621 699.304 126.867 700.307 127.144C701.565 127.485 702.589 127.827 703.379 128.168C704.168 128.488 704.84 128.979 705.395 129.64C705.971 130.301 706.269 131.165 706.291 132.232C706.291 133.192 706.024 134.056 705.491 134.824C704.957 135.592 704.2 136.2 703.219 136.648C702.259 137.075 701.149 137.288 699.891 137.288ZM713.954 121.864V132.2C713.954 133.053 714.135 133.661 714.498 134.024C714.86 134.365 715.49 134.536 716.385 134.536H718.53V137H715.906C714.284 137 713.068 136.627 712.258 135.88C711.447 135.133 711.042 133.907 711.042 132.2V121.864H708.77V119.464H711.042V115.048H713.954V119.464H718.53V121.864H713.954ZM720.97 128.168C720.97 126.376 721.332 124.808 722.058 123.464C722.783 122.099 723.775 121.043 725.034 120.296C726.314 119.549 727.732 119.176 729.29 119.176C730.826 119.176 732.159 119.507 733.29 120.168C734.42 120.829 735.263 121.661 735.818 122.664V119.464H738.762V137H735.818V133.736C735.242 134.76 734.378 135.613 733.226 136.296C732.095 136.957 730.772 137.288 729.258 137.288C727.7 137.288 726.292 136.904 725.034 136.136C723.775 135.368 722.783 134.291 722.058 132.904C721.332 131.517 720.97 129.939 720.97 128.168ZM735.818 128.2C735.818 126.877 735.551 125.725 735.018 124.744C734.484 123.763 733.759 123.016 732.842 122.504C731.946 121.971 730.954 121.704 729.866 121.704C728.778 121.704 727.786 121.96 726.89 122.472C725.994 122.984 725.279 123.731 724.746 124.712C724.212 125.693 723.946 126.845 723.946 128.168C723.946 129.512 724.212 130.685 724.746 131.688C725.279 132.669 725.994 133.427 726.89 133.96C727.786 134.472 728.778 134.728 729.866 134.728C730.954 134.728 731.946 134.472 732.842 133.96C733.759 133.427 734.484 132.669 735.018 131.688C735.551 130.685 735.818 129.523 735.818 128.2ZM733.546 114.504L726.73 118.152V115.976L733.546 111.976V114.504ZM759.766 131.88L763.638 119.144H769.462L763.126 137H756.374L750.038 119.144H755.894L759.766 131.88ZM770.677 128.04C770.677 126.205 771.019 124.595 771.701 123.208C772.405 121.821 773.355 120.755 774.549 120.008C775.744 119.261 777.077 118.888 778.549 118.888C779.808 118.888 780.907 119.144 781.845 119.656C782.805 120.168 783.541 120.84 784.053 121.672V119.144H789.525V137H784.053V134.472C783.52 135.304 782.773 135.976 781.813 136.488C780.875 137 779.776 137.256 778.517 137.256C777.067 137.256 775.744 136.883 774.549 136.136C773.355 135.368 772.405 134.291 771.701 132.904C771.019 131.496 770.677 129.875 770.677 128.04ZM784.053 128.072C784.053 126.707 783.669 125.629 782.901 124.84C782.155 124.051 781.237 123.656 780.149 123.656C779.061 123.656 778.133 124.051 777.365 124.84C776.619 125.608 776.245 126.675 776.245 128.04C776.245 129.405 776.619 130.493 777.365 131.304C778.133 132.093 779.061 132.488 780.149 132.488C781.237 132.488 782.155 132.093 782.901 131.304C783.669 130.515 784.053 129.437 784.053 128.072ZM798.604 132.488H806.348V137H792.492V132.648L799.916 123.656H792.556V119.144H806.188V123.496L798.604 132.488ZM812.111 117.288C811.151 117.288 810.362 117.011 809.743 116.456C809.146 115.88 808.847 115.176 808.847 114.344C808.847 113.491 809.146 112.787 809.743 112.232C810.362 111.656 811.151 111.368 812.111 111.368C813.05 111.368 813.818 111.656 814.415 112.232C815.034 112.787 815.343 113.491 815.343 114.344C815.343 115.176 815.034 115.88 814.415 116.456C813.818 117.011 813.05 117.288 812.111 117.288ZM814.831 119.144V137H809.359V119.144H814.831ZM826.925 137.256C825.175 137.256 823.597 136.883 822.189 136.136C820.802 135.389 819.703 134.323 818.893 132.936C818.103 131.549 817.709 129.928 817.709 128.072C817.709 126.237 818.114 124.627 818.924 123.24C819.735 121.832 820.845 120.755 822.253 120.008C823.661 119.261 825.239 118.888 826.989 118.888C828.738 118.888 830.317 119.261 831.725 120.008C833.133 120.755 834.242 121.832 835.053 123.24C835.863 124.627 836.269 126.237 836.269 128.072C836.269 129.907 835.853 131.528 835.021 132.936C834.21 134.323 833.09 135.389 831.661 136.136C830.253 136.883 828.674 137.256 826.925 137.256ZM826.925 132.52C827.97 132.52 828.855 132.136 829.581 131.368C830.327 130.6 830.701 129.501 830.701 128.072C830.701 126.643 830.338 125.544 829.613 124.776C828.909 124.008 828.034 123.624 826.989 123.624C825.922 123.624 825.037 124.008 824.333 124.776C823.629 125.523 823.277 126.621 823.277 128.072C823.277 129.501 823.618 130.6 824.301 131.368C825.005 132.136 825.879 132.52 826.925 132.52ZM846.372 113.736L845.732 129.064H841.092L840.452 113.736H846.372ZM843.492 137.256C842.532 137.256 841.742 136.979 841.124 136.424C840.526 135.848 840.228 135.144 840.228 134.312C840.228 133.459 840.526 132.744 841.124 132.168C841.742 131.592 842.532 131.304 843.492 131.304C844.43 131.304 845.198 131.592 845.796 132.168C846.414 132.744 846.724 133.459 846.724 134.312C846.724 135.144 846.414 135.848 845.796 136.424C845.198 136.979 844.43 137.256 843.492 137.256Z" fill="#316127"/>
<circle cx="325" cy="126" r="21" fill="#316127"/>
<circle cx="2.69231" cy="2.69231" r="2.69231" transform="matrix(1 0 0 -1 314 123.885)" fill="white"/>
<circle cx="2.69231" cy="2.69231" r="2.69231" transform="matrix(1 0 0 -1 330.385 123.885)" fill="white"/>
<path d="M318.5 137.5V137.5C322.43 134.298 328.07 134.298 332 137.5V137.5" stroke="white" stroke-width="3" stroke-linecap="round"/>
<defs>
<filter id="filter0_d_235_333" x="344.225" y="322.395" width="80.3043" height="76.7515" filterUnits="userSpaceOnUse" color-interpolation-filters="sRGB">
<feFlood flood-opacity="0" result="BackgroundImageFix"/>
<feColorMatrix in="SourceAlpha" type="matrix" values="0 0 0 0 0 0 0 0 0 0 0 0 0 0 0 0 0 0 127 0" result="hardAlpha"/>
<feOffset dy="5.17166"/>
<feGaussianBlur stdDeviation="2.58583"/>
<feComposite in2="hardAlpha" operator="out"/>
<feColorMatrix type="matrix" values="0 0 0 0 1 0 0 0 0 1 0 0 0 0 1 0 0 0 0.09 0"/>
<feBlend mode="normal" in2="BackgroundImageFix" result="effect1_dropShadow_235_333"/>
<feBlend mode="normal" in="SourceGraphic" in2="effect1_dropShadow_235_333" result="shape"/>
</filter>
<filter id="filter1_d_235_333" x="749.271" y="361.395" width="80.3043" height="76.7515" filterUnits="userSpaceOnUse" color-interpolation-filters="sRGB">
<feFlood flood-opacity="0" result="BackgroundImageFix"/>
<feColorMatrix in="SourceAlpha" type="matrix" values="0 0 0 0 0 0 0 0 0 0 0 0 0 0 0 0 0 0 127 0" result="hardAlpha"/>
<feOffset dy="5.17166"/>
<feGaussianBlur stdDeviation="2.58583"/>
<feComposite in2="hardAlpha" operator="out"/>
<feColorMatrix type="matrix" values="0 0 0 0 1 0 0 0 0 1 0 0 0 0 1 0 0 0 0.09 0"/>
<feBlend mode="normal" in2="BackgroundImageFix" result="effect1_dropShadow_235_333"/>
<feBlend mode="normal" in="SourceGraphic" in2="effect1_dropShadow_235_333" result="shape"/>
</filter>
</defs>
</svg>
