<svg width="1154" height="562" viewBox="0 0 1154 562" fill="none" xmlns="http://www.w3.org/2000/svg">
<rect width="1154" height="562" fill="url(#paint0_linear_216_842)"/>
<circle cx="703.149" cy="187.439" r="45.7133" fill="#74A435"/>
<path fill-rule="evenodd" clip-rule="evenodd" d="M673.023 168.948C671.646 168.948 670.529 170.065 670.529 171.442C670.529 172.819 671.646 173.935 673.023 173.935H681.756L690.812 200.793C691.28 202.18 692.579 203.113 694.042 203.113H721.526C722.903 203.113 724.019 201.997 724.019 200.619C724.019 199.242 722.903 198.126 721.526 198.126H695.176L693.702 193.756L721.204 190.794C722.936 190.608 724.248 189.147 724.248 187.405V175.102C724.248 173.22 722.722 171.694 720.84 171.694H687.208C686.894 171.694 686.595 171.751 686.318 171.857L686.12 171.268C685.652 169.882 684.353 168.948 682.89 168.948H673.023ZM687.945 176.681L692.07 188.916L719.261 185.988V176.681H687.945ZM701.85 214.949C704.378 214.949 706.426 212.901 706.426 210.373C706.426 207.846 704.378 205.798 701.85 205.798C699.323 205.798 697.275 207.846 697.275 210.373C697.275 212.901 699.323 214.949 701.85 214.949ZM717.866 210.373C717.866 212.901 715.817 214.949 713.29 214.949C710.763 214.949 708.714 212.901 708.714 210.373C708.714 207.846 710.763 205.798 713.29 205.798C715.817 205.798 717.866 207.846 717.866 210.373Z" fill="white"/>
<g filter="url(#filter0_d_216_842)">
<circle cx="424.713" cy="290.502" r="45.7133" fill="#74A435"/>
</g>
<circle cx="403.935" cy="290.502" r="8.31151" fill="white"/>
<circle cx="424.713" cy="290.502" r="8.31151" fill="white"/>
<circle cx="445.492" cy="290.502" r="8.31151" fill="white"/>
<path fill-rule="evenodd" clip-rule="evenodd" d="M610.061 332.992C640.155 332.992 664.552 308.595 664.552 278.501C664.552 248.406 640.155 224.01 610.061 224.01C579.966 224.01 555.569 248.406 555.569 278.501C555.569 308.595 579.966 332.992 610.061 332.992ZM610.06 460.138H716.448C716.448 401.382 668.816 353.751 610.06 353.751C551.304 353.751 503.673 401.382 503.673 460.138H610.06Z" fill="white"/>
<g filter="url(#filter1_d_216_842)">
<circle cx="537.751" cy="169.153" r="45.7133" fill="#74A435"/>
</g>
<path fill-rule="evenodd" clip-rule="evenodd" d="M541.244 180.085C538.656 181.41 535.723 182.157 532.615 182.157C522.139 182.157 513.646 173.664 513.646 163.188C513.646 152.712 522.139 144.219 532.615 144.219C543.091 144.219 551.584 152.712 551.584 163.188C551.584 167.163 550.361 170.853 548.271 173.901L560.462 186.091C562.286 187.915 562.286 190.873 560.462 192.697C558.637 194.521 555.68 194.521 553.856 192.697L541.244 180.085ZM545.697 163.188C545.697 170.413 539.84 176.27 532.615 176.27C525.391 176.27 519.534 170.413 519.534 163.188C519.534 155.963 525.391 150.106 532.615 150.106C539.84 150.106 545.697 155.963 545.697 163.188Z" fill="white"/>
<g filter="url(#filter2_d_216_842)">
<circle cx="441.338" cy="169.154" r="24.9345" fill="#74A435"/>
</g>
<path d="M431.92 157.636L431.92 157.636C432.688 156.999 433.903 156.815 435.416 156.986C436.911 157.155 438.592 157.66 440.184 158.27C441.772 158.877 443.249 159.58 444.331 160.132C444.872 160.408 445.312 160.646 445.617 160.814C445.77 160.898 445.888 160.965 445.968 161.01C446.008 161.033 446.039 161.051 446.059 161.062L446.078 161.073L446.094 161.084C446.111 161.096 446.139 161.115 446.175 161.14C446.248 161.191 446.356 161.269 446.492 161.374C446.765 161.585 447.153 161.903 447.601 162.329C448.499 163.182 449.637 164.461 450.596 166.168C452.481 169.52 453.704 174.557 450.988 181.335C444.942 182.001 440.596 180.992 437.51 179.112C434.379 177.205 432.495 174.37 431.45 171.351C430.404 168.328 430.205 165.132 430.445 162.548C430.565 161.257 430.793 160.13 431.073 159.264C431.361 158.371 431.677 157.837 431.92 157.636Z" fill="#74A435" stroke="white" stroke-width="0.952631"/>
<path d="M434.017 160.742L450.59 181.21C450.692 181.336 450.895 181.257 450.888 181.093V181.093" stroke="white" stroke-width="0.793859" stroke-linecap="round"/>
<path d="M438.928 161.283V161.283C437.574 161.133 436.355 162.131 436.21 163.508V163.508" stroke="white" stroke-width="0.793859" stroke-linecap="round"/>
<path d="M436.21 163.508V163.508C434.855 163.358 433.636 164.356 433.491 165.733V165.733" stroke="white" stroke-width="0.793859" stroke-linecap="round"/>
<path d="M440.489 163.254V163.254C439.135 163.105 437.915 164.103 437.77 165.479V165.479" stroke="white" stroke-width="0.793859" stroke-linecap="round"/>
<path d="M437.769 165.479V165.479C436.415 165.33 435.195 166.328 435.05 167.704V167.704" stroke="white" stroke-width="0.793859" stroke-linecap="round"/>
<path d="M442.053 165.222V165.222C440.698 165.073 439.479 166.071 439.334 167.447V167.447" stroke="white" stroke-width="0.793859" stroke-linecap="round"/>
<path d="M439.333 167.447V167.447C437.978 167.298 436.759 168.296 436.614 169.672V169.672" stroke="white" stroke-width="0.793859" stroke-linecap="round"/>
<path d="M443.613 167.193V167.193C442.259 167.044 441.039 168.041 440.894 169.418V169.418" stroke="white" stroke-width="0.793859" stroke-linecap="round"/>
<path d="M440.895 169.418V169.418C439.541 169.269 438.321 170.267 438.176 171.643V171.643" stroke="white" stroke-width="0.793859" stroke-linecap="round"/>
<path d="M445.176 169.164V169.164C443.821 169.015 442.602 170.013 442.457 171.389V171.389" stroke="white" stroke-width="0.793859" stroke-linecap="round"/>
<path d="M442.456 171.389V171.389C441.101 171.24 439.882 172.238 439.737 173.614V173.614" stroke="white" stroke-width="0.793859" stroke-linecap="round"/>
<path d="M446.738 171.132V171.132C445.384 170.983 444.164 171.981 444.019 173.357V173.357" stroke="white" stroke-width="0.793859" stroke-linecap="round"/>
<path d="M444.019 173.357V173.357C442.665 173.208 441.445 174.206 441.3 175.583V175.583" stroke="white" stroke-width="0.793859" stroke-linecap="round"/>
<path d="M448.298 173.103V173.103C446.943 172.954 445.724 173.952 445.579 175.328V175.328" stroke="white" stroke-width="0.793859" stroke-linecap="round"/>
<path d="M445.579 175.328V175.328C444.224 175.179 443.005 176.177 442.86 177.553V177.553" stroke="white" stroke-width="0.793859" stroke-linecap="round"/>
<g filter="url(#filter3_d_216_842)">
<circle cx="749.693" cy="288.009" r="24.9345" fill="#74A435"/>
</g>
<path d="M740.202 276.357L740.202 276.357C740.969 275.72 742.185 275.536 743.698 275.707C745.192 275.877 746.873 276.381 748.465 276.991C750.053 277.598 751.531 278.301 752.613 278.854C753.153 279.129 753.594 279.367 753.899 279.535C754.051 279.619 754.169 279.686 754.249 279.732C754.289 279.754 754.32 279.772 754.34 279.783L754.359 279.794L754.375 279.805C754.393 279.817 754.42 279.836 754.456 279.861C754.529 279.912 754.637 279.991 754.774 280.096C755.047 280.306 755.434 280.624 755.882 281.05C756.78 281.903 757.918 283.183 758.878 284.889C760.763 288.241 761.985 293.278 759.269 300.056C753.223 300.722 748.878 299.713 745.792 297.834C742.66 295.926 740.776 293.091 739.731 290.073C738.685 287.049 738.487 283.853 738.727 281.269C738.846 279.978 739.075 278.852 739.354 277.985C739.642 277.092 739.959 276.558 740.202 276.357Z" fill="#74A435" stroke="white" stroke-width="0.952631"/>
<path d="M742.296 279.463L758.869 299.931C758.971 300.057 759.174 299.978 759.168 299.814V299.814" stroke="white" stroke-width="0.793859" stroke-linecap="round"/>
<path d="M747.209 280.004V280.004C745.854 279.855 744.635 280.853 744.49 282.229V282.229" stroke="white" stroke-width="0.793859" stroke-linecap="round"/>
<path d="M744.49 282.229V282.229C743.136 282.08 741.916 283.078 741.771 284.454V284.454" stroke="white" stroke-width="0.793859" stroke-linecap="round"/>
<path d="M748.769 281.975V281.975C747.415 281.825 746.195 282.823 746.05 284.2V284.2" stroke="white" stroke-width="0.793859" stroke-linecap="round"/>
<path d="M746.05 284.2V284.2C744.695 284.05 743.476 285.048 743.331 286.425V286.425" stroke="white" stroke-width="0.793859" stroke-linecap="round"/>
<path d="M750.333 283.943V283.943C748.978 283.794 747.759 284.792 747.614 286.168V286.168" stroke="white" stroke-width="0.793859" stroke-linecap="round"/>
<path d="M747.614 286.168V286.168C746.26 286.019 745.04 287.017 744.895 288.394V288.394" stroke="white" stroke-width="0.793859" stroke-linecap="round"/>
<path d="M751.892 285.914V285.914C750.538 285.765 749.318 286.763 749.173 288.139V288.139" stroke="white" stroke-width="0.793859" stroke-linecap="round"/>
<path d="M749.174 288.139V288.139C747.819 287.99 746.6 288.988 746.455 290.364V290.364" stroke="white" stroke-width="0.793859" stroke-linecap="round"/>
<path d="M753.455 287.885V287.885C752.1 287.735 750.881 288.733 750.736 290.11V290.11" stroke="white" stroke-width="0.793859" stroke-linecap="round"/>
<path d="M750.735 290.11V290.11C749.381 289.961 748.161 290.958 748.016 292.335V292.335" stroke="white" stroke-width="0.793859" stroke-linecap="round"/>
<path d="M755.017 289.853V289.853C753.663 289.704 752.443 290.702 752.298 292.079V292.079" stroke="white" stroke-width="0.793859" stroke-linecap="round"/>
<path d="M752.299 292.079V292.079C750.944 291.929 749.725 292.927 749.58 294.304V294.304" stroke="white" stroke-width="0.793859" stroke-linecap="round"/>
<path d="M756.578 291.824V291.824C755.223 291.675 754.004 292.673 753.859 294.049V294.049" stroke="white" stroke-width="0.793859" stroke-linecap="round"/>
<path d="M753.859 294.049V294.049C752.505 293.9 751.285 294.898 751.14 296.274V296.274" stroke="white" stroke-width="0.793859" stroke-linecap="round"/>
<g filter="url(#filter4_d_216_842)">
<circle cx="516.972" cy="342.034" r="24.9345" fill="#74A435"/>
</g>
<path d="M523.606 328.469L523.606 328.469C524.512 328.885 525.204 329.901 525.705 331.339C526.199 332.76 526.471 334.494 526.611 336.193C526.75 337.887 526.756 339.524 526.726 340.738C526.711 341.345 526.688 341.845 526.668 342.192C526.658 342.366 526.649 342.502 526.643 342.594C526.64 342.64 526.637 342.674 526.635 342.698L526.633 342.72L526.631 342.739C526.628 342.76 526.623 342.793 526.615 342.836C526.601 342.924 526.577 343.055 526.541 343.224C526.47 343.561 526.351 344.048 526.161 344.636C525.78 345.815 525.119 347.394 523.996 348.998C521.79 352.148 517.778 355.43 510.492 355.915C507.275 350.752 506.304 346.398 506.663 342.802C507.028 339.154 508.769 336.228 511.038 333.98C513.311 331.728 516.106 330.167 518.539 329.265C519.755 328.814 520.869 328.532 521.771 328.409C522.701 328.283 523.319 328.337 523.606 328.469Z" fill="#74A435" stroke="white" stroke-width="0.952631"/>
<path d="M521.712 331.703L510.432 355.501C510.362 355.648 510.521 355.796 510.666 355.719V355.719" stroke="white" stroke-width="0.793859" stroke-linecap="round"/>
<path d="M523.35 336.365V336.365C522.898 335.079 521.471 334.412 520.167 334.877V334.877" stroke="white" stroke-width="0.793859" stroke-linecap="round"/>
<path d="M520.167 334.877V334.877C519.715 333.591 518.288 332.924 516.984 333.389V333.389" stroke="white" stroke-width="0.793859" stroke-linecap="round"/>
<path d="M522.251 338.626V338.626C521.799 337.34 520.372 336.673 519.068 337.138V337.138" stroke="white" stroke-width="0.793859" stroke-linecap="round"/>
<path d="M519.067 337.137V337.137C518.616 335.851 517.188 335.184 515.885 335.649V335.649" stroke="white" stroke-width="0.793859" stroke-linecap="round"/>
<path d="M521.151 340.887V340.887C520.7 339.601 519.272 338.934 517.969 339.399V339.399" stroke="white" stroke-width="0.793859" stroke-linecap="round"/>
<path d="M517.969 339.399V339.399C517.517 338.113 516.09 337.445 514.786 337.91V337.91" stroke="white" stroke-width="0.793859" stroke-linecap="round"/>
<path d="M520.05 343.146V343.146C519.598 341.86 518.171 341.193 516.867 341.658V341.658" stroke="white" stroke-width="0.793859" stroke-linecap="round"/>
<path d="M516.867 341.658V341.658C516.416 340.372 514.988 339.705 513.684 340.17V340.17" stroke="white" stroke-width="0.793859" stroke-linecap="round"/>
<path d="M518.949 345.407V345.407C518.498 344.122 517.07 343.454 515.767 343.919V343.919" stroke="white" stroke-width="0.793859" stroke-linecap="round"/>
<path d="M515.766 343.919V343.919C515.314 342.633 513.887 341.965 512.583 342.43V342.43" stroke="white" stroke-width="0.793859" stroke-linecap="round"/>
<path d="M517.851 347.668V347.668C517.399 346.382 515.972 345.714 514.668 346.179V346.179" stroke="white" stroke-width="0.793859" stroke-linecap="round"/>
<path d="M514.668 346.18V346.18C514.216 344.894 512.789 344.227 511.485 344.692V344.692" stroke="white" stroke-width="0.793859" stroke-linecap="round"/>
<path d="M516.749 349.927V349.927C516.297 348.642 514.87 347.974 513.566 348.439V348.439" stroke="white" stroke-width="0.793859" stroke-linecap="round"/>
<path d="M513.566 348.439V348.439C513.115 347.153 511.687 346.486 510.384 346.951V346.951" stroke="white" stroke-width="0.793859" stroke-linecap="round"/>
<g filter="url(#filter5_d_216_842)">
<circle cx="625.853" cy="125.935" r="24.9345" fill="#74A435"/>
</g>
<path d="M632.49 112.371L632.49 112.371C633.396 112.787 634.088 113.803 634.588 115.241C635.082 116.662 635.355 118.396 635.494 120.095C635.634 121.789 635.639 123.425 635.61 124.64C635.595 125.247 635.572 125.747 635.552 126.094C635.542 126.268 635.533 126.404 635.527 126.496C635.523 126.541 635.521 126.576 635.519 126.6L635.517 126.622L635.515 126.64C635.511 126.662 635.506 126.695 635.499 126.738C635.485 126.826 635.461 126.957 635.425 127.126C635.354 127.463 635.234 127.95 635.045 128.538C634.664 129.717 634.003 131.296 632.88 132.9C630.674 136.05 626.662 139.332 619.376 139.817C616.159 134.653 615.188 130.3 615.547 126.704C615.912 123.056 617.652 120.13 619.921 117.882C622.194 115.63 624.989 114.069 627.423 113.167C628.639 112.716 629.753 112.434 630.655 112.311C631.585 112.184 632.203 112.239 632.49 112.371Z" fill="#74A435" stroke="white" stroke-width="0.952631"/>
<path d="M630.594 115.604L619.314 139.402C619.244 139.549 619.403 139.697 619.548 139.62V139.62" stroke="white" stroke-width="0.793859" stroke-linecap="round"/>
<path d="M632.232 120.266V120.266C631.781 118.981 630.353 118.313 629.05 118.778V118.778" stroke="white" stroke-width="0.793859" stroke-linecap="round"/>
<path d="M629.05 118.778V118.778C628.598 117.492 627.171 116.825 625.867 117.29V117.29" stroke="white" stroke-width="0.793859" stroke-linecap="round"/>
<path d="M631.134 122.527V122.527C630.682 121.241 629.255 120.574 627.951 121.039V121.039" stroke="white" stroke-width="0.793859" stroke-linecap="round"/>
<path d="M627.95 121.038V121.038C627.499 119.752 626.071 119.085 624.767 119.549V119.549" stroke="white" stroke-width="0.793859" stroke-linecap="round"/>
<path d="M630.034 124.787V124.787C629.583 123.502 628.155 122.834 626.851 123.299V123.299" stroke="white" stroke-width="0.793859" stroke-linecap="round"/>
<path d="M626.851 123.299V123.299C626.4 122.013 624.973 121.346 623.669 121.811V121.811" stroke="white" stroke-width="0.793859" stroke-linecap="round"/>
<path d="M628.933 127.047V127.047C628.481 125.761 627.054 125.093 625.75 125.558V125.558" stroke="white" stroke-width="0.793859" stroke-linecap="round"/>
<path d="M625.75 125.559V125.559C625.298 124.273 623.871 123.606 622.567 124.07V124.07" stroke="white" stroke-width="0.793859" stroke-linecap="round"/>
<path d="M627.832 129.308V129.308C627.38 128.023 625.953 127.355 624.649 127.82V127.82" stroke="white" stroke-width="0.793859" stroke-linecap="round"/>
<path d="M624.648 127.819V127.819C624.197 126.533 622.769 125.866 621.466 126.331V126.331" stroke="white" stroke-width="0.793859" stroke-linecap="round"/>
<path d="M626.732 131.569V131.569C626.281 130.283 624.853 129.615 623.55 130.08V130.08" stroke="white" stroke-width="0.793859" stroke-linecap="round"/>
<path d="M623.55 130.08V130.08C623.098 128.795 621.671 128.127 620.367 128.592V128.592" stroke="white" stroke-width="0.793859" stroke-linecap="round"/>
<path d="M625.631 133.828V133.828C625.179 132.542 623.752 131.875 622.448 132.339V132.339" stroke="white" stroke-width="0.793859" stroke-linecap="round"/>
<path d="M622.448 132.34V132.34C621.997 131.054 620.569 130.386 619.266 130.851V130.851" stroke="white" stroke-width="0.793859" stroke-linecap="round"/>
<rect x="1053" width="101" height="562" fill="white"/>
<path d="M1091.47 306.67L1091.47 306.67C1095.03 309.56 1096.97 314.891 1097.56 321.929C1098.15 328.879 1097.38 336.985 1096.05 344.786C1094.72 352.566 1092.86 359.93 1091.33 365.358C1090.56 368.069 1089.88 370.291 1089.39 371.832C1089.15 372.602 1088.95 373.202 1088.82 373.607C1088.75 373.81 1088.7 373.964 1088.66 374.066L1088.63 374.161C1088.62 374.18 1088.61 374.206 1088.6 374.237C1088.56 374.329 1088.5 374.47 1088.42 374.658C1088.25 375.034 1087.99 375.595 1087.64 376.311C1086.93 377.743 1085.84 379.793 1084.3 382.219C1081.24 387.076 1076.45 393.411 1069.56 399.323C1056.03 410.924 1034.25 421.051 1000.98 414.866C992.488 387.974 993.144 367.31 998.891 351.586C1004.73 335.619 1015.91 324.479 1028.69 316.99C1041.5 309.488 1055.86 305.688 1067.84 304.436C1073.82 303.81 1079.15 303.827 1083.34 304.312C1087.67 304.813 1090.36 305.768 1091.47 306.67Z" fill="#46752B" stroke="white" stroke-width="4.65024"/>
<path d="M1079.29 318.948L1001.1 413.026C1000.61 413.608 1001.16 414.459 1001.9 414.28V414.28" stroke="white" stroke-width="3.8752" stroke-linecap="round"/>
<path d="M1081.29 341.816V341.816C1080.74 335.51 1075.08 330.861 1068.68 331.45V331.45" stroke="white" stroke-width="3.8752" stroke-linecap="round"/>
<path d="M1068.68 331.45V331.45C1068.13 325.145 1062.48 320.496 1056.08 321.085V321.085" stroke="white" stroke-width="3.8752" stroke-linecap="round"/>
<path d="M1073.74 350.722V350.722C1073.19 344.417 1067.53 339.768 1061.13 340.357V340.357" stroke="white" stroke-width="3.8752" stroke-linecap="round"/>
<path d="M1061.13 340.351V340.351C1060.58 334.045 1054.92 329.396 1048.52 329.985V329.985" stroke="white" stroke-width="3.8752" stroke-linecap="round"/>
<path d="M1066.18 359.625V359.625C1065.63 353.319 1059.98 348.671 1053.58 349.259V349.259" stroke="white" stroke-width="3.8752" stroke-linecap="round"/>
<path d="M1053.58 349.26V349.26C1053.03 342.954 1047.37 338.305 1040.97 338.894V338.894" stroke="white" stroke-width="3.8752" stroke-linecap="round"/>
<path d="M1058.62 368.521V368.521C1058.07 362.215 1052.42 357.566 1046.01 358.155V358.155" stroke="white" stroke-width="3.8752" stroke-linecap="round"/>
<path d="M1046.01 358.157V358.157C1045.46 351.851 1039.81 347.202 1033.41 347.791V347.791" stroke="white" stroke-width="3.8752" stroke-linecap="round"/>
<path d="M1051.06 377.429V377.429C1050.51 371.123 1044.86 366.474 1038.46 367.063V367.063" stroke="white" stroke-width="3.8752" stroke-linecap="round"/>
<path d="M1038.45 367.057V367.057C1037.9 360.752 1032.25 356.103 1025.85 356.692V356.692" stroke="white" stroke-width="3.8752" stroke-linecap="round"/>
<path d="M1043.51 386.332V386.332C1042.96 380.026 1037.31 375.378 1030.9 375.966V375.966" stroke="white" stroke-width="3.8752" stroke-linecap="round"/>
<path d="M1030.9 375.966V375.966C1030.35 369.661 1024.7 365.012 1018.3 365.601V365.601" stroke="white" stroke-width="3.8752" stroke-linecap="round"/>
<path d="M1035.95 395.227V395.227C1035.4 388.921 1029.74 384.272 1023.34 384.861V384.861" stroke="white" stroke-width="3.8752" stroke-linecap="round"/>
<path d="M1023.34 384.861V384.861C1022.79 378.555 1017.14 373.906 1010.74 374.495V374.495" stroke="white" stroke-width="3.8752" stroke-linecap="round"/>
<defs>
<filter id="filter0_d_216_842" x="359.052" y="228.166" width="131.322" height="131.322" filterUnits="userSpaceOnUse" color-interpolation-filters="sRGB">
<feFlood flood-opacity="0" result="BackgroundImageFix"/>
<feColorMatrix in="SourceAlpha" type="matrix" values="0 0 0 0 0 0 0 0 0 0 0 0 0 0 0 0 0 0 127 0" result="hardAlpha"/>
<feOffset dy="3.3246"/>
<feGaussianBlur stdDeviation="9.97381"/>
<feComposite in2="hardAlpha" operator="out"/>
<feColorMatrix type="matrix" values="0 0 0 0 0.192157 0 0 0 0 0.380392 0 0 0 0 0.152941 0 0 0 1 0"/>
<feBlend mode="normal" in2="BackgroundImageFix" result="effect1_dropShadow_216_842"/>
<feBlend mode="normal" in="SourceGraphic" in2="effect1_dropShadow_216_842" result="shape"/>
</filter>
<filter id="filter1_d_216_842" x="472.09" y="106.817" width="131.322" height="131.322" filterUnits="userSpaceOnUse" color-interpolation-filters="sRGB">
<feFlood flood-opacity="0" result="BackgroundImageFix"/>
<feColorMatrix in="SourceAlpha" type="matrix" values="0 0 0 0 0 0 0 0 0 0 0 0 0 0 0 0 0 0 127 0" result="hardAlpha"/>
<feOffset dy="3.3246"/>
<feGaussianBlur stdDeviation="9.97381"/>
<feComposite in2="hardAlpha" operator="out"/>
<feColorMatrix type="matrix" values="0 0 0 0 0.192157 0 0 0 0 0.380392 0 0 0 0 0.152941 0 0 0 1 0"/>
<feBlend mode="normal" in2="BackgroundImageFix" result="effect1_dropShadow_216_842"/>
<feBlend mode="normal" in="SourceGraphic" in2="effect1_dropShadow_216_842" result="shape"/>
</filter>
<filter id="filter2_d_216_842" x="396.456" y="127.597" width="89.7644" height="89.7644" filterUnits="userSpaceOnUse" color-interpolation-filters="sRGB">
<feFlood flood-opacity="0" result="BackgroundImageFix"/>
<feColorMatrix in="SourceAlpha" type="matrix" values="0 0 0 0 0 0 0 0 0 0 0 0 0 0 0 0 0 0 127 0" result="hardAlpha"/>
<feOffset dy="3.3246"/>
<feGaussianBlur stdDeviation="9.97381"/>
<feComposite in2="hardAlpha" operator="out"/>
<feColorMatrix type="matrix" values="0 0 0 0 0.192157 0 0 0 0 0.380392 0 0 0 0 0.152941 0 0 0 1 0"/>
<feBlend mode="normal" in2="BackgroundImageFix" result="effect1_dropShadow_216_842"/>
<feBlend mode="normal" in="SourceGraphic" in2="effect1_dropShadow_216_842" result="shape"/>
</filter>
<filter id="filter3_d_216_842" x="704.811" y="246.451" width="89.7644" height="89.7644" filterUnits="userSpaceOnUse" color-interpolation-filters="sRGB">
<feFlood flood-opacity="0" result="BackgroundImageFix"/>
<feColorMatrix in="SourceAlpha" type="matrix" values="0 0 0 0 0 0 0 0 0 0 0 0 0 0 0 0 0 0 127 0" result="hardAlpha"/>
<feOffset dy="3.3246"/>
<feGaussianBlur stdDeviation="9.97381"/>
<feComposite in2="hardAlpha" operator="out"/>
<feColorMatrix type="matrix" values="0 0 0 0 0.192157 0 0 0 0 0.380392 0 0 0 0 0.152941 0 0 0 1 0"/>
<feBlend mode="normal" in2="BackgroundImageFix" result="effect1_dropShadow_216_842"/>
<feBlend mode="normal" in="SourceGraphic" in2="effect1_dropShadow_216_842" result="shape"/>
</filter>
<filter id="filter4_d_216_842" x="472.089" y="300.476" width="89.7644" height="89.7644" filterUnits="userSpaceOnUse" color-interpolation-filters="sRGB">
<feFlood flood-opacity="0" result="BackgroundImageFix"/>
<feColorMatrix in="SourceAlpha" type="matrix" values="0 0 0 0 0 0 0 0 0 0 0 0 0 0 0 0 0 0 127 0" result="hardAlpha"/>
<feOffset dy="3.3246"/>
<feGaussianBlur stdDeviation="9.97381"/>
<feComposite in2="hardAlpha" operator="out"/>
<feColorMatrix type="matrix" values="0 0 0 0 0.192157 0 0 0 0 0.380392 0 0 0 0 0.152941 0 0 0 1 0"/>
<feBlend mode="normal" in2="BackgroundImageFix" result="effect1_dropShadow_216_842"/>
<feBlend mode="normal" in="SourceGraphic" in2="effect1_dropShadow_216_842" result="shape"/>
</filter>
<filter id="filter5_d_216_842" x="580.971" y="84.377" width="89.7644" height="89.7644" filterUnits="userSpaceOnUse" color-interpolation-filters="sRGB">
<feFlood flood-opacity="0" result="BackgroundImageFix"/>
<feColorMatrix in="SourceAlpha" type="matrix" values="0 0 0 0 0 0 0 0 0 0 0 0 0 0 0 0 0 0 127 0" result="hardAlpha"/>
<feOffset dy="3.3246"/>
<feGaussianBlur stdDeviation="9.97381"/>
<feComposite in2="hardAlpha" operator="out"/>
<feColorMatrix type="matrix" values="0 0 0 0 0.192157 0 0 0 0 0.380392 0 0 0 0 0.152941 0 0 0 1 0"/>
<feBlend mode="normal" in2="BackgroundImageFix" result="effect1_dropShadow_216_842"/>
<feBlend mode="normal" in="SourceGraphic" in2="effect1_dropShadow_216_842" result="shape"/>
</filter>
<linearGradient id="paint0_linear_216_842" x1="577" y1="0" x2="577" y2="562" gradientUnits="userSpaceOnUse">
<stop stop-color="#316127"/>
<stop offset="1" stop-color="#6F9E31"/>
</linearGradient>
</defs>
</svg>
