<svg width="1154" height="562" viewBox="0 0 1154 562" fill="none" xmlns="http://www.w3.org/2000/svg">
<rect width="1154" height="562" fill="url(#paint0_linear_123_894)"/>
<path fill-rule="evenodd" clip-rule="evenodd" d="M596.385 374.448H571.265V399.568H596.385V389.959C596.441 389.962 596.497 389.964 596.553 389.964H638.775C640.162 389.964 641.287 388.84 641.287 387.452C641.287 386.065 640.162 384.94 638.775 384.94H596.553C596.497 384.94 596.441 384.942 596.385 384.946V374.448ZM593.294 377.54H574.357V396.476H593.294V377.54ZM636.596 404.263H631.517V390.13H636.596V404.263ZM614.125 404.263H619.204V390.129H614.125V404.263Z" fill="white"/>
<g filter="url(#filter0_d_123_894)">
<circle cx="717.548" cy="156.686" r="45.7133" fill="#74A435"/>
<path d="M717.491 125.039L691.527 135.639L695.884 165.759C696.489 169.943 698.693 173.729 702.031 176.323L717.491 188.334L732.951 176.323C736.289 173.729 738.492 169.943 739.097 165.759L743.454 135.639L717.491 125.039Z" stroke="white" stroke-width="6.64921"/>
<path d="M717.607 136.292L700.67 143.207L703.512 162.854C703.907 165.584 705.344 168.054 707.522 169.746L717.607 177.581L727.692 169.746C729.869 168.054 731.307 165.584 731.701 162.854L734.544 143.207L717.607 136.292Z" fill="white"/>
</g>
<rect width="25.7657" height="79.7905" rx="12.8828" transform="matrix(-0.707107 -0.707107 -0.707107 0.707107 589.388 392.667)" fill="white"/>
<circle cx="552.149" cy="187.439" r="45.7133" fill="#74A435"/>
<path fill-rule="evenodd" clip-rule="evenodd" d="M522.023 168.948C520.646 168.948 519.529 170.065 519.529 171.442C519.529 172.819 520.646 173.935 522.023 173.935H530.756L539.812 200.793C540.28 202.18 541.579 203.113 543.042 203.113H570.526C571.903 203.113 573.019 201.997 573.019 200.619C573.019 199.242 571.903 198.126 570.526 198.126H544.176L542.702 193.756L570.204 190.794C571.936 190.608 573.248 189.147 573.248 187.405V175.102C573.248 173.22 571.722 171.694 569.84 171.694H536.208C535.894 171.694 535.595 171.751 535.318 171.857L535.12 171.268C534.652 169.882 533.353 168.948 531.89 168.948H522.023ZM536.945 176.681L541.07 188.916L568.261 185.988V176.681H536.945ZM550.85 214.949C553.378 214.949 555.426 212.901 555.426 210.373C555.426 207.846 553.378 205.798 550.85 205.798C548.323 205.798 546.275 207.846 546.275 210.373C546.275 212.901 548.323 214.949 550.85 214.949ZM566.866 210.373C566.866 212.901 564.817 214.949 562.29 214.949C559.763 214.949 557.714 212.901 557.714 210.373C557.714 207.846 559.763 205.798 562.29 205.798C564.817 205.798 566.866 207.846 566.866 210.373Z" fill="white"/>
<path fill-rule="evenodd" clip-rule="evenodd" d="M716.229 286.725H791.666V255.576C791.666 234.744 774.779 217.857 753.947 217.857C733.116 217.857 716.229 234.744 716.229 255.576V286.725ZM685.811 286.725H662.692V459.986H844.714V286.725H822.084V255.576C822.084 217.945 791.578 187.439 753.947 187.439C716.317 187.439 685.811 217.945 685.811 255.576V286.725ZM747.843 398.217H758.142V378.405C762.619 376.491 765.755 372.048 765.755 366.871C765.755 359.947 760.142 354.333 753.217 354.333C746.292 354.333 740.678 359.947 740.678 366.871C740.678 371.873 743.607 376.191 747.843 378.203V398.217Z" fill="white"/>
<g filter="url(#filter1_d_123_894)">
<circle cx="273.713" cy="290.502" r="45.7133" fill="#74A435"/>
</g>
<circle cx="252.935" cy="290.502" r="8.31151" fill="white"/>
<circle cx="273.713" cy="290.502" r="8.31151" fill="white"/>
<circle cx="294.492" cy="290.502" r="8.31151" fill="white"/>
<path fill-rule="evenodd" clip-rule="evenodd" d="M459.061 332.992C489.155 332.992 513.552 308.596 513.552 278.501C513.552 248.406 489.155 224.01 459.061 224.01C428.966 224.01 404.569 248.406 404.569 278.501C404.569 308.596 428.966 332.992 459.061 332.992ZM459.06 460.139H565.448C565.448 401.382 517.816 353.751 459.06 353.751C400.304 353.751 352.673 401.382 352.673 460.139H459.06Z" fill="white"/>
<g filter="url(#filter2_d_123_894)">
<circle cx="386.751" cy="169.153" r="45.7133" fill="#74A435"/>
</g>
<path fill-rule="evenodd" clip-rule="evenodd" d="M390.244 180.085C387.656 181.41 384.723 182.157 381.615 182.157C371.139 182.157 362.646 173.664 362.646 163.188C362.646 152.712 371.139 144.219 381.615 144.219C392.091 144.219 400.584 152.712 400.584 163.188C400.584 167.163 399.361 170.853 397.271 173.901L409.462 186.091C411.286 187.915 411.286 190.873 409.462 192.697C407.637 194.521 404.68 194.521 402.856 192.697L390.244 180.085ZM394.697 163.188C394.697 170.413 388.84 176.27 381.615 176.27C374.391 176.27 368.534 170.413 368.534 163.188C368.534 155.963 374.391 150.106 381.615 150.106C388.84 150.106 394.697 155.963 394.697 163.188Z" fill="white"/>
<g filter="url(#filter3_d_123_894)">
<circle cx="843.713" cy="373.713" r="45.7133" fill="#74A435"/>
</g>
<path d="M823 379.194L832.63 388.824C833.279 389.473 834.331 389.473 834.98 388.824L865.804 358" stroke="white" stroke-width="8.31151" stroke-linecap="round"/>
<g filter="url(#filter4_d_123_894)">
<circle cx="290.338" cy="169.154" r="24.9345" fill="#74A435"/>
</g>
<path d="M280.92 157.635L280.92 157.635C281.688 156.998 282.903 156.814 284.416 156.985C285.911 157.155 287.592 157.66 289.184 158.269C290.772 158.876 292.249 159.579 293.331 160.132C293.872 160.407 294.312 160.645 294.617 160.813C294.77 160.897 294.888 160.964 294.968 161.01C295.008 161.032 295.039 161.05 295.059 161.062L295.078 161.073L295.094 161.083C295.111 161.095 295.139 161.114 295.175 161.139C295.248 161.191 295.356 161.269 295.492 161.374C295.765 161.584 296.153 161.902 296.601 162.328C297.499 163.181 298.637 164.461 299.596 166.167C301.481 169.519 302.704 174.556 299.988 181.334C293.942 182 289.596 180.991 286.51 179.112C283.379 177.204 281.495 174.369 280.45 171.351C279.404 168.327 279.205 165.131 279.445 162.548C279.565 161.256 279.793 160.13 280.073 159.263C280.361 158.37 280.677 157.836 280.92 157.635Z" fill="#74A435" stroke="white" stroke-width="0.952631"/>
<path d="M283.017 160.742L299.59 181.21C299.692 181.336 299.895 181.257 299.888 181.093V181.093" stroke="white" stroke-width="0.793859" stroke-linecap="round"/>
<path d="M287.928 161.282V161.282C286.574 161.133 285.355 162.131 285.21 163.508V163.508" stroke="white" stroke-width="0.793859" stroke-linecap="round"/>
<path d="M285.21 163.508V163.508C283.855 163.358 282.636 164.356 282.491 165.733V165.733" stroke="white" stroke-width="0.793859" stroke-linecap="round"/>
<path d="M289.489 163.253V163.253C288.135 163.104 286.915 164.102 286.77 165.478V165.478" stroke="white" stroke-width="0.793859" stroke-linecap="round"/>
<path d="M286.769 165.478V165.478C285.415 165.329 284.195 166.327 284.05 167.704V167.704" stroke="white" stroke-width="0.793859" stroke-linecap="round"/>
<path d="M291.053 165.222V165.222C289.698 165.073 288.479 166.071 288.334 167.447V167.447" stroke="white" stroke-width="0.793859" stroke-linecap="round"/>
<path d="M288.333 167.447V167.447C286.978 167.298 285.759 168.296 285.614 169.672V169.672" stroke="white" stroke-width="0.793859" stroke-linecap="round"/>
<path d="M292.613 167.193V167.193C291.259 167.044 290.039 168.041 289.894 169.418V169.418" stroke="white" stroke-width="0.793859" stroke-linecap="round"/>
<path d="M289.895 169.418V169.418C288.541 169.269 287.321 170.267 287.176 171.643V171.643" stroke="white" stroke-width="0.793859" stroke-linecap="round"/>
<path d="M294.176 169.163V169.163C292.821 169.014 291.602 170.012 291.457 171.388V171.388" stroke="white" stroke-width="0.793859" stroke-linecap="round"/>
<path d="M291.456 171.389V171.389C290.101 171.239 288.882 172.237 288.737 173.614V173.614" stroke="white" stroke-width="0.793859" stroke-linecap="round"/>
<path d="M295.738 171.132V171.132C294.384 170.983 293.164 171.981 293.019 173.357V173.357" stroke="white" stroke-width="0.793859" stroke-linecap="round"/>
<path d="M293.019 173.357V173.357C291.665 173.208 290.445 174.206 290.3 175.583V175.583" stroke="white" stroke-width="0.793859" stroke-linecap="round"/>
<path d="M297.298 173.103V173.103C295.943 172.953 294.724 173.951 294.579 175.328V175.328" stroke="white" stroke-width="0.793859" stroke-linecap="round"/>
<path d="M294.579 175.328V175.328C293.224 175.179 292.005 176.176 291.86 177.553V177.553" stroke="white" stroke-width="0.793859" stroke-linecap="round"/>
<g filter="url(#filter5_d_123_894)">
<circle cx="598.693" cy="288.009" r="24.9345" fill="#74A435"/>
</g>
<path d="M589.202 276.357L589.202 276.357C589.969 275.72 591.185 275.536 592.698 275.707C594.192 275.876 595.873 276.381 597.465 276.99C599.053 277.598 600.531 278.301 601.613 278.853C602.153 279.129 602.594 279.367 602.899 279.535C603.051 279.619 603.169 279.686 603.249 279.731C603.289 279.754 603.32 279.772 603.34 279.783L603.359 279.794L603.375 279.805C603.393 279.817 603.42 279.836 603.456 279.861C603.529 279.912 603.637 279.99 603.774 280.095C604.047 280.306 604.434 280.624 604.882 281.05C605.78 281.903 606.918 283.182 607.878 284.889C609.763 288.241 610.985 293.278 608.269 300.056C602.223 300.722 597.878 299.713 594.792 297.833C591.66 295.926 589.776 293.091 588.731 290.072C587.685 287.049 587.487 283.853 587.727 281.269C587.846 279.978 588.075 278.851 588.354 277.985C588.642 277.092 588.959 276.558 589.202 276.357Z" fill="#74A435" stroke="white" stroke-width="0.952631"/>
<path d="M591.296 279.464L607.869 299.931C607.971 300.058 608.174 299.979 608.168 299.815V299.815" stroke="white" stroke-width="0.793859" stroke-linecap="round"/>
<path d="M596.209 280.004V280.004C594.854 279.855 593.635 280.853 593.49 282.229V282.229" stroke="white" stroke-width="0.793859" stroke-linecap="round"/>
<path d="M593.49 282.229V282.229C592.136 282.08 590.916 283.078 590.771 284.455V284.455" stroke="white" stroke-width="0.793859" stroke-linecap="round"/>
<path d="M597.769 281.975V281.975C596.415 281.826 595.195 282.823 595.05 284.2V284.2" stroke="white" stroke-width="0.793859" stroke-linecap="round"/>
<path d="M595.05 284.2V284.2C593.695 284.051 592.476 285.049 592.331 286.425V286.425" stroke="white" stroke-width="0.793859" stroke-linecap="round"/>
<path d="M599.333 283.944V283.944C597.978 283.794 596.759 284.792 596.614 286.169V286.169" stroke="white" stroke-width="0.793859" stroke-linecap="round"/>
<path d="M596.614 286.169V286.169C595.26 286.02 594.04 287.018 593.895 288.394V288.394" stroke="white" stroke-width="0.793859" stroke-linecap="round"/>
<path d="M600.892 285.914V285.914C599.538 285.765 598.318 286.763 598.173 288.139V288.139" stroke="white" stroke-width="0.793859" stroke-linecap="round"/>
<path d="M598.174 288.139V288.139C596.819 287.99 595.6 288.988 595.455 290.364V290.364" stroke="white" stroke-width="0.793859" stroke-linecap="round"/>
<path d="M602.455 287.885V287.885C601.1 287.735 599.881 288.733 599.736 290.11V290.11" stroke="white" stroke-width="0.793859" stroke-linecap="round"/>
<path d="M599.735 290.11V290.11C598.381 289.961 597.161 290.959 597.016 292.335V292.335" stroke="white" stroke-width="0.793859" stroke-linecap="round"/>
<path d="M604.017 289.854V289.854C602.663 289.704 601.443 290.702 601.298 292.079V292.079" stroke="white" stroke-width="0.793859" stroke-linecap="round"/>
<path d="M601.299 292.079V292.079C599.944 291.93 598.725 292.927 598.58 294.304V294.304" stroke="white" stroke-width="0.793859" stroke-linecap="round"/>
<path d="M605.578 291.824V291.824C604.223 291.675 603.004 292.673 602.859 294.05V294.05" stroke="white" stroke-width="0.793859" stroke-linecap="round"/>
<path d="M602.859 294.05V294.05C601.505 293.9 600.285 294.898 600.14 296.275V296.275" stroke="white" stroke-width="0.793859" stroke-linecap="round"/>
<g filter="url(#filter6_d_123_894)">
<circle cx="365.972" cy="342.034" r="24.9345" fill="#74A435"/>
</g>
<path d="M372.606 328.47L372.606 328.47C373.512 328.886 374.204 329.902 374.705 331.34C375.199 332.761 375.471 334.495 375.611 336.194C375.75 337.888 375.756 339.524 375.726 340.739C375.711 341.345 375.688 341.845 375.668 342.193C375.658 342.367 375.649 342.503 375.643 342.594C375.64 342.64 375.637 342.675 375.635 342.698L375.633 342.72L375.631 342.739C375.628 342.76 375.623 342.793 375.615 342.837C375.601 342.925 375.577 343.056 375.541 343.224C375.47 343.562 375.351 344.049 375.161 344.637C374.78 345.816 374.119 347.395 372.996 348.999C370.79 352.148 366.778 355.431 359.492 355.915C356.275 350.752 355.304 346.399 355.663 342.803C356.028 339.155 357.769 336.229 360.038 333.981C362.311 331.729 365.106 330.168 367.539 329.266C368.755 328.815 369.869 328.533 370.771 328.41C371.701 328.283 372.319 328.338 372.606 328.47Z" fill="#74A435" stroke="white" stroke-width="0.952631"/>
<path d="M370.712 331.704L359.432 355.501C359.362 355.648 359.521 355.797 359.666 355.72V355.72" stroke="white" stroke-width="0.793859" stroke-linecap="round"/>
<path d="M372.35 336.365V336.365C371.898 335.08 370.471 334.412 369.167 334.877V334.877" stroke="white" stroke-width="0.793859" stroke-linecap="round"/>
<path d="M369.167 334.877V334.877C368.715 333.592 367.288 332.924 365.984 333.389V333.389" stroke="white" stroke-width="0.793859" stroke-linecap="round"/>
<path d="M371.251 338.626V338.626C370.799 337.34 369.372 336.673 368.068 337.138V337.138" stroke="white" stroke-width="0.793859" stroke-linecap="round"/>
<path d="M368.067 337.137V337.137C367.616 335.851 366.188 335.184 364.885 335.649V335.649" stroke="white" stroke-width="0.793859" stroke-linecap="round"/>
<path d="M370.151 340.887V340.887C369.7 339.601 368.272 338.934 366.969 339.399V339.399" stroke="white" stroke-width="0.793859" stroke-linecap="round"/>
<path d="M366.969 339.399V339.399C366.517 338.113 365.09 337.446 363.786 337.911V337.911" stroke="white" stroke-width="0.793859" stroke-linecap="round"/>
<path d="M369.05 343.146V343.146C368.598 341.861 367.171 341.193 365.867 341.658V341.658" stroke="white" stroke-width="0.793859" stroke-linecap="round"/>
<path d="M365.867 341.658V341.658C365.416 340.373 363.988 339.705 362.684 340.17V340.17" stroke="white" stroke-width="0.793859" stroke-linecap="round"/>
<path d="M367.949 345.408V345.408C367.498 344.122 366.07 343.455 364.767 343.92V343.92" stroke="white" stroke-width="0.793859" stroke-linecap="round"/>
<path d="M364.766 343.919V343.919C364.314 342.633 362.887 341.966 361.583 342.431V342.431" stroke="white" stroke-width="0.793859" stroke-linecap="round"/>
<path d="M366.851 347.668V347.668C366.399 346.382 364.972 345.715 363.668 346.18V346.18" stroke="white" stroke-width="0.793859" stroke-linecap="round"/>
<path d="M363.668 346.18V346.18C363.216 344.895 361.789 344.227 360.485 344.692V344.692" stroke="white" stroke-width="0.793859" stroke-linecap="round"/>
<path d="M365.749 349.928V349.928C365.297 348.642 363.87 347.974 362.566 348.439V348.439" stroke="white" stroke-width="0.793859" stroke-linecap="round"/>
<path d="M362.566 348.439V348.439C362.115 347.154 360.687 346.486 359.384 346.951V346.951" stroke="white" stroke-width="0.793859" stroke-linecap="round"/>
<g filter="url(#filter7_d_123_894)">
<circle cx="474.853" cy="125.935" r="24.9345" fill="#74A435"/>
</g>
<path d="M481.49 112.371L481.49 112.371C482.396 112.787 483.088 113.803 483.588 115.241C484.082 116.662 484.355 118.396 484.494 120.095C484.634 121.789 484.639 123.425 484.61 124.64C484.595 125.247 484.572 125.747 484.552 126.094C484.542 126.268 484.533 126.404 484.527 126.496C484.523 126.541 484.521 126.576 484.519 126.6L484.517 126.622L484.515 126.64C484.511 126.662 484.506 126.695 484.499 126.738C484.485 126.826 484.461 126.957 484.425 127.126C484.354 127.463 484.234 127.95 484.045 128.538C483.664 129.717 483.003 131.296 481.88 132.9C479.674 136.05 475.662 139.332 468.376 139.817C465.159 134.653 464.188 130.3 464.547 126.704C464.912 123.056 466.652 120.13 468.921 117.882C471.194 115.63 473.989 114.069 476.423 113.167C477.639 112.716 478.753 112.434 479.655 112.311C480.585 112.184 481.203 112.239 481.49 112.371Z" fill="#74A435" stroke="white" stroke-width="0.952631"/>
<path d="M479.594 115.604L468.314 139.402C468.244 139.549 468.403 139.697 468.548 139.62V139.62" stroke="white" stroke-width="0.793859" stroke-linecap="round"/>
<path d="M481.232 120.266V120.266C480.781 118.981 479.353 118.313 478.05 118.778V118.778" stroke="white" stroke-width="0.793859" stroke-linecap="round"/>
<path d="M478.05 118.778V118.778C477.598 117.492 476.171 116.825 474.867 117.29V117.29" stroke="white" stroke-width="0.793859" stroke-linecap="round"/>
<path d="M480.134 122.527V122.527C479.682 121.241 478.255 120.574 476.951 121.039V121.039" stroke="white" stroke-width="0.793859" stroke-linecap="round"/>
<path d="M476.95 121.038V121.038C476.499 119.752 475.071 119.085 473.767 119.549V119.549" stroke="white" stroke-width="0.793859" stroke-linecap="round"/>
<path d="M479.034 124.787V124.787C478.583 123.502 477.155 122.834 475.851 123.299V123.299" stroke="white" stroke-width="0.793859" stroke-linecap="round"/>
<path d="M475.851 123.299V123.299C475.4 122.013 473.973 121.346 472.669 121.811V121.811" stroke="white" stroke-width="0.793859" stroke-linecap="round"/>
<path d="M477.933 127.047V127.047C477.481 125.761 476.054 125.093 474.75 125.558V125.558" stroke="white" stroke-width="0.793859" stroke-linecap="round"/>
<path d="M474.75 125.559V125.559C474.298 124.273 472.871 123.606 471.567 124.07V124.07" stroke="white" stroke-width="0.793859" stroke-linecap="round"/>
<path d="M476.832 129.308V129.308C476.38 128.023 474.953 127.355 473.649 127.82V127.82" stroke="white" stroke-width="0.793859" stroke-linecap="round"/>
<path d="M473.648 127.819V127.819C473.197 126.533 471.769 125.866 470.466 126.331V126.331" stroke="white" stroke-width="0.793859" stroke-linecap="round"/>
<path d="M475.732 131.569V131.569C475.281 130.283 473.853 129.615 472.55 130.08V130.08" stroke="white" stroke-width="0.793859" stroke-linecap="round"/>
<path d="M472.55 130.08V130.08C472.098 128.795 470.671 128.127 469.367 128.592V128.592" stroke="white" stroke-width="0.793859" stroke-linecap="round"/>
<path d="M474.631 133.828V133.828C474.179 132.542 472.752 131.875 471.448 132.339V132.339" stroke="white" stroke-width="0.793859" stroke-linecap="round"/>
<path d="M471.448 132.34V132.34C470.997 131.054 469.569 130.386 468.266 130.851V130.851" stroke="white" stroke-width="0.793859" stroke-linecap="round"/>
<g filter="url(#filter8_d_123_894)">
<circle cx="859.675" cy="189.933" r="24.9345" fill="#74A435"/>
</g>
<path d="M866.312 176.369L866.312 176.369C867.218 176.786 867.91 177.802 868.411 179.24C868.905 180.66 869.177 182.394 869.317 184.093C869.456 185.788 869.462 187.424 869.432 188.638C869.417 189.245 869.394 189.745 869.374 190.092C869.364 190.266 869.355 190.402 869.349 190.494C869.346 190.54 869.343 190.575 869.341 190.598L869.34 190.62L869.337 190.639C869.334 190.66 869.329 190.693 869.321 190.737C869.307 190.824 869.283 190.955 869.247 191.124C869.176 191.461 869.057 191.948 868.867 192.537C868.487 193.715 867.825 195.294 866.702 196.898C864.496 200.048 860.484 203.33 853.198 203.815C849.981 198.652 849.01 194.298 849.37 190.703C849.734 187.054 851.475 184.128 853.744 181.88C856.017 179.628 858.812 178.067 861.245 177.165C862.461 176.714 863.575 176.433 864.477 176.31C865.407 176.183 866.025 176.237 866.312 176.369Z" fill="#74A435" stroke="white" stroke-width="0.952631"/>
<path d="M864.417 179.603L853.137 203.4C853.067 203.548 853.226 203.696 853.371 203.619V203.619" stroke="white" stroke-width="0.793859" stroke-linecap="round"/>
<path d="M866.056 184.265V184.265C865.604 182.979 864.177 182.312 862.873 182.777V182.777" stroke="white" stroke-width="0.793859" stroke-linecap="round"/>
<path d="M862.873 182.777V182.777C862.421 181.491 860.994 180.824 859.69 181.288V181.288" stroke="white" stroke-width="0.793859" stroke-linecap="round"/>
<path d="M864.956 186.526V186.526C864.504 185.24 863.077 184.572 861.773 185.037V185.037" stroke="white" stroke-width="0.793859" stroke-linecap="round"/>
<path d="M861.772 185.037V185.037C861.321 183.751 859.893 183.083 858.59 183.548V183.548" stroke="white" stroke-width="0.793859" stroke-linecap="round"/>
<path d="M863.856 188.786V188.786C863.405 187.501 861.977 186.833 860.674 187.298V187.298" stroke="white" stroke-width="0.793859" stroke-linecap="round"/>
<path d="M860.674 187.298V187.298C860.222 186.013 858.795 185.345 857.491 185.81V185.81" stroke="white" stroke-width="0.793859" stroke-linecap="round"/>
<path d="M862.755 191.046V191.046C862.303 189.76 860.876 189.092 859.572 189.557V189.557" stroke="white" stroke-width="0.793859" stroke-linecap="round"/>
<path d="M859.572 189.558V189.558C859.121 188.272 857.693 187.605 856.39 188.069V188.069" stroke="white" stroke-width="0.793859" stroke-linecap="round"/>
<path d="M861.654 193.308V193.308C861.203 192.022 859.775 191.354 858.472 191.819V191.819" stroke="white" stroke-width="0.793859" stroke-linecap="round"/>
<path d="M858.471 191.819V191.819C858.019 190.533 856.592 189.865 855.288 190.33V190.33" stroke="white" stroke-width="0.793859" stroke-linecap="round"/>
<path d="M860.555 195.567V195.567C860.103 194.282 858.676 193.614 857.372 194.079V194.079" stroke="white" stroke-width="0.793859" stroke-linecap="round"/>
<path d="M857.372 194.079V194.079C856.92 192.794 855.493 192.126 854.189 192.591V192.591" stroke="white" stroke-width="0.793859" stroke-linecap="round"/>
<path d="M859.454 197.827V197.827C859.002 196.541 857.575 195.874 856.271 196.339V196.339" stroke="white" stroke-width="0.793859" stroke-linecap="round"/>
<path d="M856.271 196.339V196.339C855.82 195.053 854.392 194.386 853.089 194.85V194.85" stroke="white" stroke-width="0.793859" stroke-linecap="round"/>
<defs>
<filter id="filter0_d_123_894" x="651.887" y="94.3501" width="131.322" height="131.322" filterUnits="userSpaceOnUse" color-interpolation-filters="sRGB">
<feFlood flood-opacity="0" result="BackgroundImageFix"/>
<feColorMatrix in="SourceAlpha" type="matrix" values="0 0 0 0 0 0 0 0 0 0 0 0 0 0 0 0 0 0 127 0" result="hardAlpha"/>
<feOffset dy="3.3246"/>
<feGaussianBlur stdDeviation="9.97381"/>
<feComposite in2="hardAlpha" operator="out"/>
<feColorMatrix type="matrix" values="0 0 0 0 0.192157 0 0 0 0 0.380392 0 0 0 0 0.152941 0 0 0 1 0"/>
<feBlend mode="normal" in2="BackgroundImageFix" result="effect1_dropShadow_123_894"/>
<feBlend mode="normal" in="SourceGraphic" in2="effect1_dropShadow_123_894" result="shape"/>
</filter>
<filter id="filter1_d_123_894" x="208.052" y="228.166" width="131.322" height="131.322" filterUnits="userSpaceOnUse" color-interpolation-filters="sRGB">
<feFlood flood-opacity="0" result="BackgroundImageFix"/>
<feColorMatrix in="SourceAlpha" type="matrix" values="0 0 0 0 0 0 0 0 0 0 0 0 0 0 0 0 0 0 127 0" result="hardAlpha"/>
<feOffset dy="3.3246"/>
<feGaussianBlur stdDeviation="9.97381"/>
<feComposite in2="hardAlpha" operator="out"/>
<feColorMatrix type="matrix" values="0 0 0 0 0.192157 0 0 0 0 0.380392 0 0 0 0 0.152941 0 0 0 1 0"/>
<feBlend mode="normal" in2="BackgroundImageFix" result="effect1_dropShadow_123_894"/>
<feBlend mode="normal" in="SourceGraphic" in2="effect1_dropShadow_123_894" result="shape"/>
</filter>
<filter id="filter2_d_123_894" x="321.09" y="106.817" width="131.322" height="131.322" filterUnits="userSpaceOnUse" color-interpolation-filters="sRGB">
<feFlood flood-opacity="0" result="BackgroundImageFix"/>
<feColorMatrix in="SourceAlpha" type="matrix" values="0 0 0 0 0 0 0 0 0 0 0 0 0 0 0 0 0 0 127 0" result="hardAlpha"/>
<feOffset dy="3.3246"/>
<feGaussianBlur stdDeviation="9.97381"/>
<feComposite in2="hardAlpha" operator="out"/>
<feColorMatrix type="matrix" values="0 0 0 0 0.192157 0 0 0 0 0.380392 0 0 0 0 0.152941 0 0 0 1 0"/>
<feBlend mode="normal" in2="BackgroundImageFix" result="effect1_dropShadow_123_894"/>
<feBlend mode="normal" in="SourceGraphic" in2="effect1_dropShadow_123_894" result="shape"/>
</filter>
<filter id="filter3_d_123_894" x="778.052" y="311.377" width="131.322" height="131.322" filterUnits="userSpaceOnUse" color-interpolation-filters="sRGB">
<feFlood flood-opacity="0" result="BackgroundImageFix"/>
<feColorMatrix in="SourceAlpha" type="matrix" values="0 0 0 0 0 0 0 0 0 0 0 0 0 0 0 0 0 0 127 0" result="hardAlpha"/>
<feOffset dy="3.3246"/>
<feGaussianBlur stdDeviation="9.97381"/>
<feColorMatrix type="matrix" values="0 0 0 0 0.192157 0 0 0 0 0.380392 0 0 0 0 0.152941 0 0 0 1 0"/>
<feBlend mode="normal" in2="BackgroundImageFix" result="effect1_dropShadow_123_894"/>
<feBlend mode="normal" in="SourceGraphic" in2="effect1_dropShadow_123_894" result="shape"/>
</filter>
<filter id="filter4_d_123_894" x="245.456" y="127.596" width="89.7644" height="89.7644" filterUnits="userSpaceOnUse" color-interpolation-filters="sRGB">
<feFlood flood-opacity="0" result="BackgroundImageFix"/>
<feColorMatrix in="SourceAlpha" type="matrix" values="0 0 0 0 0 0 0 0 0 0 0 0 0 0 0 0 0 0 127 0" result="hardAlpha"/>
<feOffset dy="3.3246"/>
<feGaussianBlur stdDeviation="9.97381"/>
<feComposite in2="hardAlpha" operator="out"/>
<feColorMatrix type="matrix" values="0 0 0 0 0.192157 0 0 0 0 0.380392 0 0 0 0 0.152941 0 0 0 1 0"/>
<feBlend mode="normal" in2="BackgroundImageFix" result="effect1_dropShadow_123_894"/>
<feBlend mode="normal" in="SourceGraphic" in2="effect1_dropShadow_123_894" result="shape"/>
</filter>
<filter id="filter5_d_123_894" x="553.811" y="246.451" width="89.7644" height="89.7644" filterUnits="userSpaceOnUse" color-interpolation-filters="sRGB">
<feFlood flood-opacity="0" result="BackgroundImageFix"/>
<feColorMatrix in="SourceAlpha" type="matrix" values="0 0 0 0 0 0 0 0 0 0 0 0 0 0 0 0 0 0 127 0" result="hardAlpha"/>
<feOffset dy="3.3246"/>
<feGaussianBlur stdDeviation="9.97381"/>
<feComposite in2="hardAlpha" operator="out"/>
<feColorMatrix type="matrix" values="0 0 0 0 0.192157 0 0 0 0 0.380392 0 0 0 0 0.152941 0 0 0 1 0"/>
<feBlend mode="normal" in2="BackgroundImageFix" result="effect1_dropShadow_123_894"/>
<feBlend mode="normal" in="SourceGraphic" in2="effect1_dropShadow_123_894" result="shape"/>
</filter>
<filter id="filter6_d_123_894" x="321.089" y="300.476" width="89.7644" height="89.7644" filterUnits="userSpaceOnUse" color-interpolation-filters="sRGB">
<feFlood flood-opacity="0" result="BackgroundImageFix"/>
<feColorMatrix in="SourceAlpha" type="matrix" values="0 0 0 0 0 0 0 0 0 0 0 0 0 0 0 0 0 0 127 0" result="hardAlpha"/>
<feOffset dy="3.3246"/>
<feGaussianBlur stdDeviation="9.97381"/>
<feComposite in2="hardAlpha" operator="out"/>
<feColorMatrix type="matrix" values="0 0 0 0 0.192157 0 0 0 0 0.380392 0 0 0 0 0.152941 0 0 0 1 0"/>
<feBlend mode="normal" in2="BackgroundImageFix" result="effect1_dropShadow_123_894"/>
<feBlend mode="normal" in="SourceGraphic" in2="effect1_dropShadow_123_894" result="shape"/>
</filter>
<filter id="filter7_d_123_894" x="429.971" y="84.377" width="89.7644" height="89.7644" filterUnits="userSpaceOnUse" color-interpolation-filters="sRGB">
<feFlood flood-opacity="0" result="BackgroundImageFix"/>
<feColorMatrix in="SourceAlpha" type="matrix" values="0 0 0 0 0 0 0 0 0 0 0 0 0 0 0 0 0 0 127 0" result="hardAlpha"/>
<feOffset dy="3.3246"/>
<feGaussianBlur stdDeviation="9.97381"/>
<feComposite in2="hardAlpha" operator="out"/>
<feColorMatrix type="matrix" values="0 0 0 0 0.192157 0 0 0 0 0.380392 0 0 0 0 0.152941 0 0 0 1 0"/>
<feBlend mode="normal" in2="BackgroundImageFix" result="effect1_dropShadow_123_894"/>
<feBlend mode="normal" in="SourceGraphic" in2="effect1_dropShadow_123_894" result="shape"/>
</filter>
<filter id="filter8_d_123_894" x="814.793" y="148.375" width="89.7644" height="89.7644" filterUnits="userSpaceOnUse" color-interpolation-filters="sRGB">
<feFlood flood-opacity="0" result="BackgroundImageFix"/>
<feColorMatrix in="SourceAlpha" type="matrix" values="0 0 0 0 0 0 0 0 0 0 0 0 0 0 0 0 0 0 127 0" result="hardAlpha"/>
<feOffset dy="3.3246"/>
<feGaussianBlur stdDeviation="9.97381"/>
<feComposite in2="hardAlpha" operator="out"/>
<feColorMatrix type="matrix" values="0 0 0 0 0.192157 0 0 0 0 0.380392 0 0 0 0 0.152941 0 0 0 1 0"/>
<feBlend mode="normal" in2="BackgroundImageFix" result="effect1_dropShadow_123_894"/>
<feBlend mode="normal" in="SourceGraphic" in2="effect1_dropShadow_123_894" result="shape"/>
</filter>
<linearGradient id="paint0_linear_123_894" x1="577" y1="0" x2="577" y2="562" gradientUnits="userSpaceOnUse">
<stop stop-color="#316127"/>
<stop offset="1" stop-color="#6F9E31"/>
</linearGradient>
</defs>
</svg>
