<svg width="40" height="40" viewBox="0 0 40 40" fill="none" xmlns="http://www.w3.org/2000/svg">
<path d="M26.2258 21.25H13.6477V18.75H26.2258V7.1875C26.2258 6.93886 26.1271 6.7004 25.9512 6.52459C25.7754 6.34877 25.537 6.25 25.2883 6.25H3.41333C3.16469 6.25 2.92623 6.34877 2.75042 6.52459C2.5746 6.7004 2.47583 6.93886 2.47583 7.1875V32.8125C2.47583 33.0611 2.5746 33.2996 2.75042 33.4754C2.92623 33.6512 3.16469 33.75 3.41333 33.75H25.2883C25.537 33.75 25.7754 33.6512 25.9512 33.4754C26.1271 33.2996 26.2258 33.0611 26.2258 32.8125V21.25ZM32.7391 21.25L27.7391 26.25L29.5071 28.018L37.5243 20L29.5071 11.982L27.7391 13.75L32.7391 18.75H26.2258V21.25H32.7391Z" fill="white"/>
</svg>
