<svg width="32" height="32" viewBox="0 0 32 32" fill="none" xmlns="http://www.w3.org/2000/svg">
<rect x="15.5327" y="3" width="1.27867" height="5.03633" rx="0.639337" fill="#CDA000"/>
<rect width="1.32528" height="3.81416" rx="0.662641" transform="matrix(0.64933 -0.760507 0.749925 0.661523 5.66357 9.79565)" fill="#CDA000"/>
<rect width="1.32376" height="3.81855" rx="0.661881" transform="matrix(-0.701318 -0.712849 0.701318 -0.712849 22.9141 11.6815)" fill="#CDA000"/>
<rect width="1.31836" height="3.83408" rx="0.659178" transform="matrix(0.862459 -0.506128 0.493897 0.86952 9.83887 5.98242)" fill="#CDA000"/>
<rect width="1.31836" height="3.83408" rx="0.659178" transform="matrix(-0.862459 -0.506128 0.493897 -0.86952 20.4658 9.31604)" fill="#CDA000"/>
<rect x="3.76465" y="16.8702" width="1.2997" height="3.83602" rx="0.649849" transform="rotate(-90 3.76465 16.8702)" fill="#CDA000"/>
<rect width="1.38093" height="3.75611" rx="0.690465" transform="matrix(0 -1 -1 0 27.7197 16.8702)" fill="#CDA000"/>
<rect x="16.3716" y="29.989" width="1.27867" height="5.03633" rx="0.639337" transform="rotate(180 16.3716 29.989)" fill="#CDA000"/>
<rect width="1.32528" height="3.81416" rx="0.662641" transform="matrix(-0.64933 0.760507 -0.749925 -0.661523 25.7075 24.4297)" fill="#CDA000"/>
<rect width="1.32376" height="3.81855" rx="0.661881" transform="matrix(0.701318 0.712849 -0.701318 0.712849 8.34131 21.5208)" fill="#CDA000"/>
<rect width="1.31836" height="3.83408" rx="0.659178" transform="matrix(-0.862459 0.506128 -0.493897 -0.86952 21.0474 27.3925)" fill="#CDA000"/>
<rect width="1.31836" height="3.83408" rx="0.659178" transform="matrix(0.862459 0.506128 -0.493897 0.86952 12.3193 24.0588)" fill="#CDA000"/>
<path d="M23.7061 16.9468C23.7061 21.3972 20.158 24.9962 15.7921 24.9962C11.4261 24.9962 7.87804 21.3972 7.87804 16.9468C7.87804 12.4964 11.4261 8.89745 15.7921 8.89745C20.158 8.89745 23.7061 12.4964 23.7061 16.9468Z" fill="#FFCD1C" fill-opacity="0.76" stroke="white" stroke-width="0.634016"/>
<path d="M11.6049 13.1514V13.1514C12.2256 11.0553 14.4136 9.86047 16.4758 10.4915V10.4915" stroke="white" stroke-width="0.858451" stroke-linecap="round"/>
<g filter="url(#filter0_d_145_1054)">
<path d="M13.8804 15.7266C13.8804 15.7266 18.9012 19.2765 15.847 25.8902C3.84199 26.8036 5.53619 14.8878 6.93842 13.8187L6.93839 13.8187C8.7504 12.4371 13.8804 15.7266 13.8804 15.7266Z" fill="#74A435"/>
<path d="M13.8804 15.7266L14.1499 15.335L14.1413 15.3289L14.1324 15.3232L13.8804 15.7266ZM13.8804 15.7266C14.1499 15.335 14.1501 15.3352 14.1504 15.3353L14.151 15.3358L14.1526 15.3369L14.157 15.3401L14.1713 15.3505C14.1831 15.3592 14.1995 15.3714 14.22 15.3871C14.2611 15.4186 14.3188 15.4642 14.39 15.5238C14.5321 15.6428 14.7284 15.8183 14.9525 16.0494C15.4 16.5107 15.9632 17.1989 16.4264 18.1078C17.362 19.944 17.8655 22.6407 16.2721 26.091L16.155 26.3447L15.8801 26.3656C12.804 26.5997 10.549 26.0155 8.93418 24.9385C7.31801 23.8607 6.39177 22.3215 5.91579 20.7389C5.44147 19.1619 5.40953 17.5296 5.5853 16.2219C5.67328 15.5674 5.81485 14.9823 5.98644 14.5165C6.14815 14.0776 6.36653 13.6597 6.65741 13.438L6.6574 13.4379C7.26572 12.9741 8.08733 12.9428 8.86042 13.0627C9.65155 13.1854 10.5035 13.4839 11.2738 13.8155C12.0483 14.1489 12.7615 14.5253 13.2797 14.8171C13.5393 14.9633 13.7511 15.089 13.8986 15.1784C13.9724 15.2232 14.0301 15.2589 14.0698 15.2837L14.1154 15.3124L14.1276 15.3201L14.1309 15.3223L14.1319 15.3229L14.1322 15.3231C14.1323 15.3231 14.1324 15.3232 13.8804 15.7266Z" stroke="#316127" stroke-width="0.946398"/>
</g>
<path d="M8.01362 15.5218L15.3845 25.3277C15.432 25.3907 15.5314 25.3562 15.5314 25.2767V25.2767" stroke="white" stroke-width="0.378728" stroke-linecap="round"/>
<path d="M10.3418 15.8771V15.8771C9.69905 15.7794 9.09825 16.2313 9.00216 16.8845V16.8845" stroke="white" stroke-width="0.378728" stroke-linecap="round"/>
<path d="M9.00192 16.8848V16.8848C8.3592 16.7871 7.7584 17.2389 7.66231 17.8922V17.8922" stroke="white" stroke-width="0.378728" stroke-linecap="round"/>
<path d="M11.0468 16.8471V16.8471C10.4041 16.7494 9.80333 17.2012 9.70724 17.8545V17.8545" stroke="white" stroke-width="0.378728" stroke-linecap="round"/>
<path d="M9.70749 17.8545V17.8545C9.06477 17.7569 8.46397 18.2087 8.36788 18.862V18.862" stroke="white" stroke-width="0.378728" stroke-linecap="round"/>
<path d="M11.7544 17.8162V17.8162C11.1116 17.7185 10.5108 18.1703 10.4148 18.8236V18.8236" stroke="white" stroke-width="0.378728" stroke-linecap="round"/>
<path d="M10.4145 18.8236V18.8236C9.7718 18.726 9.171 19.1778 9.07491 19.8311V19.8311" stroke="white" stroke-width="0.378728" stroke-linecap="round"/>
<path d="M12.459 18.7862V18.7862C11.8162 18.6885 11.2154 19.1403 11.1193 19.7936V19.7936" stroke="white" stroke-width="0.378728" stroke-linecap="round"/>
<path d="M11.1191 19.7935V19.7935C10.4764 19.6958 9.87559 20.1476 9.7795 20.8009V20.8009" stroke="white" stroke-width="0.378728" stroke-linecap="round"/>
<path d="M13.1655 19.756V19.756C12.5228 19.6583 11.922 20.1102 11.8259 20.7634V20.7634" stroke="white" stroke-width="0.378728" stroke-linecap="round"/>
<path d="M11.8256 20.7635V20.7635C11.1829 20.6658 10.5821 21.1176 10.486 21.7709V21.7709" stroke="white" stroke-width="0.378728" stroke-linecap="round"/>
<path d="M13.8711 20.7251V20.7251C13.2283 20.6275 12.6275 21.0793 12.5315 21.7326V21.7326" stroke="white" stroke-width="0.378728" stroke-linecap="round"/>
<path d="M12.5317 21.7326V21.7326C11.889 21.6349 11.2882 22.0867 11.1921 22.74V22.74" stroke="white" stroke-width="0.378728" stroke-linecap="round"/>
<path d="M14.5761 21.6949V21.6949C13.9334 21.5972 13.3326 22.049 13.2365 22.7023V22.7023" stroke="white" stroke-width="0.378728" stroke-linecap="round"/>
<path d="M13.2363 22.7025V22.7025C12.5936 22.6049 11.9928 23.0567 11.8967 23.71V23.71" stroke="white" stroke-width="0.378728" stroke-linecap="round"/>
<g filter="url(#filter1_d_145_1054)">
<path d="M17.6475 15.7266C17.6475 15.7266 12.6266 19.2765 15.6808 25.8902C27.6858 26.8036 25.9916 14.8878 24.5894 13.8187L24.5894 13.8187C22.7774 12.4371 17.6475 15.7266 17.6475 15.7266Z" fill="#74A435"/>
<path d="M17.6475 15.7266L17.3779 15.335L17.3865 15.3289L17.3954 15.3232L17.6475 15.7266ZM17.6475 15.7266C17.3779 15.335 17.3777 15.3352 17.3774 15.3353L17.3768 15.3358L17.3753 15.3369L17.3708 15.3401L17.3565 15.3505C17.3447 15.3592 17.3283 15.3714 17.3078 15.3871C17.2667 15.4186 17.209 15.4642 17.1379 15.5238C16.9957 15.6428 16.7994 15.8183 16.5753 16.0494C16.1279 16.5107 15.5646 17.1989 15.1015 18.1078C14.1658 19.944 13.6624 22.6407 15.2557 26.091L15.3729 26.3447L15.6477 26.3656C18.7238 26.5997 20.9789 26.0155 22.5936 24.9385C24.2098 23.8607 25.1361 22.3215 25.612 20.7389C26.0864 19.1619 26.1183 17.5296 25.9425 16.2219C25.8546 15.5674 25.713 14.9823 25.5414 14.5165C25.3797 14.0776 25.1613 13.6597 24.8704 13.4379L24.8704 13.4379C24.2621 12.9741 23.4405 12.9428 22.6674 13.0627C21.8763 13.1854 21.0243 13.4839 20.254 13.8155C19.4796 14.1489 18.7663 14.5253 18.2481 14.8171C17.9885 14.9633 17.7767 15.089 17.6292 15.1784C17.5554 15.2232 17.4977 15.2589 17.4581 15.2837L17.4124 15.3124L17.4002 15.3201L17.3969 15.3223L17.3959 15.3229L17.3956 15.3231C17.3955 15.3231 17.3954 15.3232 17.6475 15.7266Z" stroke="#316127" stroke-width="0.946398"/>
</g>
<path d="M23.2119 15.5231L15.8576 25.7696" stroke="white" stroke-width="0.378728" stroke-linecap="round"/>
<path d="M20.8819 15.8771V15.8771C21.5246 15.7794 22.1254 16.2313 22.2215 16.8845V16.8845" stroke="white" stroke-width="0.378728" stroke-linecap="round"/>
<path d="M22.2202 16.8846V16.8846C22.863 16.7869 23.4638 17.2387 23.5599 17.892V17.892" stroke="white" stroke-width="0.378728" stroke-linecap="round"/>
<path d="M20.1753 16.8471V16.8471C20.818 16.7494 21.4188 17.2012 21.5149 17.8545V17.8545" stroke="white" stroke-width="0.378728" stroke-linecap="round"/>
<path d="M21.5147 17.8545V17.8545C22.1574 17.7569 22.7582 18.2087 22.8543 18.862V18.862" stroke="white" stroke-width="0.378728" stroke-linecap="round"/>
<path d="M19.4693 17.8163V17.8163C20.112 17.7186 20.7128 18.1705 20.8089 18.8238V18.8238" stroke="white" stroke-width="0.378728" stroke-linecap="round"/>
<path d="M20.8091 18.8238V18.8238C21.4518 18.7261 22.0526 19.1779 22.1487 19.8312V19.8312" stroke="white" stroke-width="0.378728" stroke-linecap="round"/>
<path d="M18.7642 18.7863V18.7863C19.4069 18.6886 20.0077 19.1404 20.1038 19.7937V19.7937" stroke="white" stroke-width="0.378728" stroke-linecap="round"/>
<path d="M20.1035 19.7937V19.7937C20.7463 19.6961 21.3471 20.1479 21.4432 20.8012V20.8012" stroke="white" stroke-width="0.378728" stroke-linecap="round"/>
<path d="M18.0572 19.756V19.756C18.6999 19.6583 19.3007 20.1102 19.3968 20.7634V20.7634" stroke="white" stroke-width="0.378728" stroke-linecap="round"/>
<path d="M19.3965 20.7635V20.7635C20.0392 20.6658 20.64 21.1176 20.7361 21.7709V21.7709" stroke="white" stroke-width="0.378728" stroke-linecap="round"/>
<path d="M17.3526 20.7252V20.7252C17.9953 20.6276 18.5961 21.0794 18.6922 21.7327V21.7327" stroke="white" stroke-width="0.378728" stroke-linecap="round"/>
<path d="M18.6919 21.7327V21.7327C19.3346 21.635 19.9354 22.0868 20.0315 22.7401V22.7401" stroke="white" stroke-width="0.378728" stroke-linecap="round"/>
<path d="M16.647 21.6951V21.6951C17.2897 21.5974 17.8905 22.0493 17.9866 22.7025V22.7025" stroke="white" stroke-width="0.378728" stroke-linecap="round"/>
<path d="M17.9864 22.7025V22.7025C18.6291 22.6049 19.2299 23.0567 19.326 23.71V23.71" stroke="white" stroke-width="0.378728" stroke-linecap="round"/>
<defs>
<filter id="filter0_d_145_1054" x="3.74955" y="12.5265" width="15.29" height="16.9031" filterUnits="userSpaceOnUse" color-interpolation-filters="sRGB">
<feFlood flood-opacity="0" result="BackgroundImageFix"/>
<feColorMatrix in="SourceAlpha" type="matrix" values="0 0 0 0 0 0 0 0 0 0 0 0 0 0 0 0 0 0 127 0" result="hardAlpha"/>
<feOffset dy="1.26803"/>
<feGaussianBlur stdDeviation="0.634016"/>
<feComposite in2="hardAlpha" operator="out"/>
<feColorMatrix type="matrix" values="0 0 0 0 1 0 0 0 0 1 0 0 0 0 1 0 0 0 0.09 0"/>
<feBlend mode="normal" in2="BackgroundImageFix" result="effect1_dropShadow_145_1054"/>
<feBlend mode="normal" in="SourceGraphic" in2="effect1_dropShadow_145_1054" result="shape"/>
</filter>
<filter id="filter1_d_145_1054" x="12.4883" y="12.5265" width="15.29" height="16.9031" filterUnits="userSpaceOnUse" color-interpolation-filters="sRGB">
<feFlood flood-opacity="0" result="BackgroundImageFix"/>
<feColorMatrix in="SourceAlpha" type="matrix" values="0 0 0 0 0 0 0 0 0 0 0 0 0 0 0 0 0 0 127 0" result="hardAlpha"/>
<feOffset dy="1.26803"/>
<feGaussianBlur stdDeviation="0.634016"/>
<feComposite in2="hardAlpha" operator="out"/>
<feColorMatrix type="matrix" values="0 0 0 0 1 0 0 0 0 1 0 0 0 0 1 0 0 0 0.09 0"/>
<feBlend mode="normal" in2="BackgroundImageFix" result="effect1_dropShadow_145_1054"/>
<feBlend mode="normal" in="SourceGraphic" in2="effect1_dropShadow_145_1054" result="shape"/>
</filter>
</defs>
</svg>
