<svg width="24" height="25" viewBox="0 0 24 25" fill="none" xmlns="http://www.w3.org/2000/svg">
<path d="M0.512334 12.028C0.511771 14.0512 1.04277 16.0267 2.05246 17.7679L0.415771 23.717L6.53127 22.1207C8.22274 23.0374 10.1179 23.5177 12.0438 23.5178H12.0488C18.4065 23.5178 23.5818 18.3675 23.5845 12.0371C23.5857 8.96956 22.3868 6.08504 20.2086 3.91489C18.0308 1.74493 15.1344 0.549252 12.0484 0.547852C5.68996 0.547852 0.515053 5.6979 0.512428 12.028" fill="url(#paint0_linear_85_372)"/>
<path d="M0.100313 12.0243C0.0996563 14.1202 0.649687 16.1664 1.69537 17.9699L0 24.1323L6.33478 22.4788C8.08022 23.4262 10.0454 23.9257 12.0451 23.9264H12.0502C18.636 23.9264 23.9972 18.5908 24 12.0338C24.0011 8.85605 22.7591 5.86785 20.5031 3.61995C18.2468 1.37233 15.2468 0.133631 12.0502 0.132324C5.46337 0.132324 0.102938 5.46717 0.100313 12.0243ZM3.87291 17.6593L3.63637 17.2855C2.64206 15.7116 2.11725 13.8927 2.118 12.025C2.12006 6.57493 6.57544 2.14083 12.054 2.14083C14.7071 2.14195 17.2005 3.17158 19.0759 5.03971C20.9512 6.90803 21.9831 9.39159 21.9824 12.0331C21.98 17.4832 17.5245 21.9178 12.0502 21.9178H12.0463C10.2638 21.9169 8.51569 21.4404 6.99112 20.5398L6.62831 20.3256L2.86913 21.3068L3.87291 17.6593Z" fill="url(#paint1_linear_85_372)"/>
<path d="M9.06358 7.05275C8.8399 6.55781 8.60449 6.54782 8.39177 6.53914C8.21758 6.53168 8.01846 6.53224 7.81952 6.53224C7.6204 6.53224 7.29687 6.60681 7.0234 6.90407C6.74965 7.20161 5.97827 7.92064 5.97827 9.38306C5.97827 10.8456 7.04824 12.2589 7.1974 12.4574C7.34674 12.6556 9.26299 15.7527 12.2979 16.9441C14.8201 17.9343 15.3334 17.7374 15.8808 17.6877C16.4283 17.6383 17.6474 16.9689 17.8961 16.2748C18.1451 15.5808 18.1451 14.9859 18.0704 14.8615C17.9958 14.7377 17.7967 14.6633 17.4981 14.5147C17.1994 14.366 15.7315 13.6469 15.4578 13.5477C15.1841 13.4486 14.985 13.3991 14.7859 13.6968C14.5868 13.9939 14.015 14.6633 13.8407 14.8615C13.6666 15.0602 13.4923 15.085 13.1938 14.9363C12.8951 14.7872 11.9335 14.4737 10.7926 13.4611C9.90499 12.6732 9.30574 11.7002 9.13155 11.4026C8.95737 11.1054 9.1129 10.9443 9.26262 10.7962C9.39677 10.663 9.5613 10.4491 9.71074 10.2756C9.85962 10.102 9.9093 9.97814 10.0089 9.7799C10.1085 9.58148 10.0586 9.40788 9.98412 9.25921C9.9093 9.11053 9.32908 7.64046 9.06358 7.05275Z" fill="white"/>
<defs>
<linearGradient id="paint0_linear_85_372" x1="1158.85" y1="2317.46" x2="1158.85" y2="0.547852" gradientUnits="userSpaceOnUse">
<stop stop-color="#1FAF38"/>
<stop offset="1" stop-color="#60D669"/>
</linearGradient>
<linearGradient id="paint1_linear_85_372" x1="1200" y1="2400.13" x2="1200" y2="0.132324" gradientUnits="userSpaceOnUse">
<stop stop-color="#F9F9F9"/>
<stop offset="1" stop-color="white"/>
</linearGradient>
</defs>
</svg>
