<svg width="170" height="58" viewBox="0 0 170 58" fill="none" xmlns="http://www.w3.org/2000/svg">
<mask id="path-1-inside-1_85_127" fill="white">
<path fill-rule="evenodd" clip-rule="evenodd" d="M38.0035 43.6484C42.9029 41.0909 46.2518 35.928 46.2518 29.9754C46.2518 21.4798 39.4302 14.5928 31.0153 14.5928C22.6004 14.5928 15.7788 21.4798 15.7788 29.9754C15.7788 35.7182 18.8958 40.7259 23.5149 43.3683C23.6431 45.5327 25.4331 47.3901 27.7873 47.3901H33.7571C36.009 47.3901 37.7448 45.6905 38.0035 43.6484Z"/>
</mask>
<path fill-rule="evenodd" clip-rule="evenodd" d="M38.0035 43.6484C42.9029 41.0909 46.2518 35.928 46.2518 29.9754C46.2518 21.4798 39.4302 14.5928 31.0153 14.5928C22.6004 14.5928 15.7788 21.4798 15.7788 29.9754C15.7788 35.7182 18.8958 40.7259 23.5149 43.3683C23.6431 45.5327 25.4331 47.3901 27.7873 47.3901H33.7571C36.009 47.3901 37.7448 45.6905 38.0035 43.6484Z" fill="white"/>
<path d="M38.0035 43.6484L37.6142 42.9026L37.2241 43.1062L37.1688 43.5427L38.0035 43.6484ZM23.5149 43.3683L24.3547 43.3186L24.3278 42.8641L23.9327 42.6381L23.5149 43.3683ZM45.4105 29.9754C45.4105 35.6054 42.244 40.4858 37.6142 42.9026L38.3928 44.3942C43.5617 41.6959 47.093 36.2505 47.093 29.9754H45.4105ZM31.0153 15.4341C38.958 15.4341 45.4105 21.9369 45.4105 29.9754H47.093C47.093 21.0228 39.9023 13.7515 31.0153 13.7515V15.4341ZM16.6201 29.9754C16.6201 21.9369 23.0726 15.4341 31.0153 15.4341V13.7515C22.1282 13.7515 14.9375 21.0228 14.9375 29.9754H16.6201ZM23.9327 42.6381C19.5672 40.1408 16.6201 35.407 16.6201 29.9754H14.9375C14.9375 36.0294 18.2244 41.3111 23.0972 44.0986L23.9327 42.6381ZM27.7873 46.5488C25.9002 46.5488 24.4579 45.0605 24.3547 43.3186L22.6751 43.4181C22.8283 46.0049 24.9661 48.2313 27.7873 48.2313V46.5488ZM33.7571 46.5488H27.7873V48.2313H33.7571V46.5488ZM37.1688 43.5427C36.9604 45.1878 35.562 46.5488 33.7571 46.5488V48.2313C36.456 48.2313 38.5291 46.1931 38.8381 43.7541L37.1688 43.5427Z" fill="#3C8059" mask="url(#path-1-inside-1_85_127)"/>
<rect x="29.7366" y="1.23975" width="2.36696" height="9.25996" rx="1.18348" fill="white" stroke="#3C8059" stroke-width="0.841278"/>
<rect width="2.44369" height="7.03962" rx="1.22184" transform="matrix(0.651866 -0.758334 0.752138 0.659006 13.6348 11.8052)" fill="white" stroke="#3C8059" stroke-width="0.841278"/>
<rect width="2.44204" height="7.04436" rx="1.22102" transform="matrix(-0.703723 -0.710475 0.703723 -0.710475 43.1772 16.4927)" fill="white" stroke="#3C8059" stroke-width="0.841278"/>
<rect width="2.43621" height="7.06116" rx="1.2181" transform="matrix(0.863946 -0.503585 0.496423 0.868081 21.0808 6.01367)" fill="white" stroke="#3C8059" stroke-width="0.841278"/>
<rect width="2.43621" height="7.06116" rx="1.2181" transform="matrix(-0.863946 -0.503585 0.496423 -0.868081 37.2393 12.1436)" fill="white" stroke="#3C8059" stroke-width="0.841278"/>
<rect x="8.72949" y="23.1948" width="2.38967" height="7.10087" rx="1.19483" transform="rotate(-90 8.72949 23.1948)" fill="white" stroke="#3C8059" stroke-width="0.841278"/>
<rect width="2.53902" height="6.95294" rx="1.26951" transform="matrix(0 -1 -1 0 53.0737 23.1948)" fill="white" stroke="#3C8059" stroke-width="0.841278"/>
<path d="M54.4016 26.234L54.4016 26.234C53.7012 25.7036 52.6223 25.5858 51.2938 25.7905C49.9813 25.9926 48.5163 26.4956 47.1338 27.0868C45.755 27.6764 44.4769 28.3457 43.5422 28.8686C43.0753 29.1297 42.6952 29.3538 42.4322 29.5122C42.3008 29.5914 42.1987 29.6542 42.1298 29.697C42.0953 29.7184 42.0692 29.7347 42.0518 29.7457L42.0355 29.756L42.0219 29.7658C42.0067 29.7769 41.9831 29.7944 41.952 29.818C41.8898 29.8654 41.7975 29.9377 41.6808 30.0347C41.4474 30.2289 41.1173 30.5216 40.7371 30.911C39.9759 31.6905 39.0187 32.8528 38.2339 34.3827C36.6925 37.3875 35.7958 41.8453 38.4376 47.6878C43.7968 48.0535 47.5939 47.0133 50.2481 45.2551C52.9413 43.471 54.5011 40.9189 55.3134 38.2365C56.1271 35.5491 56.1862 32.7417 55.8809 30.4859C55.7284 29.3586 55.4862 28.3795 55.2084 27.6305C54.9218 26.8577 54.6232 26.4018 54.4016 26.234Z" fill="white" stroke="#3C8059" stroke-width="0.841278"/>
<path d="M52.3187 29.131L40.8796 44.7402L32.0488 53.6557L32.0488 30.2986L36.8628 25.4384" stroke="#3C8059" stroke-width="0.701065" stroke-linecap="round"/>
<path d="M48.0043 29.782V29.782C49.1947 29.6024 50.306 30.4325 50.484 31.6344V31.6344" stroke="#3C8059" stroke-width="0.701065" stroke-linecap="round"/>
<path d="M50.484 31.6346V31.6346C51.6744 31.4549 52.7858 32.285 52.9638 33.4869V33.4869" stroke="#3C8059" stroke-width="0.701065" stroke-linecap="round"/>
<path d="M46.6984 31.5652V31.5652C47.8888 31.3856 49.0001 32.2157 49.1781 33.4176V33.4176" stroke="#3C8059" stroke-width="0.701065" stroke-linecap="round"/>
<path d="M49.1779 33.4178V33.4178C50.3683 33.2381 51.4796 34.0682 51.6576 35.2701V35.2701" stroke="#3C8059" stroke-width="0.701065" stroke-linecap="round"/>
<path d="M45.3917 33.3475V33.3475C46.5822 33.1678 47.6935 33.9979 47.8715 35.1998V35.1998" stroke="#3C8059" stroke-width="0.701065" stroke-linecap="round"/>
<path d="M47.8715 35.2V35.2C49.0619 35.0203 50.1732 35.8505 50.3512 37.0523V37.0523" stroke="#3C8059" stroke-width="0.701065" stroke-linecap="round"/>
<path d="M44.0853 35.1307V35.1307C45.2758 34.951 46.3871 35.7811 46.5651 36.983V36.983" stroke="#3C8059" stroke-width="0.701065" stroke-linecap="round"/>
<path d="M46.5651 36.9832V36.9832C47.7555 36.8035 48.8668 37.6337 49.0448 38.8355V38.8355" stroke="#3C8059" stroke-width="0.701065" stroke-linecap="round"/>
<path d="M42.7782 36.9139V36.9139C43.9686 36.7342 45.08 37.5643 45.2579 38.7662V38.7662" stroke="#3C8059" stroke-width="0.701065" stroke-linecap="round"/>
<path d="M45.2579 38.7664V38.7664C46.4484 38.5867 47.5597 39.4169 47.7377 40.6187V40.6187" stroke="#3C8059" stroke-width="0.701065" stroke-linecap="round"/>
<path d="M41.4723 38.6961V38.6961C42.6627 38.5164 43.7741 39.3466 43.952 40.5484V40.5484" stroke="#3C8059" stroke-width="0.701065" stroke-linecap="round"/>
<path d="M43.9518 40.5486V40.5486C45.1422 40.369 46.2536 41.1991 46.4315 42.401V42.401" stroke="#3C8059" stroke-width="0.701065" stroke-linecap="round"/>
<path d="M40.1657 40.4793V40.4793C41.3561 40.2996 42.4674 41.1298 42.6454 42.3316V42.3316" stroke="#3C8059" stroke-width="0.701065" stroke-linecap="round"/>
<path d="M42.6454 42.3318V42.3318C43.8358 42.1522 44.9472 42.9823 45.1251 44.1842V44.1842" stroke="#3C8059" stroke-width="0.701065" stroke-linecap="round"/>
<path d="M7.54127 26.234L7.54127 26.234C8.24166 25.7036 9.32054 25.5858 10.649 25.7905C11.9616 25.9926 13.4265 26.4956 14.8091 27.0868C16.1879 27.6764 17.466 28.3457 18.4007 28.8686C18.8676 29.1297 19.2477 29.3538 19.5106 29.5122C19.6421 29.5914 19.7442 29.6542 19.8131 29.697C19.8475 29.7184 19.8737 29.7347 19.8911 29.7457L19.9074 29.756L19.921 29.7658C19.9362 29.7769 19.9598 29.7944 19.9909 29.818C20.053 29.8654 20.1454 29.9377 20.2621 30.0347C20.4955 30.2289 20.8256 30.5216 21.2058 30.911C21.9669 31.6905 22.9242 32.8528 23.709 34.3827C25.2504 37.3875 26.147 41.8453 23.5053 47.6878C18.1461 48.0535 14.349 47.0133 11.6948 45.2551C9.00155 43.471 7.44174 40.9189 6.6295 38.2365C5.81576 35.5491 5.75666 32.7417 6.06193 30.4859C6.21448 29.3586 6.45663 28.3795 6.73446 27.6305C7.02107 26.8577 7.31966 26.4018 7.54127 26.234Z" fill="white" stroke="#3C8059" stroke-width="0.841278"/>
<path d="M9.62566 29.131L21.0648 44.7402L29.8955 53.6557L29.8955 30.2986L25.0816 25.4384" stroke="#3C8059" stroke-width="0.701065" stroke-linecap="round"/>
<path d="M13.9396 29.7825V29.7825C12.7491 29.6028 11.6378 30.433 11.4598 31.6348V31.6348" stroke="#3C8059" stroke-width="0.701065" stroke-linecap="round"/>
<path d="M11.4601 31.6351V31.6351C10.2697 31.4554 9.15831 32.2855 8.98033 33.4874V33.4874" stroke="#3C8059" stroke-width="0.701065" stroke-linecap="round"/>
<path d="M15.2462 31.5652V31.5652C14.0558 31.3856 12.9444 32.2157 12.7665 33.4176V33.4176" stroke="#3C8059" stroke-width="0.701065" stroke-linecap="round"/>
<path d="M12.7665 33.4178V33.4178C11.576 33.2381 10.4647 34.0682 10.2867 35.2701V35.2701" stroke="#3C8059" stroke-width="0.701065" stroke-linecap="round"/>
<path d="M16.5526 33.3475V33.3475C15.3622 33.1678 14.2508 33.9979 14.0729 35.1998V35.1998" stroke="#3C8059" stroke-width="0.701065" stroke-linecap="round"/>
<path d="M14.0729 35.2V35.2C12.8824 35.0203 11.7711 35.8505 11.5931 37.0523V37.0523" stroke="#3C8059" stroke-width="0.701065" stroke-linecap="round"/>
<path d="M17.8592 35.1307V35.1307C16.6688 34.951 15.5575 35.7811 15.3795 36.983V36.983" stroke="#3C8059" stroke-width="0.701065" stroke-linecap="round"/>
<path d="M15.3795 36.9832V36.9832C14.1891 36.8035 13.0777 37.6337 12.8998 38.8355V38.8355" stroke="#3C8059" stroke-width="0.701065" stroke-linecap="round"/>
<path d="M19.1659 36.9139V36.9139C17.9755 36.7342 16.8641 37.5643 16.6861 38.7662V38.7662" stroke="#3C8059" stroke-width="0.701065" stroke-linecap="round"/>
<path d="M16.6862 38.7664V38.7664C15.4957 38.5867 14.3844 39.4169 14.2064 40.6187V40.6187" stroke="#3C8059" stroke-width="0.701065" stroke-linecap="round"/>
<path d="M20.473 38.6961V38.6961C19.2826 38.5164 18.1712 39.3466 17.9933 40.5484V40.5484" stroke="#3C8059" stroke-width="0.701065" stroke-linecap="round"/>
<path d="M17.9935 40.5486V40.5486C16.8031 40.369 15.6918 41.1991 15.5138 42.401V42.401" stroke="#3C8059" stroke-width="0.701065" stroke-linecap="round"/>
<path d="M21.7797 40.4793V40.4793C20.5892 40.2996 19.4779 41.1298 19.2999 42.3316V42.3316" stroke="#3C8059" stroke-width="0.701065" stroke-linecap="round"/>
<path d="M19.2999 42.3318V42.3318C18.1095 42.1522 16.9982 42.9823 16.8202 44.1842V44.1842" stroke="#3C8059" stroke-width="0.701065" stroke-linecap="round"/>
<mask id="path-42-inside-2_85_127" fill="white">
<path fill-rule="evenodd" clip-rule="evenodd" d="M36.2466 46.1963H26.335V53.4747C26.335 54.5958 27.212 55.5119 28.3174 55.5745V55.8917C28.3174 57.0532 29.259 57.9948 30.4206 57.9948H31.8308C32.9923 57.9948 33.934 57.0532 33.934 55.8917V55.5779H34.1434C35.305 55.5779 36.2466 54.6363 36.2466 53.4747V46.1963Z"/>
</mask>
<path fill-rule="evenodd" clip-rule="evenodd" d="M36.2466 46.1963H26.335V53.4747C26.335 54.5958 27.212 55.5119 28.3174 55.5745V55.8917C28.3174 57.0532 29.259 57.9948 30.4206 57.9948H31.8308C32.9923 57.9948 33.934 57.0532 33.934 55.8917V55.5779H34.1434C35.305 55.5779 36.2466 54.6363 36.2466 53.4747V46.1963Z" fill="white"/>
<path d="M26.335 46.1963V45.355H25.4937V46.1963H26.335ZM36.2466 46.1963H37.0879V45.355H36.2466V46.1963ZM28.3174 55.5745H29.1587V54.7795L28.3649 54.7346L28.3174 55.5745ZM33.934 55.5779V54.7366H33.0927V55.5779H33.934ZM26.335 47.0376H36.2466V45.355H26.335V47.0376ZM27.1762 53.4747V46.1963H25.4937V53.4747H27.1762ZM28.3649 54.7346C27.7025 54.6971 27.1762 54.1471 27.1762 53.4747H25.4937C25.4937 55.0445 26.7216 56.3268 28.2698 56.4144L28.3649 54.7346ZM29.1587 55.8917V55.5745H27.4761V55.8917H29.1587ZM30.4206 57.1536C29.7236 57.1536 29.1587 56.5886 29.1587 55.8917H27.4761C27.4761 57.5178 28.7944 58.8361 30.4206 58.8361V57.1536ZM31.8308 57.1536H30.4206V58.8361H31.8308V57.1536ZM33.0927 55.8917C33.0927 56.5886 32.5277 57.1536 31.8308 57.1536V58.8361C33.457 58.8361 34.7753 57.5178 34.7753 55.8917H33.0927ZM33.0927 55.5779V55.8917H34.7753V55.5779H33.0927ZM34.1434 54.7366H33.934V56.4192H34.1434V54.7366ZM35.4053 53.4747C35.4053 54.1717 34.8403 54.7366 34.1434 54.7366V56.4192C35.7696 56.4192 37.0879 55.1009 37.0879 53.4747H35.4053ZM35.4053 46.1963V53.4747H37.0879V46.1963H35.4053Z" fill="#3C8059" mask="url(#path-42-inside-2_85_127)"/>
<path d="M27.5664 49.6196H32.5482" stroke="#3C8059" stroke-width="0.701065" stroke-linecap="round"/>
<path d="M27.5664 51.6914H32.5482" stroke="#3C8059" stroke-width="0.701065" stroke-linecap="round"/>
<path d="M27.5664 53.7637H32.5482" stroke="#3C8059" stroke-width="0.701065" stroke-linecap="round"/>
<path d="M27.5664 47.8354H32.5482" stroke="#3C8059" stroke-width="0.701065" stroke-linecap="round"/>
<path d="M22.2873 22.9969V22.9969C23.4377 19.1386 27.4823 16.9448 31.304 18.1062V18.1062" stroke="#3C8059" stroke-width="1.58908" stroke-linecap="round"/>
<path fill-rule="evenodd" clip-rule="evenodd" d="M120.373 37.0134C123.117 37.0134 125.554 35.6505 127.085 33.5437H122.814C122.077 33.9144 121.248 34.1224 120.373 34.1224C118.079 34.1224 116.108 32.6946 115.245 30.6516H125.5C125.5 30.6519 125.5 30.6522 125.5 30.6525H128.46C128.49 30.5408 128.517 30.4283 128.543 30.3148C128.576 30.2429 128.594 30.163 128.594 30.0789V30.0742C128.704 29.5138 128.761 28.9338 128.761 28.3399C128.761 23.5497 125.006 19.6665 120.373 19.6665C115.74 19.6665 111.984 23.5497 111.984 28.3399C111.984 33.1301 115.74 37.0134 120.373 37.0134ZM125.709 26.604C124.996 24.2588 122.876 22.5578 120.373 22.5578C117.869 22.5578 115.75 24.2588 115.037 26.604H125.709Z" fill="white"/>
<path fill-rule="evenodd" clip-rule="evenodd" d="M139.902 37.0134C142.646 37.0134 145.083 35.6505 146.613 33.5437H142.343C141.605 33.9144 140.777 34.1224 139.901 34.1224C137.608 34.1224 135.637 32.6946 134.774 30.6516H145.029C145.029 30.6519 145.029 30.6522 145.029 30.6525H147.989C148.019 30.538 148.048 30.4225 148.074 30.3061C148.103 30.2379 148.12 30.1628 148.121 30.0839C148.232 29.5205 148.29 28.9373 148.29 28.3399C148.29 23.5497 144.535 19.6665 139.902 19.6665C135.269 19.6665 131.513 23.5497 131.513 28.3399C131.513 33.1301 135.269 37.0134 139.902 37.0134ZM145.237 26.604C144.524 24.2588 142.405 22.5578 139.901 22.5578C137.398 22.5578 135.279 24.2588 134.566 26.604H145.237Z" fill="white"/>
<path fill-rule="evenodd" clip-rule="evenodd" d="M73.4389 37.0098C78.9729 37.0098 83.5891 32.9465 84.649 27.5479H84.6375C84.6451 27.4996 84.6491 27.4501 84.6491 27.3996V24.3943H72.9341V28.3368H80.4306C79.2537 31.1214 76.5664 33.0673 73.4394 33.0673C69.2277 33.0673 65.8135 29.5371 65.8135 25.1824C65.8135 20.8276 69.2277 17.2974 73.4394 17.2974C76.854 17.2974 79.7445 19.6179 80.7162 22.8169H84.649C83.5891 17.4183 78.973 13.355 73.4389 13.355C67.1214 13.355 62 18.6503 62 25.1824C62 31.7145 67.1214 37.0098 73.4389 37.0098ZM84.8778 25.1824C84.8778 25.2134 84.8777 25.2443 84.8775 25.2752V25.0895C84.8777 25.1204 84.8778 25.1514 84.8778 25.1824Z" fill="white"/>
<path fill-rule="evenodd" clip-rule="evenodd" d="M97.2091 28.2652C101.64 30.5714 105.079 27.5929 105.079 27.5929C105.079 27.5929 109.271 23.6185 108.45 21.6278L108.45 21.6278C107.894 20.2789 99.8641 16.8043 96.5208 23.5387L96.0577 23.8364V20.5454H90.8982V37.0827H96.0577V29.3332C96.423 28.9557 96.8074 28.5993 97.2091 28.2652Z" fill="white"/>
<path fill-rule="evenodd" clip-rule="evenodd" d="M158.508 22.2509C158.433 19.6956 156.994 17.9893 156.994 17.9893C156.994 17.9893 153.073 13.742 151.098 14.5635L151.098 14.5635C149.784 15.11 146.414 22.9227 152.594 26.4246V36.993H157.754V28.6932L158.196 28.2873C159.771 26.8413 162.186 27.0344 163.528 28.5858V36.993H168.688V25.6153C168.688 22.766 166.378 20.4562 163.529 20.4557L163.529 20.4544C161.732 20.656 160.014 21.274 158.508 22.2509Z" fill="white"/>
<path d="M105.571 21.7557L96.8569 26.5423L94.1328 27.5326" stroke="#3C8059" stroke-width="0.361626" stroke-linecap="round"/>
<path d="M103.41 21.1138V21.1138C104.006 21.2914 104.346 21.9236 104.17 22.5249V22.5249" stroke="#3C8059" stroke-width="0.361627" stroke-linecap="round"/>
<path d="M104.17 22.5255V22.5255C104.765 22.703 105.106 23.3352 104.93 23.9366V23.9366" stroke="#3C8059" stroke-width="0.361627" stroke-linecap="round"/>
<path d="M102.415 21.6597V21.6597C103.011 21.8373 103.352 22.4695 103.176 23.0708V23.0708" stroke="#3C8059" stroke-width="0.361627" stroke-linecap="round"/>
<path d="M103.175 23.0714V23.0714C103.771 23.2489 104.111 23.8811 103.936 24.4825V24.4825" stroke="#3C8059" stroke-width="0.361627" stroke-linecap="round"/>
<path d="M101.421 22.2061V22.2061C102.017 22.3837 102.357 23.0159 102.181 23.6172V23.6172" stroke="#3C8059" stroke-width="0.361627" stroke-linecap="round"/>
<path d="M102.181 23.6177V23.6177C102.776 23.7953 103.117 24.4275 102.941 25.0288V25.0288" stroke="#3C8059" stroke-width="0.361627" stroke-linecap="round"/>
<path d="M100.426 22.752V22.752C101.022 22.9296 101.362 23.5618 101.186 24.1631V24.1631" stroke="#3C8059" stroke-width="0.361627" stroke-linecap="round"/>
<path d="M101.186 24.1636V24.1636C101.781 24.3412 102.122 24.9734 101.946 25.5747V25.5747" stroke="#3C8059" stroke-width="0.361627" stroke-linecap="round"/>
<path d="M99.4313 23.2999V23.2999C100.027 23.4774 100.368 24.1096 100.192 24.711V24.711" stroke="#3C8059" stroke-width="0.361627" stroke-linecap="round"/>
<path d="M100.191 24.711V24.711C100.786 24.8886 101.127 25.5208 100.951 26.1221V26.1221" stroke="#3C8059" stroke-width="0.361627" stroke-linecap="round"/>
<path d="M98.4362 23.8472V23.8472C99.0318 24.0248 99.3725 24.657 99.1966 25.2583V25.2583" stroke="#3C8059" stroke-width="0.361627" stroke-linecap="round"/>
<path d="M99.1959 25.2589V25.2589C99.7916 25.4364 100.132 26.0686 99.9564 26.67V26.67" stroke="#3C8059" stroke-width="0.361627" stroke-linecap="round"/>
<path d="M97.4418 24.3927V24.3927C98.0374 24.5702 98.3781 25.2024 98.2022 25.8037V25.8037" stroke="#3C8059" stroke-width="0.361627" stroke-linecap="round"/>
<path d="M98.2013 25.8043V25.8043C98.7969 25.9818 99.1376 26.614 98.9617 27.2154V27.2154" stroke="#3C8059" stroke-width="0.361627" stroke-linecap="round"/>
<path d="M151.502 17.3747L155.058 23.8672C155.826 25.2695 155.78 26.9814 154.939 28.3376V28.3376" stroke="#3C8059" stroke-width="0.361627" stroke-linecap="round"/>
<path d="M150.881 19.5603V19.5603C151.053 18.9571 151.676 18.6093 152.274 18.783V18.783" stroke="#3C8059" stroke-width="0.361627" stroke-linecap="round"/>
<path d="M152.274 18.7835V18.7835C152.446 18.1803 153.069 17.8325 153.666 18.0061V18.0061" stroke="#3C8059" stroke-width="0.361627" stroke-linecap="round"/>
<path d="M151.426 20.5603V20.5603C151.598 19.9571 152.221 19.6093 152.819 19.783V19.783" stroke="#3C8059" stroke-width="0.361627" stroke-linecap="round"/>
<path d="M152.819 19.7835V19.7835C152.991 19.1803 153.614 18.8325 154.212 19.0061V19.0061" stroke="#3C8059" stroke-width="0.361627" stroke-linecap="round"/>
<path d="M151.978 21.5618V21.5618C152.15 20.9586 152.773 20.6108 153.371 20.7844V20.7844" stroke="#3C8059" stroke-width="0.361627" stroke-linecap="round"/>
<path d="M153.371 20.7849V20.7849C153.543 20.1818 154.166 19.8339 154.764 20.0076V20.0076" stroke="#3C8059" stroke-width="0.361627" stroke-linecap="round"/>
<path d="M152.523 22.5623V22.5623C152.695 21.9591 153.318 21.6113 153.916 21.7849V21.7849" stroke="#3C8059" stroke-width="0.361627" stroke-linecap="round"/>
<path d="M153.916 21.7854V21.7854C154.088 21.1822 154.711 20.8344 155.308 21.0081V21.0081" stroke="#3C8059" stroke-width="0.361627" stroke-linecap="round"/>
<path d="M153.073 23.5623V23.5623C153.245 22.9591 153.868 22.6113 154.466 22.7849V22.7849" stroke="#3C8059" stroke-width="0.361627" stroke-linecap="round"/>
<path d="M154.466 22.7854V22.7854C154.638 22.1822 155.261 21.8344 155.858 22.0081V22.0081" stroke="#3C8059" stroke-width="0.361627" stroke-linecap="round"/>
<path d="M153.622 24.5642V24.5642C153.794 23.961 154.417 23.6132 155.014 23.7869V23.7869" stroke="#3C8059" stroke-width="0.361627" stroke-linecap="round"/>
<path d="M155.014 23.7869V23.7869C155.186 23.1837 155.809 22.8359 156.407 23.0095V23.0095" stroke="#3C8059" stroke-width="0.361627" stroke-linecap="round"/>
<path d="M154.17 25.5657V25.5657C154.342 24.9625 154.965 24.6147 155.562 24.7884V24.7884" stroke="#3C8059" stroke-width="0.361627" stroke-linecap="round"/>
<path d="M155.562 24.7893V24.7893C155.734 24.1861 156.357 23.8383 156.955 24.012V24.012" stroke="#3C8059" stroke-width="0.361627" stroke-linecap="round"/>
<path fill-rule="evenodd" clip-rule="evenodd" d="M147.819 57.5379C149.955 57.5379 151.851 56.4775 153.042 54.8382H149.719C149.145 55.1267 148.5 55.2885 147.819 55.2885C146.034 55.2885 144.5 54.1777 143.829 52.5883H151.809C151.809 52.5883 151.809 52.5884 151.808 52.5885H154.112C154.136 52.4998 154.158 52.4104 154.178 52.3204C154.202 52.2668 154.215 52.2077 154.215 52.1456C154.302 51.7073 154.347 51.2535 154.347 50.7887C154.347 47.0613 151.425 44.0396 147.819 44.0396C144.214 44.0396 141.292 47.0613 141.292 50.7887C141.292 54.5162 144.214 57.5379 147.819 57.5379ZM151.971 49.4386C151.416 47.6134 149.767 46.2895 147.819 46.2895C145.87 46.2895 144.221 47.6134 143.666 49.4386H151.971Z" fill="white"/>
<path fill-rule="evenodd" clip-rule="evenodd" d="M130.744 57.7839C135.05 57.7839 138.642 54.6221 139.467 50.4212H139.458C139.464 50.3836 139.467 50.3449 139.467 50.3056V47.967H130.351V51.0348H136.184C135.268 53.2017 133.177 54.716 130.744 54.716C127.467 54.716 124.81 51.9689 124.81 48.5803C124.81 45.1917 127.467 42.4447 130.744 42.4447C133.401 42.4447 135.65 44.2504 136.406 46.7398H139.467C138.642 42.5389 135.05 39.377 130.744 39.377C125.828 39.377 121.843 43.4975 121.843 48.5804C121.843 53.6633 125.828 57.7839 130.744 57.7839ZM139.645 48.5804L139.645 48.6466V48.5143L139.645 48.5804Z" fill="white"/>
<path fill-rule="evenodd" clip-rule="evenodd" d="M161.38 46.0555C161.323 44.0661 160.202 42.7376 160.202 42.7376C160.202 42.7376 157.151 39.4326 155.615 40.0718L155.615 40.0718C154.592 40.4971 151.969 46.5765 156.779 49.3015V57.5266H160.794V51.0685L161.138 50.7526C162.364 49.6273 164.243 49.7777 165.288 50.9854V57.5266H169.302V48.673C169.302 46.4557 167.505 44.6582 165.288 44.6581L165.288 44.6575C163.89 44.8144 162.553 45.2953 161.38 46.0555Z" fill="white"/>
<path d="M155.931 42.2588L158.698 47.311C159.296 48.4021 159.26 49.7342 158.606 50.7895V50.7895" stroke="#3C8059" stroke-width="0.281399" stroke-linecap="round"/>
<path d="M155.448 43.9601V43.9601C155.582 43.4907 156.067 43.22 156.532 43.3552V43.3552" stroke="#3C8059" stroke-width="0.281399" stroke-linecap="round"/>
<path d="M156.532 43.3556V43.3556C156.666 42.8862 157.15 42.6155 157.615 42.7507V42.7507" stroke="#3C8059" stroke-width="0.281399" stroke-linecap="round"/>
<path d="M155.874 44.7379V44.7379C156.008 44.2685 156.493 43.9979 156.958 44.133V44.133" stroke="#3C8059" stroke-width="0.281399" stroke-linecap="round"/>
<path d="M156.957 44.1334V44.1334C157.091 43.664 157.576 43.3934 158.041 43.5285V43.5285" stroke="#3C8059" stroke-width="0.281399" stroke-linecap="round"/>
<path d="M156.303 45.5167V45.5167C156.437 45.0473 156.922 44.7767 157.387 44.9118V44.9118" stroke="#3C8059" stroke-width="0.281399" stroke-linecap="round"/>
<path d="M157.386 44.9122V44.9122C157.52 44.4428 158.005 44.1722 158.47 44.3073V44.3073" stroke="#3C8059" stroke-width="0.281399" stroke-linecap="round"/>
<path d="M156.728 46.2955V46.2955C156.861 45.8261 157.346 45.5555 157.811 45.6906V45.6906" stroke="#3C8059" stroke-width="0.281399" stroke-linecap="round"/>
<path d="M157.811 45.691V45.691C157.944 45.2216 158.429 44.951 158.894 45.0861V45.0861" stroke="#3C8059" stroke-width="0.281399" stroke-linecap="round"/>
<path d="M157.156 47.0743V47.0743C157.29 46.6049 157.775 46.3343 158.24 46.4694V46.4694" stroke="#3C8059" stroke-width="0.281399" stroke-linecap="round"/>
<path d="M158.239 46.4698V46.4698C158.373 46.0004 158.858 45.7298 159.323 45.8649V45.8649" stroke="#3C8059" stroke-width="0.281399" stroke-linecap="round"/>
<path d="M157.582 47.8536V47.8536C157.716 47.3842 158.2 47.1136 158.665 47.2487V47.2487" stroke="#3C8059" stroke-width="0.281399" stroke-linecap="round"/>
<path d="M158.665 47.2491V47.2491C158.799 46.7797 159.283 46.5091 159.748 46.6442V46.6442" stroke="#3C8059" stroke-width="0.281399" stroke-linecap="round"/>
<path d="M158.007 48.6329V48.6329C158.141 48.1635 158.625 47.8929 159.09 48.028V48.028" stroke="#3C8059" stroke-width="0.281399" stroke-linecap="round"/>
<path d="M159.09 48.0294V48.0294C159.224 47.56 159.708 47.2894 160.173 47.4245V47.4245" stroke="#3C8059" stroke-width="0.281399" stroke-linecap="round"/>
</svg>
