<svg width="265" height="89" viewBox="0 0 265 89" fill="none" xmlns="http://www.w3.org/2000/svg">
<rect x="43.3604" y="0.661865" width="4.03358" height="15.8871" rx="2.01679" fill="#CDA000"/>
<rect width="4.1806" height="12.0318" rx="2.0903" transform="matrix(0.64933 -0.760507 0.749925 0.661523 12.2275 22.0988)" fill="#CDA000"/>
<rect width="4.17581" height="12.0456" rx="2.0879" transform="matrix(-0.701318 -0.712849 0.701318 -0.712849 66.6445 28.0479)" fill="#CDA000"/>
<rect width="4.15875" height="12.0946" rx="2.07937" transform="matrix(0.862459 -0.506128 0.493897 0.86952 25.3984 10.0699)" fill="#CDA000"/>
<rect width="4.15875" height="12.0946" rx="2.07937" transform="matrix(-0.862459 -0.506128 0.493897 -0.86952 58.9209 20.5856)" fill="#CDA000"/>
<rect x="6.2373" y="44.4153" width="4.0999" height="12.1007" rx="2.04995" transform="rotate(-90 6.2373 44.4153)" fill="#CDA000"/>
<rect width="4.35614" height="11.8486" rx="2.17807" transform="matrix(0 -1 -1 0 81.8047 44.4153)" fill="#CDA000"/>
<rect x="46.0059" y="85.7986" width="4.03358" height="15.8871" rx="2.01679" transform="rotate(180 46.0059 85.7986)" fill="#CDA000"/>
<rect width="4.1806" height="12.0318" rx="2.0903" transform="matrix(-0.64933 0.760507 -0.749925 -0.661523 75.4561 68.2616)" fill="#CDA000"/>
<rect width="4.17581" height="12.0456" rx="2.0879" transform="matrix(0.701318 0.712849 -0.701318 0.712849 20.6748 59.0854)" fill="#CDA000"/>
<rect width="4.15875" height="12.0946" rx="2.07937" transform="matrix(-0.862459 0.506128 -0.493897 -0.86952 60.7559 77.6078)" fill="#CDA000"/>
<rect width="4.15875" height="12.0946" rx="2.07937" transform="matrix(0.862459 0.506128 -0.493897 0.86952 33.2236 67.092)" fill="#CDA000"/>
<path d="M69.1424 44.6572C69.1424 58.696 57.95 70.0488 44.1777 70.0488C30.4053 70.0488 19.2129 58.696 19.2129 44.6572C19.2129 30.6183 30.4053 19.2655 44.1777 19.2655C57.95 19.2655 69.1424 30.6183 69.1424 44.6572Z" fill="#FFCD1C" fill-opacity="0.76" stroke="white" stroke-width="2"/>
<path d="M30.9684 32.6845V32.6845C32.9266 26.0721 39.8285 22.3032 46.3338 24.2936V24.2936" stroke="white" stroke-width="2.70798" stroke-linecap="round"/>
<g filter="url(#filter0_d_67_1533)">
<path d="M38.1473 40.8076C38.1473 40.8076 53.9855 52.0057 44.3511 72.8688C6.48124 75.7501 11.8256 38.1617 16.2489 34.7891L16.2488 34.7892C21.9648 30.431 38.1473 40.8076 38.1473 40.8076Z" fill="#74A435"/>
<path d="M38.1473 40.8076L38.9975 39.5723L38.9704 39.5531L38.9424 39.5352L38.1473 40.8076ZM38.1473 40.8076C38.9975 39.5723 38.9983 39.5729 38.9991 39.5734L39.001 39.5748L39.0059 39.5783L39.0201 39.5884C39.0314 39.5966 39.0464 39.6075 39.065 39.6212C39.1023 39.6486 39.154 39.6872 39.2188 39.7368C39.3483 39.8361 39.5304 39.9799 39.7548 40.1678C40.2033 40.5434 40.8224 41.0969 41.5294 41.8259C42.9408 43.2812 44.7177 45.452 46.1786 48.319C49.1301 54.1115 50.7182 62.6181 45.692 73.5022L45.3225 74.3025L44.4554 74.3684C34.752 75.1067 27.6384 73.2638 22.5446 69.8667C17.4463 66.4665 14.5245 61.6113 13.023 56.6191C11.5268 51.6442 11.4261 46.4953 11.9805 42.3701C12.2581 40.3054 12.7046 38.4596 13.2459 36.9904C13.756 35.6058 14.4449 34.2878 15.3625 33.5881L15.3625 33.5881C17.2814 32.125 19.8732 32.0261 22.3119 32.4043C24.8075 32.7913 27.4951 33.733 29.925 34.7792C32.368 35.8309 34.618 37.018 36.2525 37.9386C37.0714 38.3997 37.7396 38.7962 38.2049 39.0785C38.4376 39.2196 38.6197 39.3324 38.7447 39.4105C38.8073 39.4496 38.8556 39.48 38.8888 39.5011L38.9272 39.5254L38.9377 39.5322L38.9408 39.5341L38.9417 39.5348C38.9421 39.535 38.9424 39.5352 38.1473 40.8076Z" stroke="#316127" stroke-width="2.98541"/>
</g>
<path d="M19.6408 40.1618L42.8924 71.0943C43.0419 71.2932 43.3558 71.1844 43.3558 70.9336V70.9336" stroke="white" stroke-width="1.1947" stroke-linecap="round"/>
<path d="M26.9852 41.2828V41.2828C24.9577 40.9747 23.0625 42.3999 22.7594 44.4607V44.4607" stroke="white" stroke-width="1.1947" stroke-linecap="round"/>
<path d="M22.7586 44.4612V44.4612C20.7311 44.1531 18.8359 45.5784 18.5328 47.6392V47.6392" stroke="white" stroke-width="1.1947" stroke-linecap="round"/>
<path d="M29.2098 44.3423V44.3423C27.1823 44.0342 25.2871 45.4595 24.984 47.5203V47.5203" stroke="white" stroke-width="1.1947" stroke-linecap="round"/>
<path d="M24.9842 47.5204V47.5204C22.9567 47.2123 21.0615 48.6376 20.7584 50.6983V50.6983" stroke="white" stroke-width="1.1947" stroke-linecap="round"/>
<path d="M31.4412 47.3995V47.3995C29.4138 47.0914 27.5185 48.5167 27.2154 50.5775V50.5775" stroke="white" stroke-width="1.1947" stroke-linecap="round"/>
<path d="M27.2156 50.5775V50.5775C25.1882 50.2694 23.293 51.6946 22.9898 53.7554V53.7554" stroke="white" stroke-width="1.1947" stroke-linecap="round"/>
<path d="M33.6639 50.4589V50.4589C31.6364 50.1508 29.7412 51.5761 29.4381 53.6369V53.6369" stroke="white" stroke-width="1.1947" stroke-linecap="round"/>
<path d="M29.4373 53.637V53.637C27.4099 53.3289 25.5146 54.7542 25.2115 56.8149V56.8149" stroke="white" stroke-width="1.1947" stroke-linecap="round"/>
<path d="M35.8924 53.5187V53.5187C33.8649 53.2106 31.9697 54.6359 31.6666 56.6967V56.6967" stroke="white" stroke-width="1.1947" stroke-linecap="round"/>
<path d="M31.6668 56.6967V56.6967C29.6393 56.3886 27.7441 57.8139 27.441 59.8747V59.8747" stroke="white" stroke-width="1.1947" stroke-linecap="round"/>
<path d="M38.1189 56.5758V56.5758C36.0915 56.2677 34.1963 57.693 33.8932 59.7537V59.7537" stroke="white" stroke-width="1.1947" stroke-linecap="round"/>
<path d="M33.8934 59.7536V59.7536C31.8659 59.4455 29.9707 60.8708 29.6676 62.9316V62.9316" stroke="white" stroke-width="1.1947" stroke-linecap="round"/>
<path d="M40.3426 59.6351V59.6351C38.3151 59.327 36.4199 60.7523 36.1168 62.8131V62.8131" stroke="white" stroke-width="1.1947" stroke-linecap="round"/>
<path d="M36.116 62.8131V62.8131C34.0886 62.505 32.1933 63.9303 31.8902 65.9911V65.9911" stroke="white" stroke-width="1.1947" stroke-linecap="round"/>
<g filter="url(#filter1_d_67_1533)">
<path d="M50.0314 40.8076C50.0314 40.8076 34.1932 52.0057 43.8276 72.8688C81.6975 75.7501 76.3531 38.1617 71.9298 34.7891L71.9299 34.7892C66.2139 30.431 50.0314 40.8076 50.0314 40.8076Z" fill="#74A435"/>
<path d="M50.0314 40.8076L49.1812 39.5723L49.2083 39.5531L49.2364 39.5352L50.0314 40.8076ZM50.0314 40.8076C49.1812 39.5723 49.1804 39.5729 49.1796 39.5734L49.1777 39.5748L49.1728 39.5783L49.1587 39.5884C49.1474 39.5966 49.1323 39.6075 49.1137 39.6212C49.0764 39.6486 49.0247 39.6872 48.9599 39.7368C48.8304 39.8361 48.6483 39.9799 48.4239 40.1678C47.9755 40.5434 47.3563 41.0969 46.6493 41.8259C45.2379 43.2812 43.461 45.452 42.0001 48.319C39.0486 54.1115 37.4605 62.6181 42.4867 73.5022L42.8563 74.3025L43.7233 74.3684C53.4267 75.1067 60.5403 73.2638 65.6341 69.8667C70.7324 66.4665 73.6542 61.6113 75.1557 56.6191C76.6519 51.6442 76.7526 46.4953 76.1982 42.3701C75.9207 40.3054 75.4741 38.4596 74.9328 36.9904C74.4227 35.6058 73.7338 34.2878 72.8162 33.5881L72.8162 33.5881C70.8973 32.125 68.3055 32.0261 65.8668 32.4043C63.3712 32.7913 60.6836 33.733 58.2537 34.7792C55.8107 35.8309 53.5608 37.018 51.9262 37.9386C51.1073 38.3997 50.4391 38.7962 49.9738 39.0785C49.7411 39.2196 49.559 39.3324 49.434 39.4105C49.3714 39.4496 49.3232 39.48 49.29 39.5011L49.2516 39.5254L49.241 39.5322L49.2379 39.5341L49.237 39.5348C49.2366 39.535 49.2364 39.5352 50.0314 40.8076Z" stroke="#316127" stroke-width="2.98541"/>
</g>
<path d="M67.584 40.1657L44.385 72.4882" stroke="white" stroke-width="1.1947" stroke-linecap="round"/>
<path d="M60.2346 41.2828V41.2828C62.262 40.9747 64.1572 42.4 64.4604 44.4607V44.4607" stroke="white" stroke-width="1.1947" stroke-linecap="round"/>
<path d="M64.4572 44.4608V44.4608C66.4847 44.1527 68.3799 45.578 68.683 47.6388V47.6388" stroke="white" stroke-width="1.1947" stroke-linecap="round"/>
<path d="M58.0051 44.3423V44.3423C60.0325 44.0342 61.9277 45.4595 62.2309 47.5202V47.5202" stroke="white" stroke-width="1.1947" stroke-linecap="round"/>
<path d="M62.2297 47.5203V47.5203C64.2571 47.2122 66.1524 48.6375 66.4555 50.6983V50.6983" stroke="white" stroke-width="1.1947" stroke-linecap="round"/>
<path d="M55.7775 47.3997V47.3997C57.805 47.0916 59.7002 48.5169 60.0033 50.5777V50.5777" stroke="white" stroke-width="1.1947" stroke-linecap="round"/>
<path d="M60.0031 50.5777V50.5777C62.0306 50.2696 63.9258 51.6949 64.2289 53.7557V53.7557" stroke="white" stroke-width="1.1947" stroke-linecap="round"/>
<path d="M53.5539 50.4594V50.4594C55.5814 50.1513 57.4766 51.5766 57.7797 53.6374V53.6374" stroke="white" stroke-width="1.1947" stroke-linecap="round"/>
<path d="M57.7795 53.6374V53.6374C59.8069 53.3293 61.7022 54.7546 62.0053 56.8154V56.8154" stroke="white" stroke-width="1.1947" stroke-linecap="round"/>
<path d="M51.3234 53.5186V53.5186C53.3509 53.2105 55.2461 54.6357 55.5492 56.6965V56.6965" stroke="white" stroke-width="1.1947" stroke-linecap="round"/>
<path d="M55.549 56.6966V56.6966C57.5765 56.3884 59.4717 57.8137 59.7748 59.8745V59.8745" stroke="white" stroke-width="1.1947" stroke-linecap="round"/>
<path d="M49.1008 56.5761V56.5761C51.1282 56.268 53.0234 57.6933 53.3266 59.7541V59.7541" stroke="white" stroke-width="1.1947" stroke-linecap="round"/>
<path d="M53.3264 59.754V59.754C55.3538 59.4459 57.249 60.8712 57.5522 62.932V62.932" stroke="white" stroke-width="1.1947" stroke-linecap="round"/>
<path d="M46.8742 59.6354V59.6354C48.9017 59.3273 50.7969 60.7526 51.1 62.8134V62.8134" stroke="white" stroke-width="1.1947" stroke-linecap="round"/>
<path d="M51.0998 62.8132V62.8132C53.1273 62.5051 55.0225 63.9304 55.3256 65.9912V65.9912" stroke="white" stroke-width="1.1947" stroke-linecap="round"/>
<path fill-rule="evenodd" clip-rule="evenodd" d="M155.631 44.7907C158.742 44.7907 161.503 43.216 163.237 40.7817H158.399C157.563 41.2102 156.624 41.4505 155.632 41.4505C153.032 41.4505 150.798 39.8007 149.821 37.4403H161.443C161.442 37.4406 161.442 37.4409 161.442 37.4413H164.796C164.829 37.317 164.859 37.1917 164.887 37.0655C164.926 36.9822 164.948 36.8892 164.948 36.7912V36.7732C165.072 36.1257 165.138 35.4555 165.138 34.7693C165.138 29.2346 160.882 24.7479 155.631 24.7479C150.381 24.7479 146.125 29.2346 146.125 34.7693C146.125 40.3039 150.381 44.7907 155.631 44.7907ZM161.679 32.7636C160.871 30.054 158.469 28.0887 155.632 28.0887C152.794 28.0887 150.393 30.054 149.585 32.7636H161.679Z" fill="white"/>
<path fill-rule="evenodd" clip-rule="evenodd" d="M177.758 44.7907C180.869 44.7907 183.63 43.216 185.364 40.7818H180.524C179.688 41.2102 178.749 41.4505 177.757 41.4505C175.158 41.4505 172.924 39.8007 171.946 37.4403H183.568C183.568 37.4406 183.568 37.441 183.567 37.4413H186.923C186.956 37.3168 186.986 37.1914 187.014 37.065C187.053 36.9818 187.075 36.8891 187.075 36.7912V36.7737C187.199 36.1261 187.265 35.4557 187.265 34.7693C187.265 29.2346 183.009 24.7479 177.758 24.7479C172.508 24.7479 168.252 29.2346 168.252 34.7693C168.252 40.3039 172.508 44.7907 177.758 44.7907ZM183.804 32.7636C182.996 30.054 180.594 28.0887 177.757 28.0887C174.92 28.0887 172.518 30.054 171.71 32.7636H183.804Z" fill="white"/>
<path fill-rule="evenodd" clip-rule="evenodd" d="M102.44 44.7868C108.711 44.7868 113.943 40.092 115.144 33.8544H115.135C115.142 33.8052 115.145 33.7549 115.145 33.7038V30.2107H101.869V34.7659H110.363C109.029 37.9833 105.984 40.2317 102.44 40.2317C97.6671 40.2317 93.7979 36.1528 93.7979 31.1213C93.7979 26.0898 97.6671 22.011 102.44 22.011C106.31 22.011 109.585 24.6921 110.687 28.3882H115.144C113.943 22.1506 108.711 17.4558 102.44 17.4558C95.2804 17.4558 89.4766 23.5741 89.4766 31.1213C89.4766 38.6686 95.2804 44.7868 102.44 44.7868Z" fill="white"/>
<path fill-rule="evenodd" clip-rule="evenodd" d="M129.38 34.6822C134.402 37.3484 138.3 33.9062 138.3 33.9062C138.3 33.9062 143.051 29.3142 142.12 27.014L142.12 27.0141C141.49 25.4557 132.393 21.442 128.603 29.219L128.074 29.5659V25.7635H122.227V44.8709H128.074V35.917C128.488 35.4805 128.924 35.0684 129.38 34.6822Z" fill="white"/>
<path fill-rule="evenodd" clip-rule="evenodd" d="M198.849 27.7338C198.764 24.7815 197.133 22.8102 197.133 22.8102C197.133 22.8102 192.69 17.9028 190.452 18.852L190.452 18.852C188.963 19.4835 185.143 28.5101 192.147 32.5563V44.7676H197.994V35.1762L198.459 34.7412C200.26 33.0556 203.016 33.2663 204.539 35.0584V44.7676H210.386V31.5073C210.386 28.278 207.768 25.6602 204.539 25.6602V25.7039L204.537 25.6587C202.504 25.8914 200.556 26.6055 198.849 27.7338Z" fill="white"/>
<path d="M138.855 27.1617L128.979 32.6923L125.892 33.8365" stroke="#316127" stroke-width="0.409817" stroke-linecap="round"/>
<path d="M136.406 26.4203V26.4203C137.081 26.6253 137.467 27.3567 137.268 28.0507V28.0507" stroke="#316127" stroke-width="0.409817" stroke-linecap="round"/>
<path d="M137.268 28.0511V28.0511C137.942 28.2561 138.328 28.9875 138.129 29.6815V29.6815" stroke="#316127" stroke-width="0.409817" stroke-linecap="round"/>
<path d="M135.279 27.0507V27.0507C135.954 27.2557 136.34 27.9871 136.141 28.6811V28.6811" stroke="#316127" stroke-width="0.409817" stroke-linecap="round"/>
<path d="M136.141 28.6815V28.6815C136.815 28.8865 137.202 29.6178 137.002 30.3119V30.3119" stroke="#316127" stroke-width="0.409817" stroke-linecap="round"/>
<path d="M134.152 27.6821V27.6821C134.827 27.887 135.213 28.6184 135.014 29.3125V29.3125" stroke="#316127" stroke-width="0.409817" stroke-linecap="round"/>
<path d="M135.014 29.3129V29.3129C135.688 29.5178 136.075 30.2492 135.875 30.9433V30.9433" stroke="#316127" stroke-width="0.409817" stroke-linecap="round"/>
<path d="M133.025 28.3128V28.3128C133.7 28.5177 134.086 29.2491 133.887 29.9432V29.9432" stroke="#316127" stroke-width="0.409817" stroke-linecap="round"/>
<path d="M133.887 29.9435V29.9435C134.561 30.1485 134.948 30.8799 134.749 31.5739V31.5739" stroke="#316127" stroke-width="0.409817" stroke-linecap="round"/>
<path d="M131.897 28.9459V28.9459C132.572 29.1509 132.958 29.8823 132.759 30.5763V30.5763" stroke="#316127" stroke-width="0.409817" stroke-linecap="round"/>
<path d="M132.759 30.5763V30.5763C133.433 30.7813 133.82 31.5127 133.621 32.2067V32.2067" stroke="#316127" stroke-width="0.409817" stroke-linecap="round"/>
<path d="M130.771 29.5784V29.5784C131.445 29.7833 131.831 30.5147 131.632 31.2088V31.2088" stroke="#316127" stroke-width="0.409817" stroke-linecap="round"/>
<path d="M131.632 31.2091V31.2091C132.306 31.4141 132.693 32.1455 132.494 32.8395V32.8395" stroke="#316127" stroke-width="0.409817" stroke-linecap="round"/>
<path d="M129.644 30.2086V30.2086C130.318 30.4136 130.704 31.145 130.505 31.839V31.839" stroke="#316127" stroke-width="0.409817" stroke-linecap="round"/>
<path d="M130.505 31.8394V31.8394C131.179 32.0444 131.566 32.7758 131.367 33.4698V33.4698" stroke="#316127" stroke-width="0.409817" stroke-linecap="round"/>
<path d="M190.908 22.0999L194.934 29.594C195.807 31.2183 195.757 33.1999 194.804 34.7665V34.7665" stroke="#316127" stroke-width="0.409817" stroke-linecap="round"/>
<path d="M190.207 24.6255V24.6255C190.402 23.9278 191.107 23.5265 191.785 23.7274V23.7274" stroke="#316127" stroke-width="0.409817" stroke-linecap="round"/>
<path d="M191.786 23.7278V23.7278C191.981 23.0302 192.686 22.6288 193.364 22.8297V22.8297" stroke="#316127" stroke-width="0.409817" stroke-linecap="round"/>
<path d="M190.825 25.7805V25.7805C191.02 25.0829 191.725 24.6815 192.403 24.8824V24.8824" stroke="#316127" stroke-width="0.409817" stroke-linecap="round"/>
<path d="M192.404 24.8829V24.8829C192.599 24.1852 193.304 23.7839 193.982 23.9847V23.9847" stroke="#316127" stroke-width="0.409817" stroke-linecap="round"/>
<path d="M191.451 26.9378V26.9378C191.646 26.2401 192.351 25.8388 193.029 26.0396V26.0396" stroke="#316127" stroke-width="0.409817" stroke-linecap="round"/>
<path d="M193.029 26.0401V26.0401C193.224 25.3424 193.929 24.9411 194.607 25.1419V25.1419" stroke="#316127" stroke-width="0.409817" stroke-linecap="round"/>
<path d="M192.066 28.0937V28.0937C192.261 27.396 192.966 26.9947 193.644 27.1956V27.1956" stroke="#316127" stroke-width="0.409817" stroke-linecap="round"/>
<path d="M193.645 27.196V27.196C193.84 26.4983 194.545 26.097 195.223 26.2979V26.2979" stroke="#316127" stroke-width="0.409817" stroke-linecap="round"/>
<path d="M192.69 29.249V29.249C192.885 28.5513 193.59 28.15 194.268 28.3508V28.3508" stroke="#316127" stroke-width="0.409817" stroke-linecap="round"/>
<path d="M194.269 28.3513V28.3513C194.464 27.6537 195.17 27.2523 195.847 27.4532V27.4532" stroke="#316127" stroke-width="0.409817" stroke-linecap="round"/>
<path d="M193.31 30.4069V30.4069C193.505 29.7092 194.211 29.3079 194.888 29.5087V29.5087" stroke="#316127" stroke-width="0.409817" stroke-linecap="round"/>
<path d="M194.889 29.5089V29.5089C195.085 28.8112 195.79 28.4099 196.467 28.6107V28.6107" stroke="#316127" stroke-width="0.409817" stroke-linecap="round"/>
<path d="M193.934 31.5639V31.5639C194.129 30.8662 194.835 30.4649 195.512 30.6657V30.6657" stroke="#316127" stroke-width="0.409817" stroke-linecap="round"/>
<path d="M195.513 30.6671V30.6671C195.709 29.9694 196.414 29.5681 197.091 29.7689V29.7689" stroke="#316127" stroke-width="0.409817" stroke-linecap="round"/>
<path fill-rule="evenodd" clip-rule="evenodd" d="M155.934 70.7199C158.355 70.7199 160.503 69.4488 161.853 67.4836H158.088C157.437 67.8294 156.707 68.0233 155.935 68.0233C153.912 68.0233 152.174 66.6917 151.413 64.7864H160.456C160.456 64.7865 160.456 64.7866 160.456 64.7867H163.066C163.09 64.6928 163.112 64.5983 163.132 64.5031C163.165 64.4362 163.184 64.3609 163.184 64.2813V64.2488C163.281 63.7255 163.332 63.1839 163.332 62.6292C163.332 58.1608 160.02 54.5384 155.934 54.5384C151.849 54.5384 148.537 58.1608 148.537 62.6292C148.537 67.0976 151.849 70.7199 155.934 70.7199ZM160.64 61.0107C160.012 58.8227 158.143 57.2356 155.935 57.2356C153.727 57.2356 151.858 58.8227 151.229 61.0107H160.64Z" fill="white"/>
<path fill-rule="evenodd" clip-rule="evenodd" d="M136.588 71.0146C141.468 71.0146 145.539 67.2243 146.474 62.1884H146.468C146.471 62.1586 146.473 62.1283 146.473 62.0976V59.2464H136.142V62.9241H142.752C141.714 65.5216 139.344 67.3369 136.586 67.3369C132.872 67.3369 129.862 64.0439 129.862 59.9817C129.862 55.9195 132.872 52.6265 136.586 52.6265C139.598 52.6265 142.147 54.7911 143.004 57.7753H146.474C145.539 52.7393 141.468 48.9489 136.588 48.9489C131.017 48.9489 126.501 53.8885 126.501 59.9818C126.501 66.0751 131.017 71.0146 136.588 71.0146ZM146.676 59.9818C146.676 60.0332 146.675 60.0845 146.675 60.1357V59.8279C146.675 59.8791 146.676 59.9304 146.676 59.9818Z" fill="white"/>
<path fill-rule="evenodd" clip-rule="evenodd" d="M171.304 56.9568C171.24 54.5709 169.969 52.9774 169.969 52.9774C169.969 52.9774 166.512 49.0154 164.77 49.7818L164.77 49.7818C163.612 50.2916 160.639 57.5799 166.09 60.8464V70.7061H170.64V62.9645L170.952 62.6618C172.375 61.2802 174.543 61.4281 175.733 62.867V70.7061H180.282V59.8297C180.282 57.317 178.246 55.2801 175.733 55.2798L175.733 55.279C174.153 55.4666 172.636 56.0446 171.304 56.9568Z" fill="white"/>
<path d="M165.127 52.4041L168.254 58.443C168.936 59.7609 168.9 61.3664 168.158 62.6305V62.6305" stroke="#316127" stroke-width="0.318898" stroke-linecap="round"/>
<path d="M164.582 54.4435V54.4435C164.734 53.8791 165.281 53.5559 165.81 53.7184V53.7184" stroke="#316127" stroke-width="0.318898" stroke-linecap="round"/>
<path d="M165.809 53.719V53.719C165.961 53.1546 166.509 52.8314 167.037 52.9939V52.9939" stroke="#316127" stroke-width="0.318898" stroke-linecap="round"/>
<path d="M165.065 55.3758V55.3758C165.217 54.8114 165.765 54.4882 166.293 54.6507V54.6507" stroke="#316127" stroke-width="0.318898" stroke-linecap="round"/>
<path d="M166.294 54.6512V54.6512C166.446 54.0868 166.993 53.7636 167.522 53.9261V53.9261" stroke="#316127" stroke-width="0.318898" stroke-linecap="round"/>
<path d="M165.55 56.3095V56.3095C165.703 55.7451 166.25 55.4219 166.778 55.5844V55.5844" stroke="#316127" stroke-width="0.318898" stroke-linecap="round"/>
<path d="M166.777 55.5848V55.5848C166.929 55.0204 167.476 54.6972 168.005 54.8597V54.8597" stroke="#316127" stroke-width="0.318898" stroke-linecap="round"/>
<path d="M166.033 57.243V57.243C166.185 56.6786 166.732 56.3554 167.261 56.5179V56.5179" stroke="#316127" stroke-width="0.318898" stroke-linecap="round"/>
<path d="M167.259 56.5184V56.5184C167.412 55.954 167.959 55.6308 168.487 55.7933V55.7933" stroke="#316127" stroke-width="0.318898" stroke-linecap="round"/>
<path d="M166.519 58.1768V58.1768C166.671 57.6124 167.219 57.2892 167.747 57.4517V57.4517" stroke="#316127" stroke-width="0.318898" stroke-linecap="round"/>
<path d="M167.746 57.4521V57.4521C167.898 56.8877 168.445 56.5645 168.974 56.727V56.727" stroke="#316127" stroke-width="0.318898" stroke-linecap="round"/>
<path d="M166.998 59.1113V59.1113C167.15 58.5469 167.697 58.2237 168.226 58.3862V58.3862" stroke="#316127" stroke-width="0.318898" stroke-linecap="round"/>
<path d="M168.224 58.3864V58.3864C168.376 57.822 168.924 57.4988 169.452 57.6613V57.6613" stroke="#316127" stroke-width="0.318898" stroke-linecap="round"/>
<path d="M167.482 60.0447V60.0447C167.634 59.4802 168.181 59.1571 168.71 59.3195V59.3195" stroke="#316127" stroke-width="0.318898" stroke-linecap="round"/>
<path d="M168.709 59.321V59.321C168.861 58.7566 169.408 58.4334 169.937 58.5959V58.5959" stroke="#316127" stroke-width="0.318898" stroke-linecap="round"/>
<defs>
<filter id="filter0_d_67_1533" x="6.18945" y="30.7128" width="48.2334" height="53.321" filterUnits="userSpaceOnUse" color-interpolation-filters="sRGB">
<feFlood flood-opacity="0" result="BackgroundImageFix"/>
<feColorMatrix in="SourceAlpha" type="matrix" values="0 0 0 0 0 0 0 0 0 0 0 0 0 0 0 0 0 0 127 0" result="hardAlpha"/>
<feOffset dy="4"/>
<feGaussianBlur stdDeviation="2"/>
<feComposite in2="hardAlpha" operator="out"/>
<feColorMatrix type="matrix" values="0 0 0 0 1 0 0 0 0 1 0 0 0 0 1 0 0 0 0.09 0"/>
<feBlend mode="normal" in2="BackgroundImageFix" result="effect1_dropShadow_67_1533"/>
<feBlend mode="normal" in="SourceGraphic" in2="effect1_dropShadow_67_1533" result="shape"/>
</filter>
<filter id="filter1_d_67_1533" x="33.7559" y="30.7128" width="48.2334" height="53.321" filterUnits="userSpaceOnUse" color-interpolation-filters="sRGB">
<feFlood flood-opacity="0" result="BackgroundImageFix"/>
<feColorMatrix in="SourceAlpha" type="matrix" values="0 0 0 0 0 0 0 0 0 0 0 0 0 0 0 0 0 0 127 0" result="hardAlpha"/>
<feOffset dy="4"/>
<feGaussianBlur stdDeviation="2"/>
<feComposite in2="hardAlpha" operator="out"/>
<feColorMatrix type="matrix" values="0 0 0 0 1 0 0 0 0 1 0 0 0 0 1 0 0 0 0.09 0"/>
<feBlend mode="normal" in2="BackgroundImageFix" result="effect1_dropShadow_67_1533"/>
<feBlend mode="normal" in="SourceGraphic" in2="effect1_dropShadow_67_1533" result="shape"/>
</filter>
</defs>
</svg>
