<svg width="36" height="37" viewBox="0 0 36 37" fill="none" xmlns="http://www.w3.org/2000/svg">
<path d="M10.81 36.3837C9.81907 36.3837 8.97109 36.0315 8.26604 35.3271C7.56099 34.6227 7.20786 33.7749 7.20666 32.7837C7.20546 31.7925 7.55858 30.9453 8.26604 30.2421C8.97349 29.5389 9.82147 29.1862 10.81 29.1838C11.7985 29.1814 12.6471 29.5341 13.3557 30.2421C14.0644 30.9501 14.4169 31.7973 14.4133 32.7837C14.4097 33.7701 14.0572 34.6179 13.3557 35.3271C12.6543 36.0363 11.8057 36.3885 10.81 36.3837ZM28.8266 36.3837C27.8357 36.3837 26.9877 36.0315 26.2827 35.3271C25.5776 34.6227 25.2245 33.7749 25.2233 32.7837C25.2221 31.7925 25.5752 30.9453 26.2827 30.2421C26.9901 29.5389 27.8381 29.1862 28.8266 29.1838C29.8151 29.1814 30.6637 29.5341 31.3724 30.2421C32.081 30.9501 32.4336 31.7973 32.43 32.7837C32.4264 33.7701 32.0738 34.6179 31.3724 35.3271C30.6709 36.0363 29.8224 36.3885 28.8266 36.3837ZM7.56699 3.98378H34.1415C34.8322 3.98378 35.3577 4.29158 35.718 4.90718C36.0783 5.52278 36.0933 6.14498 35.763 6.77378L29.3671 18.2938C29.0368 18.8938 28.5942 19.3588 28.0393 19.6888C27.4844 20.0188 26.876 20.1838 26.2142 20.1838H12.7918L10.81 23.7838H32.43V27.3838H10.81C9.45874 27.3838 8.4378 26.7916 7.74716 25.6072C7.05652 24.4228 7.02649 23.245 7.65707 22.0738L10.0893 17.6638L3.60333 3.98378H0V0.383789H5.85541L7.56699 3.98378Z" fill="white"/>
</svg>
