<svg width="36" height="36" viewBox="0 0 36 36" fill="none" xmlns="http://www.w3.org/2000/svg">
    <mask id="path-2-inside-1_201_38" fill="white">
    <path fill-rule="evenodd" clip-rule="evenodd" d="M2.46271 27.1546C5.74223 22.5418 11.4755 20.0005 17.9999 20.0005C24.5239 20.0005 30.2568 22.5414 33.5364 27.1536C30.2569 32.4743 24.5236 35.9999 17.9992 35.9999C11.4753 35.9999 5.74234 32.4748 2.46271 27.1546Z"/>
    </mask>
    <path fill-rule="evenodd" clip-rule="evenodd" d="M2.46271 27.1546C5.74223 22.5418 11.4755 20.0005 17.9999 20.0005C24.5239 20.0005 30.2568 22.5414 33.5364 27.1536C30.2569 32.4743 24.5236 35.9999 17.9992 35.9999C11.4753 35.9999 5.74234 32.4748 2.46271 27.1546Z" fill="white"/>
    <path d="M2.46271 27.1546L0.832675 25.9958L0.0647116 27.076L0.760209 28.2042L2.46271 27.1546ZM33.5364 27.1536L35.239 28.203L35.9344 27.0747L35.1664 25.9946L33.5364 27.1536ZM4.09274 28.3135C6.91645 24.3418 11.97 22.0005 17.9999 22.0005V18.0005C10.981 18.0005 4.56801 20.7418 0.832675 25.9958L4.09274 28.3135ZM17.9999 22.0005C24.0294 22.0005 29.0827 24.3414 31.9065 28.3126L35.1664 25.9946C31.4309 20.7414 25.0183 18.0005 17.9999 18.0005V22.0005ZM31.8339 26.1042C28.8898 30.8806 23.7767 33.9999 17.9992 33.9999V37.9999C25.2706 37.9999 31.624 34.068 35.239 28.203L31.8339 26.1042ZM17.9992 33.9999C12.2222 33.9999 7.10933 30.881 4.16521 26.1051L0.760209 28.2042C4.37536 34.0685 10.7284 37.9999 17.9992 37.9999V33.9999Z" fill="white" mask="url(#path-2-inside-1_201_38)"/>
    <ellipse cx="18" cy="12.75" rx="6.75" ry="6.75" fill="white"/>
    </svg>